<svg width="597" height="597" viewBox="0 0 597 597" fill="none" xmlns="http://www.w3.org/2000/svg">
<path d="M298.16 8.4502e-07C239.19 8.4502e-07 181.543 17.4868 132.511 50.249C83.4791 83.0112 45.2632 129.577 22.6962 184.059C0.129189 238.541 -5.77537 298.491 5.72919 356.328C17.2338 414.165 45.6307 467.292 87.3292 508.991C129.028 550.689 182.155 579.086 239.992 590.591C297.829 602.095 357.779 596.191 412.261 573.624C466.743 551.057 513.309 512.841 546.071 463.809C578.833 414.777 596.32 357.13 596.32 298.16C596.323 259.004 588.613 220.231 573.63 184.056C558.647 147.88 536.685 115.01 508.998 87.3224C481.31 59.6351 448.44 37.673 412.264 22.6901C376.089 7.70717 337.316 -0.00294707 298.16 8.4502e-07V8.4502e-07ZM298.16 559.959C246.381 559.959 195.765 544.605 152.712 515.838C109.66 487.071 76.1043 446.184 56.2894 398.346C36.4744 350.509 31.2899 297.869 41.3915 247.085C51.4931 196.301 76.427 149.653 113.04 113.04C149.653 76.4269 196.302 51.4929 247.086 41.3914C297.87 31.2898 350.509 36.4743 398.346 56.2892C446.184 76.1042 487.071 109.66 515.838 152.712C544.605 195.765 559.959 246.381 559.959 298.16C559.959 367.593 532.377 434.183 483.28 483.28C434.183 532.377 367.593 559.959 298.16 559.959V559.959Z" fill="white"/>
<path d="M298.16 106.592C260.272 106.592 223.234 117.827 191.731 138.877C160.227 159.927 135.674 189.846 121.174 224.85C106.675 259.855 102.881 298.373 110.273 335.533C117.665 372.694 135.91 406.828 162.701 433.62C189.492 460.411 223.627 478.656 260.787 486.048C297.948 493.439 336.466 489.646 371.47 475.146C406.475 460.647 436.394 436.093 457.444 404.59C478.493 373.087 489.729 336.049 489.729 298.16C489.729 273.003 484.774 248.092 475.146 224.85C465.519 201.608 451.408 180.49 433.62 162.701C415.831 144.912 394.713 130.801 371.47 121.174C348.228 111.547 323.317 106.592 298.16 106.592ZM298.16 466.363C264.893 466.363 232.373 456.498 204.712 438.016C177.051 419.534 155.492 393.264 142.761 362.529C130.03 331.794 126.699 297.974 133.189 265.345C139.679 232.717 155.699 202.746 179.223 179.223C202.746 155.699 232.717 139.679 265.346 133.189C297.974 126.699 331.794 130.03 362.529 142.761C393.264 155.492 419.534 177.051 438.016 204.712C456.498 232.372 466.363 264.893 466.363 298.16C466.363 342.77 448.642 385.554 417.098 417.098C385.554 448.642 342.771 466.363 298.16 466.363Z" fill="white"/>
<path d="M333.803 14.791H262.518V116.624H333.803V14.791Z" fill="white"/>
<path d="M333.803 477.788H262.518V579.621H333.803V477.788Z" fill="white"/>
<path d="M186.422 440.339L136.016 389.932L64.0087 461.939L114.415 512.345L186.422 440.339Z" fill="white"/>
<path d="M487.97 495.129L538.376 444.722L466.37 372.715L415.963 423.122L487.97 495.129Z" fill="white"/>
<path d="M114.398 78.7054L63.9917 129.112L135.999 201.119L186.405 150.712L114.398 78.7054Z" fill="white"/>
<path d="M415.969 167.941L466.375 218.347L538.382 146.34L487.975 95.9339L415.969 167.941Z" fill="white"/>
<path d="M177.585 322.849V315.891L182.703 314.814V281.551L177.585 280.563V273.56H200.839V280.563L194.599 281.64V313.804H206.338L206.607 306.936H215.585V322.939L177.585 322.849Z" fill="white"/>
<path d="M240.544 323.545C236.702 323.647 232.881 322.952 229.321 321.503C226.406 320.246 223.93 318.153 222.206 315.487C220.41 312.58 219.512 309.207 219.625 305.791V281.551L214.463 280.563V273.56H236.571V280.563L231.454 281.64V305.881C231.396 307.588 231.758 309.284 232.509 310.819C233.185 312.098 234.266 313.116 235.584 313.714C237.126 314.383 238.796 314.705 240.477 314.657C242.194 314.711 243.902 314.39 245.482 313.714C246.793 313.115 247.867 312.096 248.534 310.819C249.266 309.278 249.62 307.586 249.567 305.881V281.64L244.472 280.563V273.56H266.58V280.563L261.463 281.64V305.881C261.567 309.277 260.644 312.625 258.814 315.487C257.017 318.186 254.464 320.294 251.475 321.548C248.012 322.973 244.287 323.654 240.544 323.545V323.545Z" fill="white"/>
<path d="M292.796 323.546C288.43 323.63 284.108 322.652 280.204 320.695C276.574 318.854 273.563 315.99 271.541 312.458C269.328 308.436 268.235 303.893 268.376 299.305V297.06C268.29 292.689 269.285 288.364 271.271 284.469C273.146 280.871 276.023 277.893 279.553 275.895C283.453 273.749 287.853 272.68 292.302 272.797C295.628 272.777 298.939 273.238 302.133 274.166C305.312 275.121 308.261 276.717 310.797 278.857V291.561H302.133L300.966 284.289C300.19 283.733 299.372 283.238 298.52 282.808C297.648 282.419 296.738 282.126 295.804 281.932C294.785 281.721 293.747 281.616 292.706 281.618C290.387 281.568 288.102 282.191 286.13 283.414C284.193 284.684 282.671 286.494 281.753 288.621C280.675 291.238 280.155 294.051 280.227 296.881V299.125C280.161 301.874 280.705 304.603 281.82 307.116C282.783 309.29 284.339 311.149 286.309 312.48C288.296 313.815 290.65 314.498 293.043 314.433C294.408 314.421 295.768 314.278 297.105 314.006C298.463 313.72 299.798 313.338 301.101 312.862L302.29 305.881H310.977V318.316C308.643 319.848 306.104 321.042 303.435 321.862C300.003 322.994 296.41 323.563 292.796 323.546V323.546Z" fill="white"/>
<path d="M313.984 322.849V315.891L319.101 314.814V281.55L313.984 280.473V273.47H335.666V280.563L330.997 281.64V314.904L335.666 315.981V322.939L313.984 322.849ZM327.9 312.098L321.84 305.14L346.529 280.9L340.94 280.54V273.538H363.991V280.563L359.345 281.528L327.9 312.098ZM341.95 322.849V315.891L346.888 315.51L335.037 299.282L343.342 291.92L360.625 315.038L365.675 315.891V322.849H341.95Z" fill="white"/>
<path d="M382.352 322.849V315.891L387.469 314.814V306.577L373.172 281.169L368.099 280.563V273.56H389.467V280.563L386.414 281.102L393.148 294.569L393.933 296.297H394.225L395.056 294.681L402.979 281.057L397.839 280.518V273.515H418.78V280.563L413.55 281.259L399.388 305.701V314.904L404.55 315.981V322.939L382.352 322.849Z" fill="white"/>
</svg>
