<svg width="439" height="62" viewBox="0 0 439 62" fill="none" xmlns="http://www.w3.org/2000/svg">
<path d="M0 60.5935V54.2688L4.65168 53.2815V23.0157L0 22.0284V15.6729H21.1328V22.0284L15.4645 23.0157V52.2943H26.1233L26.3698 46.0313H34.6257V60.5935H0Z" fill="white"/>
<path d="M57.2064 61.2414C53.3454 61.2414 49.9773 60.6243 47.1021 59.3903C44.2474 58.1356 42.0396 56.305 40.4788 53.8986C38.918 51.4921 38.1376 48.5509 38.1376 45.0749V23.0157L33.5167 22.0284V15.6729H53.6021V22.0284L48.9504 23.0157V45.0749C48.9504 47.7899 49.6589 49.8055 51.076 51.1219C52.4931 52.4177 54.516 53.0656 57.1448 53.0656C62.6487 53.0656 65.4007 50.402 65.4007 45.0749V23.0157L60.7798 22.0284V15.6729H80.8652V22.0284L76.2135 23.0157V45.0749C76.2135 48.4892 75.4126 51.4099 73.8107 53.8369C72.2088 56.2433 69.9805 58.0842 67.1258 59.3594C64.2917 60.6141 60.9852 61.2414 57.2064 61.2414Z" fill="white"/>
<path d="M104.709 61.2414C100.437 61.2414 96.6275 60.3775 93.28 58.6498C89.9324 56.9221 87.3036 54.4231 85.3937 51.1527C83.4837 47.8619 82.5287 43.8717 82.5287 39.1821V37.1151C82.5287 32.7958 83.4016 28.9804 85.1472 25.6689C86.9134 22.3369 89.419 19.735 92.6638 17.8634C95.9293 15.9711 99.8005 15.025 104.278 15.025C107.399 15.025 110.367 15.4466 113.181 16.2899C116.015 17.1126 118.643 18.5318 121.067 20.5475V32.117H113.211L112.133 25.4838C111.086 24.7639 109.956 24.1983 108.744 23.787C107.533 23.3756 106.167 23.1699 104.647 23.1699C101.238 23.1699 98.4964 24.3834 96.4222 26.8105C94.3479 29.2169 93.3108 32.6312 93.3108 37.0533V39.1821C93.3108 41.9383 93.7934 44.3653 94.7586 46.4632C95.7239 48.5406 97.0691 50.1655 98.7942 51.3379C100.54 52.5102 102.553 53.0964 104.832 53.0964C106.044 53.0964 107.276 52.973 108.529 52.7262C109.782 52.4588 110.993 52.1092 112.164 51.6772L113.242 45.3217H121.128V56.6444C119.342 57.8785 117.062 58.9583 114.29 59.8839C111.517 60.7889 108.323 61.2414 104.709 61.2414Z" fill="white"/>
<path d="M123.963 60.5935V54.2688L128.614 53.2815V23.0157L123.963 22.0284V15.6729H143.678V22.0284L139.427 23.0157V36.282L153.475 22.4295L153.505 22.3678L148.422 22.0284V15.6729H169.37V22.0284L165.15 22.9231L152.674 35.1097L166.413 53.4975L171.003 54.2688V60.5935H149.377V54.2688L153.875 53.9294H153.937L145.403 42.2365L139.427 48.0675V53.2815L143.678 54.2688V60.5935H123.963Z" fill="white"/>
<path d="M186.159 60.5935V54.2688L190.811 53.2815V45.7845L177.811 22.6763L173.129 22.0284V15.6729H192.536V22.0284L189.764 22.522L195.925 34.832L196.633 36.4055H196.911L197.65 34.9246L204.859 22.522L200.176 22.0284V15.6729H219.214V22.0284L214.47 22.6763L201.593 44.9206V53.2815L206.276 54.2688V60.5935H186.159Z" fill="white"/>
<path d="M236.527 60.5935V54.2688L241.24 53.1273V23.2008L236.527 22.0284V15.6729H257.536C261.582 15.6729 265.166 16.619 268.288 18.5112C271.409 20.3829 273.853 22.9848 275.62 26.3168C277.386 29.6283 278.269 33.4539 278.269 37.7938V38.5034C278.269 42.8433 277.386 46.6792 275.62 50.0112C273.853 53.3227 271.409 55.9142 268.288 57.7859C265.166 59.6576 261.582 60.5935 257.536 60.5935H236.527ZM252.053 52.3868H256.982C260.391 52.3868 262.979 51.1219 264.745 48.592C266.511 46.0416 267.394 42.6787 267.394 38.5034V37.7629C267.394 33.6082 266.511 30.2659 264.745 27.736C262.979 25.1856 260.391 23.9104 256.982 23.9104H252.053V52.3868Z" fill="white"/>
<path d="M279.624 60.5935V54.2688L282.766 53.806L296.136 15.6729H307.842L321.243 53.806L324.385 54.2688V60.5935H307.627V54.2688L310.553 53.7135L309.198 48.8388H294.781L293.487 53.7135L296.413 54.2688V60.5935H279.624ZM297.06 41.2492H306.887L302.513 27.6435L302.02 26.07H301.835L301.312 27.7977L297.06 41.2492Z" fill="white"/>
<path d="M330.823 60.5935V54.2688L335.475 53.2815V45.7845L322.475 22.6763L317.793 22.0284V15.6729H337.2V22.0284L334.428 22.522L340.589 34.832L341.297 36.4055H341.575L342.314 34.9246L349.523 22.522L344.84 22.0284V15.6729H363.878V22.0284L359.134 22.6763L346.257 44.9206V53.2815L350.94 54.2688V60.5935H330.823Z" fill="white"/>
<path d="M384.98 61.2414C381.324 61.2414 378.08 60.8917 375.245 60.1924C372.411 59.4931 369.587 58.1767 366.774 56.2433V44.5813H375.122L376.046 50.5666C376.704 51.307 377.864 51.9343 379.527 52.4485C381.191 52.9422 383.009 53.189 384.98 53.189C389.149 53.189 391.234 51.7287 391.234 48.808C391.234 47.4711 390.72 46.3398 389.693 45.4143C388.667 44.4681 386.88 43.5014 384.333 42.5142C380.493 41.2801 377.34 40.0254 374.876 38.7502C372.411 37.475 370.573 35.9632 369.362 34.215C368.17 32.4667 367.575 30.2967 367.575 27.7052C367.575 25.2164 368.283 23.0465 369.7 21.1954C371.117 19.3237 373.069 17.8531 375.554 16.7835C378.039 15.714 380.883 15.1484 384.087 15.0867C387.742 15.0044 390.977 15.3746 393.791 16.1973C396.604 16.9995 399.089 18.2233 401.246 19.8687V30.6978H393.236L391.973 24.6817C391.275 24.332 390.279 24.0132 388.985 23.7253C387.691 23.4373 386.315 23.2933 384.857 23.2933C382.988 23.2933 381.437 23.6635 380.205 24.404C378.973 25.1444 378.357 26.2551 378.357 27.736C378.357 28.5382 378.593 29.2581 379.065 29.8957C379.538 30.5127 380.369 31.14 381.561 31.7776C382.752 32.3947 384.415 33.1146 386.551 33.9373C391.644 35.4388 395.505 37.3207 398.134 39.5832C400.783 41.8251 402.108 44.8795 402.108 48.7463C402.108 51.3996 401.389 53.6621 399.952 55.5337C398.514 57.3849 396.512 58.8041 393.945 59.7913C391.377 60.758 388.389 61.2414 384.98 61.2414Z" fill="white"/>
<path d="M414.615 11.2302V9.64899L415.786 9.40217V2.09794H414.053L413.984 3.30889H411.943V0H422.363V3.30889H420.299L420.237 2.09794H418.489V9.40217L419.66 9.64899V11.2302H414.615Z" fill="white"/>
<path d="M422.71 11.2302V9.64899L423.865 9.40217V1.8357L422.71 1.58888V0H428L430.711 7.39679H430.758L433.391 0H438.621V1.58888L437.458 1.8357V9.40217L438.621 9.64899V11.2302H433.599V9.64899L434.808 9.40217V7.9367L434.87 2.65328L434.824 2.64557L431.651 11.2302H429.525L426.306 2.74584L426.252 2.75355L426.437 7.56647V9.40217L427.739 9.64899V11.2302H422.71Z" fill="white"/>
</svg>
