<svg width="850" height="450" viewBox="0 0 850 450" fill="none" xmlns="http://www.w3.org/2000/svg">
<path fill-rule="evenodd" clip-rule="evenodd" d="M155.204 275.192L157.505 304.049L201.223 314.437L234.588 329.442L261.049 352.527L273.704 342.139L289.811 306.358L308.219 302.895L374.947 309.82L397.958 316.745L389.904 355.99L381.851 384.846L515.307 376.766L510.705 309.82L483.093 248.645L373.797 195.55L292.112 205.938L234.588 269.421L209.277 283.272L164.408 280.964" fill="white"/>
<path fill-rule="evenodd" clip-rule="evenodd" d="M91.5434 332.666C91.5434 337.375 94.4586 337.076 97.9892 336.715C99.1928 336.592 100.469 336.461 101.725 336.52C102.491 336.555 103.783 336.781 105.316 337.05C109.802 337.836 116.351 338.985 117.808 336.766C119.202 334.642 117.26 334.352 115.279 334.057C113.943 333.859 112.591 333.658 112.232 332.889C111.28 330.845 113.147 329.426 114.962 328.046C116.571 326.823 118.141 325.63 117.667 324.058C117.19 322.473 115.058 323.373 112.757 324.345C110.203 325.424 107.439 326.59 106.495 324.548C105.595 322.601 107.665 320.797 109.544 319.158C111.133 317.773 112.587 316.506 111.993 315.372C110.891 313.274 99.7272 318.584 98.3018 319.497C94.2684 322.079 91.3603 327.882 91.5434 332.666ZM590.124 220.748C591.837 222.595 593.141 224.772 594.436 226.931C595.732 229.092 597.017 231.236 598.692 233.016C600.133 234.548 601.787 235.143 603.501 235.759C604.277 236.037 605.065 236.322 605.851 236.698C607.368 237.426 608.941 238.216 610.553 239.024C616.759 242.139 623.548 245.545 630 246.885C625.241 241.316 622.221 236.277 619.394 229.51C619.106 228.82 618.797 228.118 618.484 227.41C617.702 225.634 616.9 223.815 616.36 222.019C615.789 220.127 615.68 218.178 615.571 216.238C615.473 214.487 615.375 212.744 614.939 211.058C614.693 210.107 614.592 209.373 614.518 208.829L614.517 208.826C614.429 208.182 614.378 207.806 614.165 207.652C613.865 207.436 613.246 207.662 611.754 208.207L611.634 208.25L611.453 208.317L611.257 208.388C609.963 208.858 608.762 209.859 607.592 210.834C606.859 211.446 606.137 212.048 605.411 212.503C603.17 213.907 600.835 215.017 598.508 216.123C595.635 217.489 592.775 218.848 590.124 220.748ZM807.996 120.766C808.161 122.515 831.721 114.107 834.046 112.564C838.394 109.679 843.49 96.4017 838.864 92.4661C834.698 88.9241 825.545 93.24 818.92 96.3647C816.662 97.4292 814.698 98.3554 813.325 98.7851C804.228 101.628 793.748 103.229 784.267 102.26C779.969 101.82 775.736 101.455 771.396 101.186C770.666 101.141 769.823 101.027 768.922 100.903C765.815 100.481 762.025 99.964 759.859 101.905C757.215 104.272 757.534 108.983 758.88 111.926C759.345 112.941 759.906 113.502 760.448 114.043C760.921 114.517 761.38 114.976 761.747 115.71C761.846 115.906 761.793 116.158 761.729 116.462C761.629 116.943 761.501 117.556 761.902 118.287C763.7 121.571 769.818 127.059 773.114 128.731C776.272 130.334 777.423 129.347 779.177 127.843C779.772 127.334 780.435 126.766 781.269 126.219C787.005 122.457 795.966 121.748 803.492 121.153C805.07 121.028 806.587 120.908 807.996 120.766ZM753.45 121.783C746.63 130.11 738.609 135.899 730.197 141.968L730.194 141.97C728.533 143.17 726.855 144.38 725.169 145.624C722.889 147.305 720.635 149.021 718.384 150.735L718.382 150.736L718.381 150.738L718.379 150.739C711.693 155.828 705.022 160.909 697.69 165.054C696.899 165.501 695.97 165.897 695.028 166.299C692.538 167.359 689.954 168.459 689.577 170.652C689.249 172.56 691.516 176.624 693.411 180.023C694.342 181.692 695.183 183.2 695.584 184.215C699.197 193.338 701.981 202.671 704.783 212.07C705.174 213.381 705.566 214.693 705.959 216.007L706.641 214.945C716.012 200.334 725.508 185.53 736.989 172.33C747.367 160.397 758.012 147.911 767.084 135.053C761.593 131.709 757.044 127.096 753.45 121.783ZM673.884 12.3392C664.27 11.9536 661.339 19.801 658.533 27.3147C657.431 30.266 656.348 33.1662 654.887 35.495C652.024 40.0583 648.215 44.958 643.985 48.3724C640.781 50.9583 636.936 52.4832 633.103 54.0037C631.222 54.7495 629.344 55.4952 627.547 56.3633C622.599 58.752 618.202 61.1459 615.115 65.7551C614.821 66.1935 614.492 66.6575 614.151 67.1409C612.008 70.1679 609.308 73.9829 610.847 77.5267C611.916 79.9858 614.823 82.0161 617.678 84.0094C619.701 85.4216 621.698 86.8154 622.994 88.3306C626.696 92.6571 627.218 92.5321 631.394 91.5275C632.073 91.3638 632.849 91.178 633.75 90.9834C636.97 90.2887 640.029 90.0721 643.32 90.1875C643.72 90.2007 644.404 90.3284 645.198 90.4754C647.05 90.8197 649.5 91.2748 650.326 90.662C651.325 89.9207 651.014 87.6333 650.744 85.6453C650.606 84.6257 650.477 83.6845 650.542 83.0699C650.835 80.3133 651.814 77.4685 652.742 74.8695C655.887 66.0562 661.454 59.8068 667.253 53.2959L667.258 53.2906L667.264 53.2844L667.27 53.2774L667.275 53.2712C668.259 52.1671 669.25 51.0542 670.236 49.9211C673.841 45.7786 678.102 42.2454 682.361 38.7157C686.732 35.0917 691.1 31.4713 694.746 27.1985C698.72 22.5418 696.911 19.2498 691.457 17.0699C689.919 16.4553 688.233 16.1832 686.552 15.9121C685.204 15.6946 683.86 15.4771 682.595 15.0844C681.596 14.7745 680.636 14.3634 679.678 13.9531C677.815 13.1545 675.965 12.363 673.884 12.3392ZM153.254 341.126C155.128 341.126 156.991 340.361 158.83 339.605C160.815 338.788 162.774 337.982 164.696 338.161C165.624 338.248 166.668 339.127 167.655 339.959C168.29 340.494 168.903 341.01 169.446 341.283C171.417 342.269 173.544 342.761 175.716 343.03C177.149 343.207 178.41 343.209 179.578 343.21C182.265 343.212 184.452 343.214 187.082 345.362C189.835 347.611 192.677 350.446 195.32 353.082C195.928 353.689 196.525 354.284 197.108 354.86C201.943 359.633 206.156 365.339 210.288 370.934C211.847 373.045 213.395 375.141 214.959 377.164C222.011 386.285 229.334 393.525 238.716 400.356C246.127 405.751 253.636 409.301 261.982 413.247L262.744 413.608C271.231 417.624 281.907 422.281 291.536 422.502C299.217 422.679 308.818 420.214 315.808 416.936C319.161 415.364 320.754 415.089 323.49 414.618C324.073 414.518 324.707 414.409 325.42 414.277C331.512 413.146 338.53 409.951 344.266 407.34L344.889 407.056C363.243 398.705 374.875 380.504 383.152 362.688C387.862 352.548 390.805 342.641 392.768 331.67C392.87 331.1 392.972 330.57 393.066 330.078C393.954 325.417 394.213 324.055 388.948 321.82C384.29 319.843 379.335 318.465 374.435 317.101C373.148 316.742 371.864 316.385 370.59 316.018C352.636 310.848 332.172 309.708 313.632 310.497C312.527 310.544 311.418 310.621 310.31 310.697H310.307H310.305C308.49 310.823 306.671 310.948 304.859 310.946C304.266 310.946 303.409 310.837 302.471 310.72C300.604 310.485 298.417 310.21 297.351 310.66C294.825 311.73 292.679 316.573 291.151 320.019L291.15 320.023L291.149 320.025C290.742 320.942 290.379 321.761 290.065 322.383C287.503 327.452 285.229 332.652 282.955 337.85C280.929 342.481 278.905 347.112 276.678 351.646C274.22 356.652 270.548 359.944 264.746 360.025C258.992 360.105 255.935 356.85 252.447 353.138C251.995 352.656 251.535 352.166 251.061 351.676C242.835 343.151 231.763 335.823 221.551 329.893C210.522 323.49 197.371 317.285 184.814 315.024C183.514 314.79 181.954 314.436 180.227 314.044C170.837 311.911 156.501 308.656 152.205 317.515C152.292 317.503 152.389 317.49 152.492 317.476L152.514 317.473C155.511 317.066 164.743 315.809 165.149 320.048C165.295 321.574 162.762 322.516 159.848 323.598C156.461 324.856 152.559 326.305 151.749 329.086C152.379 329.037 153.315 328.878 154.415 328.69C158.892 327.928 166.112 326.699 166.734 330.506C167.064 332.525 164.179 333.742 162.183 334.584C161.687 334.793 161.245 334.979 160.922 335.149C157.713 336.837 155.78 338.59 153.254 341.126ZM501.83 190.426C499.332 188.666 494.869 188.412 491.046 188.194C489.632 188.114 488.305 188.039 487.196 187.894L487.167 187.891C481.937 187.207 476.851 186.54 471.569 186.829C469.659 186.934 467.717 186.996 465.763 187.06C460.147 187.242 454.426 187.428 449.04 188.613C439.943 190.612 431.327 193.683 423.106 197.992C422.947 198.076 422.784 198.16 422.618 198.247L422.61 198.25C419.92 199.645 416.502 201.416 416.526 205.189C416.546 208.246 417.537 208.416 419.87 208.817C420.413 208.911 421.027 209.016 421.719 209.174C429.406 210.923 436.648 215.275 443.63 219.472C445.623 220.67 447.596 221.855 449.55 222.963C458.912 228.267 468.236 234.228 476.922 240.585C493.575 252.771 503.08 270.303 510.475 289.362C514.301 299.219 517.074 310.73 518.225 321.235C518.921 327.574 518.924 333.931 518.928 340.285C518.931 345.648 518.934 351.01 519.353 356.355C519.381 356.722 519.413 357.234 519.451 357.851C519.696 361.878 520.214 370.353 522.019 371.84C523.121 372.749 527.271 371.889 530.43 371.236C531.797 370.953 532.978 370.709 533.646 370.663C538.653 370.319 543.677 370.179 548.671 370.04C552.889 369.923 557.087 369.807 561.235 369.568C570.748 369.019 580.38 369.124 590.034 369.228C599.813 369.333 609.615 369.44 619.34 368.868C629.061 368.296 638.471 366.929 648.004 364.967C650.683 364.416 653.562 364.012 656.498 363.599C663.271 362.648 670.35 361.654 675.987 358.716C691.545 350.61 701.031 331.066 701.713 314.518C702.453 296.581 701.228 277.062 697.461 259.192C696.992 256.964 696.537 254.762 696.085 252.574C694.638 245.562 693.221 238.702 691.45 231.645C689.143 222.451 686.584 213.293 684.043 204.197L684.021 204.119C683.704 202.984 683.387 201.851 683.072 200.719C681.061 193.513 678.592 186.51 676.126 179.513L676.125 179.512C672.56 169.395 668.999 159.29 666.833 148.613C664.817 138.677 661.96 128.289 658.979 118.591C657.879 115.017 655.712 108.227 653.154 105.512C651.122 103.354 649.334 103.765 646.853 104.336C646.055 104.52 645.185 104.72 644.212 104.857C642.531 105.093 640.484 105.064 638.36 105.034C632.02 104.944 624.997 104.844 625.001 111.761C625.003 114.723 625.578 117.77 626.151 120.802V120.805L626.152 120.807V120.809C626.559 122.959 626.964 125.103 627.161 127.205C627.399 129.73 627.467 132.262 627.534 134.794V134.796V134.799C627.627 138.259 627.719 141.721 628.245 145.16C628.555 147.185 628.895 149.177 629.233 151.154L629.234 151.161C630.502 158.592 631.731 165.791 631.159 173.614C630.864 177.64 630.366 181.605 629.868 185.565C629.035 192.199 628.203 198.814 628.335 205.655C628.358 206.907 628.372 208.153 628.384 209.394C628.477 218.457 628.568 227.222 632.912 235.612C633.76 237.25 634.542 239.004 635.326 240.762C636.471 243.328 637.62 245.903 638.98 248.14C641.668 252.556 643.996 253.849 648.8 255.628C649.502 255.888 650.444 256.166 651.5 256.478C654.968 257.503 659.67 258.893 661.163 261.194C663.978 265.527 660.22 267.28 656.52 267.132C647.162 266.76 637.6 263.274 628.559 259.977L628.556 259.976L628.553 259.976L628.551 259.975L628.546 259.973L628.528 259.967C626.538 259.241 624.574 258.525 622.643 257.854C619.554 256.779 616.537 255.535 613.523 254.291C611.618 253.505 609.713 252.719 607.795 251.978C606.689 251.551 605.641 251.202 604.626 250.865C602.004 249.992 599.602 249.193 597.007 247.312C592.474 244.028 588.475 240.095 584.475 236.161C580.733 232.481 576.99 228.799 572.808 225.648C556.438 213.311 536.813 205.946 516.253 203.761C510.962 203.198 506.867 203.451 501.569 203.9C500.787 203.966 500.006 204.021 499.228 204.075C497.088 204.224 494.96 204.372 492.833 204.766C492.246 204.875 491.093 205.313 489.786 205.81C487.357 206.731 484.395 207.856 483.543 207.451C475.038 203.408 499.122 191.099 501.83 190.426ZM155.181 275.802C155.184 275.76 155.187 275.719 155.19 275.678C155.206 275.735 155.222 275.79 155.237 275.846L155.181 275.802ZM155.524 276.808C155.426 276.497 155.331 276.176 155.237 275.846C156.971 277.224 158.542 278.73 160.107 280.232L160.108 280.234C162.204 282.244 164.289 284.245 166.743 285.913C171.849 289.381 177.921 291.216 183.971 292.513C195.1 294.901 210.311 294.304 220.922 289.611C230.732 285.273 236.932 277.445 242.389 268.357C243.203 266.999 243.682 265.522 244.143 264.096C245.137 261.029 246.051 258.206 250.07 257.353C252.805 256.772 256.075 257.851 259.393 258.946C262.087 259.835 264.812 260.735 267.307 260.764C272.707 260.825 279.71 258.363 284.121 255.039C285.607 253.918 286.664 251.722 287.669 249.633C288.704 247.482 289.685 245.442 291.025 244.804C292.079 244.302 293.813 245.045 295.313 245.689C296.021 245.991 296.677 246.273 297.185 246.39C299.964 247.035 302.729 247.236 305.518 246.505C309.129 245.557 314.997 242.95 317.813 240.484C319.324 239.162 320.213 236.502 321.07 233.942C321.948 231.319 322.789 228.802 324.228 227.937C325.433 227.214 327.507 227.769 329.617 228.332C331.229 228.763 332.863 229.199 334.145 229.076C343.689 228.165 350.196 222.702 353.864 213.947C354.139 213.29 354.431 211.868 354.766 210.235C355.434 206.986 356.273 202.901 357.491 202.352C358.211 202.029 362.025 203.417 364.79 204.423C366.019 204.869 367.04 205.241 367.492 205.354C376.779 207.683 388.422 212.643 396.472 217.672C402.643 221.527 409.699 224.075 416.709 226.607L416.711 226.608C420.691 228.044 424.656 229.476 428.435 231.138C437.132 234.963 445.614 239.555 453.642 244.444C463.086 250.196 471.648 256.022 479.347 264.044L479.669 264.38L480.093 264.821C487.418 272.446 495.966 281.345 499.143 291.546C500.333 295.367 500.738 299.473 501.138 303.55V303.552C501.362 305.818 501.584 308.074 501.939 310.267C502.578 314.206 503.575 318.024 504.574 321.849C505.132 323.985 505.69 326.124 506.188 328.287C508.817 339.738 509.866 353.291 509.788 365.068C509.782 366.054 509.833 366.972 509.882 367.818C510.073 371.152 510.2 373.367 506.38 374.235C503.301 374.935 499.094 374.064 495.196 373.257C493.175 372.838 491.238 372.437 489.583 372.281C485.407 371.885 481.34 371.998 477.25 372.113H477.246H477.244H477.242C475.084 372.174 472.919 372.234 470.729 372.22C468.903 372.208 467.041 372.098 465.166 371.987C461.136 371.748 457.044 371.506 453.116 372.23C446.112 373.52 438.843 373.809 431.529 374.099C428.765 374.208 425.994 374.318 423.229 374.483C420.157 374.665 417.083 374.684 414.009 374.701C410.26 374.723 406.511 374.745 402.768 375.066C402.303 375.106 401.214 375.302 399.822 375.554C395.488 376.336 388.211 377.65 387.594 376.427C386.89 375.034 390.163 369.145 392.667 364.637C393.791 362.615 394.76 360.87 395.147 359.935C397.517 354.198 399.63 348.323 400.782 342.206C402.731 331.85 403.422 321.837 403.507 311.42C403.604 299.375 401.513 288.025 398.262 276.504C398.183 276.224 398.082 275.785 397.955 275.236C397.064 271.377 394.924 262.109 390.56 264.908C387.928 266.597 389.439 273.963 390.286 278.092C390.488 279.073 390.652 279.87 390.713 280.366C391.01 282.737 391.415 285.089 391.819 287.439C392.443 291.064 393.067 294.685 393.291 298.366C393.334 299.051 393.422 299.862 393.517 300.732C393.792 303.264 394.123 306.298 393.516 308.2C393.304 308.864 393.209 309.343 393.141 309.685C393.066 310.062 393.025 310.27 392.898 310.374C392.738 310.504 392.446 310.471 391.787 310.396C391.466 310.359 391.058 310.313 390.535 310.27C387.844 310.053 384.75 308.242 381.8 306.515C379.868 305.384 377.999 304.289 376.344 303.703C371.025 301.814 365.771 300.683 360.253 299.682C348.34 297.522 336.401 296.732 324.281 296.769C321.362 296.779 318.305 297.296 315.255 297.812C311.699 298.412 308.154 299.012 304.852 298.803C304.612 298.788 304.376 298.773 304.142 298.758C300.018 298.493 296.957 298.297 292.232 299.178C292.99 295.032 294.835 291.075 296.682 287.114C298.782 282.613 300.885 278.106 301.395 273.308C302.692 261.095 292.533 269.357 289.138 274.209C284.246 281.201 280.344 288.572 279.108 297.217C278.874 298.85 279.081 300.496 279.283 302.117C279.506 303.892 279.724 305.637 279.358 307.303C278.904 309.36 277.422 311.63 276.002 313.803C275.13 315.138 274.281 316.438 273.71 317.629C270.206 324.928 267.766 332.576 265.466 340.319C265.286 340.927 265.143 341.496 265.013 342.014C264.337 344.712 264.005 346.038 260.448 344.418C258.804 343.668 257.513 342.211 256.243 340.777C255.507 339.947 254.778 339.123 253.991 338.45C243.546 329.502 232.526 321.198 220.46 314.337C207.855 307.168 195.567 303.824 181.278 302.317C180.484 302.234 179.564 302.158 178.562 302.074H178.559C172.822 301.599 164.394 300.901 161.68 297.346C159.286 294.214 158.14 288.608 157.103 283.53C156.595 281.046 156.114 278.688 155.524 276.808ZM163.649 273.352C159.908 271.549 155.651 269.499 155.19 275.678C154.692 273.902 154.239 271.88 153.766 269.77C152.456 263.927 150.996 257.41 148.016 253.562C147.182 252.486 146.158 252.156 145.211 251.852C144.466 251.612 143.769 251.388 143.249 250.826C142.018 249.492 141.862 246.647 141.738 244.392C141.694 243.582 141.653 242.847 141.569 242.285C141.368 240.947 141.158 239.632 140.949 238.33L140.948 238.325V238.323C139.913 231.857 138.93 225.728 139.498 218.941C139.515 218.731 139.529 218.366 139.546 217.903C139.629 215.734 139.793 211.424 140.801 210.817C141.779 210.228 144.547 211.01 146.835 211.655C148.007 211.985 149.052 212.282 149.667 212.339C153.326 212.68 157.011 213.151 160.703 213.622C171.166 214.957 181.695 216.302 191.898 214.735C204.287 212.833 216.172 208.812 227.595 203.667C227.84 205.024 228.479 206.114 229.51 206.936C229.871 206.407 230.187 205.906 230.484 205.437C232.052 202.962 233.084 201.332 237.146 200.695C240.228 200.212 244.492 201.17 247.048 203.094C256.94 210.537 245.661 217.874 239.158 221.213C247.196 230.055 249.729 248.775 240.476 257.811C239.156 259.1 237.832 260.28 236.52 261.451L236.518 261.452C234.179 263.54 231.874 265.595 229.694 268.169C226.131 272.377 223.282 275.645 218.12 277.155C217.508 277.334 216.878 277.521 216.233 277.712C211.141 279.223 205.158 280.998 200.19 281.257C196.539 281.447 192.621 280.69 188.846 279.96C187.112 279.625 185.408 279.295 183.773 279.065C177.313 278.16 171.055 276.721 165.084 274.028C164.621 273.82 164.14 273.588 163.649 273.352ZM148.179 349.51C148.554 349.97 149.262 350.749 150.173 351.754C155.628 357.763 168.407 371.843 161.422 373.891C158.431 374.767 153.691 369.858 150.344 366.392C149.286 365.295 148.367 364.343 147.685 363.764C143.293 360.028 138.693 357.573 133.337 355.512C120.266 350.483 108.44 345.963 94.2059 348.051C92.1659 348.35 89.9789 348.851 87.7434 349.364C83.2901 350.384 78.6405 351.45 74.5596 351.054C68.3903 350.455 69.9883 344.952 73.8465 341.88C75.1539 340.839 76.6568 340.304 78.1008 339.79C80.4648 338.947 82.6712 338.161 83.6115 335.303C84.2789 333.271 84.3414 331.005 84.4048 328.708C84.4867 325.749 84.5703 322.738 85.95 320.115C88.0437 316.134 92.9786 312.004 96.7883 309.698C97.3412 309.363 98.0262 309.061 98.7261 308.754C100.127 308.139 101.586 307.498 102.164 306.51C102.7 305.595 101.168 301.415 100.205 298.79C99.8901 297.933 99.6365 297.24 99.5361 296.883C99.0184 295.037 98.4875 293.19 97.9575 291.342C96.4484 286.09 94.9367 280.825 93.6891 275.521C92.1254 268.875 91.7186 265.432 98.7182 263.02C104.47 261.037 110.373 259.623 116.264 258.211C121.313 257.001 126.355 255.793 131.287 254.231C130.01 250.905 126.904 251.706 123.713 252.531C122.169 252.929 120.605 253.334 119.219 253.277C114.009 253.068 107.981 251.353 103.019 249.753C91.7565 246.117 84.0931 237.055 82.3524 225.369C82.1913 224.292 82.3111 222.76 82.4352 221.177C82.6051 218.993 82.783 216.712 82.2424 215.398C81.6261 213.898 80.2209 212.939 78.8087 211.974C78.2038 211.561 77.598 211.147 77.0521 210.689C72.362 206.758 68.2081 201.362 65.6777 195.776C63.142 190.178 62.965 183.89 64.4389 177.982C64.5577 177.504 64.6695 177.087 64.769 176.713C65.3501 174.539 65.5403 173.827 64.5613 171.202C63.9432 169.545 63.1429 167.972 62.3408 166.395C61.4198 164.584 60.4953 162.768 59.8403 160.813C57.8337 154.819 56.7394 148.359 56.8485 142.03C56.9304 137.35 58.1956 134.371 59.5894 131.09C60.3096 129.395 61.0632 127.619 61.706 125.486C62.597 122.53 62.2272 118.898 61.86 115.283C61.6135 112.856 61.367 110.435 61.5043 108.233C61.9393 101.218 63.7354 95.5811 66.8354 89.337C71.5987 79.7428 79.1415 69.4582 88.9602 64.4274C89.8539 63.9686 91.0143 63.7089 92.1747 63.4492C93.5324 63.1446 94.8918 62.8408 95.8268 62.2166C97.5428 61.0729 97.9998 59.4969 98.5404 57.6312C98.6795 57.1531 98.823 56.6565 98.9947 56.1432C101.007 50.1395 103.52 45.2759 107.872 40.6852C121.988 25.7995 146.721 20.5274 166.557 21.7838C167.835 21.8648 169.091 22.1342 170.333 22.4001C172.553 22.8755 174.725 23.3404 176.891 22.7056C178.165 22.3314 179.482 21.4369 180.806 20.5379C181.912 19.786 183.023 19.0315 184.12 18.5719C187.172 17.2952 190.23 16.5477 193.514 16.2211C200 15.5749 205.274 16.2581 211.252 18.4478C213.023 19.0975 214.735 19.7931 216.465 20.4966L216.467 20.4974C216.94 20.6903 217.416 20.8831 217.894 21.0759C220.577 22.1597 221.092 22.0215 222.66 21.6024C223.144 21.473 223.729 21.3163 224.508 21.1613C231.09 19.8503 234.871 20.8206 240.704 23.6292C241.272 23.903 241.962 24.1513 242.673 24.4066C243.906 24.8504 245.205 25.317 246.052 25.9809C246.911 26.6553 247.539 27.9539 248.165 29.25C248.919 30.8084 249.671 32.3632 250.821 32.8228C251.571 33.1239 253.326 32.5217 254.886 31.9873C255.757 31.6888 256.567 31.4115 257.106 31.3234C258.873 31.0355 260.616 31.1077 262.363 31.1799C263.243 31.216 264.124 31.253 265.011 31.2433C269.692 31.1922 274.641 31.3666 278.916 33.58C281.596 34.9676 284.73 37.4276 287.305 39.4482C287.823 39.8549 288.319 40.2441 288.783 40.6025C290.267 41.7479 291.535 43.2878 292.809 44.8356C294.831 47.2903 296.868 49.7644 299.806 50.7162C300.78 51.0314 301.794 51.0173 302.814 51.0032C303.758 50.9909 304.706 50.9776 305.627 51.2268C308.124 51.9012 310.521 53.7097 312.544 55.3068C313.996 56.454 315.354 58.2343 316.702 60.0014C318.584 62.4666 320.443 64.9046 322.508 65.5552C323.68 65.9241 325.173 65.9197 326.711 65.9153C328.277 65.91 329.889 65.9056 331.254 66.2948C334.65 67.2633 337.465 68.6676 339.982 71.2367C344.784 76.1382 346.14 83.3843 346.346 90.0308C346.363 90.5846 346.269 91.4492 346.164 92.4274C345.927 94.6144 345.628 97.3649 346.37 98.4637C346.874 99.2103 348.116 99.7896 349.391 100.384C350.527 100.913 351.687 101.454 352.376 102.135C356.946 106.661 359.011 114.203 359.473 120.403C359.867 125.672 358.954 129.783 357.942 134.336C357.596 135.895 357.239 137.505 356.918 139.232C356.668 140.578 356.395 141.219 356.254 141.549C356.178 141.729 356.141 141.816 356.167 141.875C356.193 141.931 356.276 141.961 356.441 142.019C356.78 142.14 357.463 142.382 358.683 143.234C361.128 144.94 362.816 146.134 364.401 148.812C367.716 154.413 368.55 161.015 368.002 167.397C367.597 172.119 366.012 176.127 364.411 180.179C363.311 182.961 362.204 185.764 361.464 188.831C368.212 188.831 375.379 190.269 382.188 191.634C383.824 191.963 385.439 192.287 387.023 192.585C389.253 193.007 391.112 194.024 393.012 195.063H393.014C393.682 195.429 394.356 195.797 395.052 196.143C396.506 196.865 397.727 197.186 398.975 197.513C399.712 197.707 400.458 197.902 401.266 198.185L401.416 198.237C403.89 199.1 404.939 199.466 405.776 199.19C406.392 198.986 406.894 198.436 407.764 197.479C408.153 197.053 408.615 196.546 409.193 195.952C423.813 180.955 444.624 171.9 465.61 172.195C477.316 172.358 488.639 173.903 499.582 178.117L500.185 178.348C504.56 180.03 509.338 181.866 513.184 184.483C517.77 187.605 518.516 187.62 524.403 187.743L524.702 187.749C547.016 188.212 568.67 200.198 584.91 214.724C586.123 206.58 597.377 201.161 605.515 197.243C607.113 196.473 608.591 195.762 609.85 195.099C610.341 194.84 610.825 194.604 611.295 194.375C613.332 193.383 615.116 192.515 616.162 190.414C616.866 189.003 617.134 186.722 617.397 184.499C617.584 182.912 617.768 181.354 618.103 180.167C619.582 174.932 621.292 168.528 621.158 163.008C620.964 154.905 619.918 146.821 618.872 138.733C617.853 130.868 616.835 122.997 616.598 115.1C616.569 114.118 616.52 113.107 616.469 112.082C616.314 108.905 616.152 105.59 616.556 102.579C616.667 101.75 616.847 101.001 617.017 100.297C617.505 98.2709 617.907 96.6007 616.346 94.3969C614.702 92.0787 612.487 90.4754 610.278 88.8747C607.113 86.5829 603.957 84.2973 602.497 79.9259C598.503 67.9624 605.365 55.7285 614.733 48.6128C616.727 47.0984 618.705 46.0251 620.624 44.9836C623.895 43.2086 626.996 41.5252 629.721 37.9056C631.164 35.9871 632.526 33.9383 633.892 31.8807C636.213 28.388 638.551 24.868 641.344 21.9079C642.692 20.4798 643.996 18.8756 645.314 17.2547C647.636 14.4003 650.001 11.4922 652.721 9.39939C657.094 6.03432 663.516 3.76014 668.737 2.16124C681.274 -1.67751 696.668 -0.760961 705.489 9.96025C714.481 20.891 701.234 36.3473 693.722 43.9746C691.759 45.9688 689.976 48.1303 688.192 50.2935C686.664 52.146 685.135 54.0002 683.491 55.7514C681.824 57.5264 679.957 59.1227 678.117 60.6951C676.07 62.4455 674.055 64.1659 672.39 66.0729C671.91 66.6214 671.42 67.1779 670.924 67.7414C667.986 71.0783 664.838 74.6529 662.463 78.312C662.013 79.0067 661.507 79.7207 660.989 80.4533C659.485 82.5795 657.876 84.8537 657.227 87.1931C656.446 90.0105 656.558 90.0589 657.155 90.3134C657.516 90.4666 658.054 90.6964 658.679 91.6596C659.007 92.165 659.293 92.5788 659.545 92.9424C660.593 94.4594 661.054 95.1259 661.518 98.0613C662.075 101.599 662.868 104.188 664.78 107.211C665.425 108.232 666.082 109.241 666.737 110.248L666.74 110.252L666.743 110.257L666.747 110.263C669.281 114.156 671.786 118.006 673.549 122.376C675.892 128.187 677.692 134.069 679.51 140.015L679.511 140.016L679.512 140.018C679.983 141.562 680.457 143.111 680.941 144.663C681.203 145.5 681.44 146.371 681.679 147.253L681.68 147.255L681.681 147.259L681.682 147.263C682.281 149.471 682.898 151.739 683.954 153.671C686.02 157.45 686.342 157.204 689.322 154.916L689.48 154.796C691.83 152.994 694.186 151.167 696.552 149.333L696.558 149.329C703.593 143.875 710.712 138.355 717.995 133.252C723.571 129.345 729.363 125.518 735.247 122.095C735.892 121.72 736.654 121.299 737.488 120.838C741.886 118.407 748.287 114.868 749.987 111.203C751.083 108.837 751.033 106.551 750.984 104.312C750.913 101.075 750.844 97.9345 754.239 94.7878C757.978 91.3197 764.075 89.3969 768.947 88.5543C774.034 87.6756 779.512 88.3729 784.801 89.0447C786.674 89.2833 788.524 89.5184 790.324 89.6795C797.279 90.3011 804.081 89.624 810.902 88.2012C813.294 87.702 816.191 86.6851 819.317 85.5872C829.836 81.8928 842.954 77.2872 848.169 88.4495C850.485 93.3914 849.772 98.7498 849.085 103.95C848.891 105.417 848.697 106.871 848.574 108.3C848.09 113.96 846.426 119.969 842.903 124.624C839.547 129.054 834.918 129.988 829.94 130.993C828.941 131.194 827.926 131.399 826.905 131.635C823.232 132.485 819.51 133.059 815.787 133.634C812.206 134.187 808.627 134.739 805.089 135.537C801.535 136.338 798.029 136.728 794.379 136.896C792.88 136.966 791.074 136.723 789.284 136.481C787.197 136.201 785.132 135.922 783.597 136.146C782.025 136.375 781.68 137.048 781.292 137.804C781.014 138.348 780.713 138.933 779.92 139.428C779.515 139.68 778.89 139.706 778.319 139.728C777.802 139.749 777.328 139.767 777.099 139.951C775.898 140.917 775.474 141.77 774.681 143.367L774.669 143.391L774.661 143.406L774.65 143.43L774.528 143.676L774.436 143.857C772.01 148.703 768.597 153.45 765.327 158C764.477 159.182 763.637 160.35 762.827 161.504C762.577 161.859 762.325 162.22 762.069 162.586L761.857 162.89C761.657 163.177 761.456 163.467 761.252 163.759C758.327 167.964 755.079 172.634 751.789 176.186C746.484 181.915 741.277 188.018 736.07 194.122L736.067 194.124C733.174 197.516 730.281 200.907 727.371 204.234C723.226 208.972 718.255 214.014 713.438 218.087C712.926 218.52 712.234 218.938 711.515 219.372C710.148 220.198 708.685 221.082 708.187 222.236C707.402 224.054 708.733 227.454 709.788 230.148C710.189 231.173 710.551 232.096 710.74 232.791C711.527 235.675 711.987 238.605 712.445 241.527C712.94 244.68 713.433 247.823 714.333 250.889C715.995 256.537 716.598 262.696 716.966 268.585C717.225 272.733 717.581 276.816 717.935 280.873V280.878C718.715 289.834 719.485 298.669 719.191 307.832C718.823 319.316 718.402 330.329 714.414 341.605C710.784 351.867 699.91 363.04 689.796 366.821C683.776 369.073 678.184 371.119 672.126 372.339L670.999 372.566C665.356 373.702 659.467 374.886 653.898 376.477C642.877 379.626 631.26 381.824 619.814 382.903C605.163 384.282 589.879 384.415 575.267 383.907C568.603 383.676 561.754 383.662 555.178 383.682C550.621 383.695 546.242 384.3 541.803 384.914C539.603 385.218 537.388 385.523 535.13 385.76C523.038 387.028 510.599 387.146 498.163 387.263C485.878 387.379 473.597 387.495 461.657 388.721C457.671 389.129 453.687 389.666 449.696 390.203H449.693C441.794 391.266 433.868 392.332 425.843 392.426C419.784 392.495 413.676 392.302 407.618 392.11C402.861 391.96 398.133 391.81 393.481 391.789C392.753 391.786 392.046 391.796 391.351 391.806C388.839 391.842 386.477 391.875 383.852 391.272C383.341 391.155 382.772 390.94 382.177 390.716C380.709 390.162 379.084 389.548 377.814 390.196C376.744 390.742 375.854 392.493 375.089 394C374.739 394.688 374.415 395.326 374.112 395.774C372 398.898 369.427 401.406 366.71 403.997C355.922 414.278 345.233 417.74 331.076 421.508C324.577 423.238 321.368 424.142 315.911 428.101C311.467 431.325 306.969 433.641 301.852 435.542C291.817 439.27 279.983 436.386 270.552 433.152C269.124 432.662 267.673 432.187 266.212 431.708C262.996 430.653 259.727 429.581 256.519 428.302C253.265 427.006 250.302 425.271 247.344 423.539C244.526 421.888 241.712 420.241 238.655 418.978C239.108 423.195 236.39 425.644 233.77 428.006C232.236 429.388 230.737 430.739 229.925 432.397C229.224 433.829 229.079 435.664 228.929 437.55C228.776 439.486 228.619 441.475 227.851 443.136C226.446 446.179 224.274 449.055 220.886 449.852C216.269 450.936 208.017 445.8 204.774 442.804C204.058 442.142 203.372 441.041 202.666 439.909C201.6 438.198 200.49 436.416 199.162 435.973C197.216 435.32 194.174 437.058 191.567 438.547C190.322 439.258 189.175 439.913 188.297 440.223C175.274 444.819 162.077 446.988 148.095 445.157C135.241 443.473 123.359 439.176 111.345 434.831C110.116 434.387 108.886 433.942 107.654 433.499C81.634 424.157 58.9854 408.777 38.6105 390.259C38.2525 389.933 37.8436 389.619 37.427 389.298C36.5242 388.605 35.5853 387.883 35.0505 386.959C34.6765 386.313 34.5252 385.185 34.3917 384.189C34.2814 383.367 34.1832 382.634 33.9815 382.337C32.8939 380.732 31.363 380.673 29.4765 380.602C29.0601 380.586 28.6254 380.57 28.1753 380.536C20.4828 379.955 14.372 378.097 8.40956 372.942C-0.97495 364.828 -4.44647 345.91 9.93961 340.885C13.6169 339.6 17.6642 339.344 21.4656 340.136C22.099 340.268 23.4283 340.924 24.8861 341.642C27.037 342.703 29.4679 343.902 30.3559 343.761C31.9649 343.505 32.2049 341.956 32.4268 340.524C32.5164 339.947 32.6029 339.388 32.7756 338.94C34.2975 335.004 36.439 331.538 39.0209 328.198C43.3119 322.645 48.541 317.063 53.9069 312.544C59.1377 308.137 64.8439 305.93 70.9753 303.558C71.6761 303.287 72.3823 303.014 73.0945 302.735C77.7697 300.903 86.8955 297.758 91.8472 299.397C98.2965 301.531 95.1392 308.579 91.0759 311.044C88.181 312.801 84.9964 314.04 81.8022 315.284C78.5929 316.534 75.3731 317.787 72.4263 319.572C67.6146 322.488 63.1129 326.203 58.6851 329.855C57.1408 331.13 55.6053 332.396 54.069 333.619C51.8485 335.386 49.7663 337.345 47.686 339.302C45.2877 341.558 42.8923 343.812 40.2921 345.765C39.0048 346.731 36.9023 348.423 36.5023 348.957C36.4583 349.015 36.4453 349.206 36.428 349.46C36.3907 350.01 36.333 350.857 35.8977 351.315C35.8056 351.411 35.7173 351.504 35.6324 351.594L35.4123 351.827C34.3933 352.905 33.8978 353.43 33.3032 353.593C32.7401 353.747 32.0883 353.577 30.8193 353.246C30.4348 353.145 29.9936 353.03 29.4811 352.905C24.467 351.679 12.4972 348.904 9.11656 355.121C6.13757 360.598 18.0124 365.545 22.3485 367.351L22.6163 367.463C27.609 369.546 29.4192 371.637 32.3549 375.026C32.9488 375.712 33.5886 376.451 34.3102 377.254C37.4029 380.697 41.935 383.364 46.2673 385.913C48.0894 386.985 49.8761 388.037 51.506 389.116C60.4883 395.066 70.3123 399.711 80.0712 404.325L80.0739 404.327L80.0783 404.328C83.2408 405.823 86.3963 407.316 89.514 408.848C101.839 414.904 115.081 419.273 127.929 423.512L128.157 423.586C135.956 426.159 145.303 428.92 153.488 429.713C161.736 430.512 169.471 429.168 177.563 427.593C180.799 426.964 183.242 426.481 186.626 425.288C187.18 425.093 187.864 424.958 188.566 424.821C189.772 424.584 191.032 424.337 191.789 423.748C193.097 422.732 193.099 421.859 193.102 420.569C193.103 420.03 193.104 419.418 193.201 418.693C194.388 409.778 199.699 416.439 203.382 421.057C204.16 422.033 204.865 422.917 205.443 423.544C205.971 424.116 206.496 424.714 207.027 425.32L207.029 425.323C209.076 427.655 211.214 430.091 213.887 431.487C218.106 433.688 218.839 432.651 220.222 429.02C220.586 428.063 220.918 427.086 221.248 426.119C223.259 420.217 225.162 414.633 233.566 415.492C232.105 414.241 230.657 413.027 229.224 411.826C223.085 406.676 217.232 401.767 211.872 395.329C207.527 390.11 203.37 384.633 199.23 379.177L199.225 379.17C197.152 376.438 195.083 373.711 192.997 371.026C191.318 368.866 189.712 366.438 188.076 363.965C184.712 358.883 181.228 353.616 176.75 350.115C174.647 348.469 168.252 344.677 165.818 344.757C163.978 344.817 162.242 346.365 160.468 347.946C158.731 349.496 156.958 351.078 155.016 351.323C150.681 351.871 148.685 350.357 147.447 346.838C146.764 344.895 147.314 342.796 147.821 340.857C148.267 339.153 148.681 337.572 148.196 336.33C148.058 335.978 147.57 335.595 147.034 335.173C146.442 334.707 145.791 334.196 145.492 333.634C144.634 332.023 144.573 329.903 144.829 328.12C144.978 327.087 145.21 326.291 145.428 325.548C145.77 324.375 146.075 323.332 145.952 321.692C145.875 320.662 145.673 319.724 145.478 318.811C145.083 316.966 144.71 315.226 145.429 313.048C146.181 310.768 147.976 309.174 149.73 307.617C150.606 306.839 151.471 306.071 152.193 305.23C154.96 302.002 154.198 299.445 153.102 295.771C152.899 295.094 152.686 294.378 152.481 293.614C151.01 288.124 149.412 282.668 147.812 277.211C146.35 272.222 144.888 267.231 143.523 262.215C140.861 263.058 138.222 263.946 135.586 264.833L135.583 264.834L135.582 264.835L135.575 264.837C131.708 266.139 127.845 267.438 123.919 268.59C122.331 269.057 120.648 269.511 118.926 269.976C113.757 271.371 108.228 272.864 103.805 275.07C102.973 275.486 102.39 275.714 101.989 275.87C101.541 276.046 101.321 276.132 101.233 276.291C101.146 276.445 101.185 276.669 101.262 277.109C101.335 277.536 101.444 278.167 101.509 279.139C101.615 280.739 102.08 282.459 102.535 284.139C102.802 285.125 103.065 286.098 103.249 287.024C103.474 288.151 103.667 289.712 103.884 291.46C104.556 296.89 105.454 304.132 108.195 305.804C109.103 306.358 110.24 306.35 111.432 306.341C113.121 306.329 114.919 306.316 116.334 307.901C117.532 309.241 117.812 310.939 118.091 312.626C118.284 313.803 118.478 314.973 118.98 316.012C119.395 316.868 120.02 317.436 120.652 318.009C121.178 318.487 121.709 318.969 122.125 319.626C123.678 322.08 123.835 324.217 124.02 326.748C124.062 327.331 124.106 327.934 124.169 328.567C124.231 329.192 124.247 330.182 124.264 331.31C124.308 334.033 124.364 337.564 125.113 338.734C126.119 340.305 127.826 340.565 129.578 340.831C130.289 340.94 131.008 341.049 131.69 341.248C137.642 342.981 143.124 345.995 148.179 349.51ZM172.074 253.869C170.972 257.318 165.913 261.221 161.854 259.145C156.807 256.566 156.336 246.39 157.721 242.048C160.065 234.688 162.036 244.341 162.45 247.249C162.504 247.625 162.537 247.973 162.567 248.296C162.694 249.645 162.779 250.535 164.142 251.046C164.739 251.27 165.583 251.177 166.473 251.08C167.509 250.966 168.611 250.845 169.465 251.207C170.829 251.787 171.057 252.169 171.713 253.271C171.82 253.45 171.938 253.648 172.074 253.869ZM142.946 231.97C142.716 236.813 150.275 251.735 152.533 240.92C152.351 237.693 150.706 231.999 148.566 229.472C145.504 225.861 143.16 227.503 142.946 231.97ZM162.641 226.131C162.641 221.448 165.49 220.522 169.045 223.554C172.713 226.682 173.911 231.908 174.291 236.225C174.705 240.905 173.636 242.894 168.975 239.886C164.894 237.253 162.853 230.24 162.641 226.131ZM186.878 260.168C180.583 259.693 173.267 271.522 181.002 270.596C183.92 270.41 189.757 268.306 190.61 264.949C191.285 262.291 189.442 260.363 186.878 260.168ZM234.705 212.415C234.351 207.534 241.865 204.985 242.838 210.159C243.754 215.043 232.94 220.062 234.705 212.415ZM115.817 286.596C115.862 280.465 108.372 270.58 105.696 280.575C106.078 283.61 107.344 291.632 111.523 292.318C114.869 292.867 115.796 289.287 115.817 286.596Z" fill="black"/>
</svg>
