<?xml version="1.0" encoding="utf-8"?>
<!-- Generator: Adobe Illustrator 23.0.2, SVG Export Plug-In . SVG Version: 6.00 Build 0)  -->
<svg version="1.1" id="Layer_1" xmlns="http://www.w3.org/2000/svg" xmlns:xlink="http://www.w3.org/1999/xlink" x="0px" y="0px"
	 viewBox="0 0 980 980" style="enable-background:new 0 0 980 980;" xml:space="preserve">
<style type="text/css">
	.st0{fill:#0B0B0B;}
	.st1{fill:#FCC835;}
	.st2{fill:#FFFFFF;}
	.st3{fill:#323072;}
</style>
<path class="st0" d="M522.4,416.5h-64.7l32.4-32.4L522.4,416.5z"/>
<g>
	<g>
		<g>
			<path class="st1" d="M700.9,60.2L528.1,413.9c-12.2-6.1-25.8-9.2-39.5-9s-27.1,3.8-39.1,10.3L273.8,62.9
				C340,29.5,412.9,11.9,487,11.5C561.1,11,634.3,27.7,700.9,60.2z"/>
		</g>
		
			<image style="overflow:visible;enable-background:new    ;" width="200" height="200" xlink:href="../brand/symbol1.png"  transform="matrix(0.75 0 0 0.75 413.0002 64.9829)">
		</image>
		<g>
			<path class="st2" d="M408.3,265.1c-1.4-0.6-2.5-1.5-3.4-2.6l3.1-3.7c1.3,1.8,2.8,2.6,4.5,2.6c2.3,0,3.4-1.3,3.4-4V246h-8.5v-4.5
				h14v15.6c0,3-0.7,5.2-2.2,6.7s-3.6,2.2-6.5,2.2C411.1,266,409.6,265.7,408.3,265.1z"/>
			<path class="st2" d="M442.2,260.4H431l-2.1,5.2h-5.7l10.7-24.1h5.5l10.8,24.1h-5.8L442.2,260.4z M440.5,256.2l-3.8-9.2l-3.8,9.2
				H440.5z"/>
			<path class="st2" d="M457.2,264.4c-2-1.1-3.5-2.5-4.7-4.4c-1.1-1.9-1.7-4-1.7-6.4s0.6-4.5,1.7-6.4s2.7-3.4,4.7-4.4
				c2-1.1,4.2-1.6,6.7-1.6c2.1,0,4,0.4,5.7,1.1c1.7,0.7,3.1,1.8,4.2,3.2l-3.6,3.3c-1.6-1.9-3.6-2.8-6.1-2.8c-1.5,0-2.8,0.3-4,1
				s-2.1,1.6-2.7,2.7c-0.7,1.2-1,2.5-1,4s0.3,2.8,1,4s1.6,2.1,2.7,2.7c1.2,0.7,2.5,1,4,1c2.4,0,4.4-0.9,6.1-2.9l3.6,3.3
				c-1.1,1.4-2.6,2.5-4.3,3.2c-1.7,0.7-3.6,1.1-5.7,1.1C461.4,266,459.2,265.5,457.2,264.4z"/>
			<path class="st2" d="M486.3,256.1l-3.2,3.4v6.1h-5.5v-24.1h5.5v11.2l10.7-11.2h6.2l-10,10.7l10.6,13.3H494L486.3,256.1z"/>
			<path class="st2" d="M519,242.6c1.6,0.7,2.8,1.7,3.6,3s1.3,2.9,1.3,4.6c0,1.8-0.4,3.3-1.3,4.6c-0.8,1.3-2.1,2.3-3.6,3
				c-1.6,0.7-3.4,1-5.6,1h-4.8v6.6H503v-24.1h10.4C515.6,241.5,517.4,241.9,519,242.6z M516.9,253.3c0.9-0.7,1.3-1.7,1.3-3.1
				c0-1.4-0.4-2.4-1.3-3.1c-0.9-0.7-2.1-1.1-3.8-1.1h-4.5v8.4h4.5C514.8,254.4,516.1,254,516.9,253.3z"/>
			<path class="st2" d="M533.1,264.4c-2-1.1-3.6-2.6-4.7-4.5c-1.1-1.9-1.7-4-1.7-6.4s0.6-4.5,1.7-6.4c1.1-1.9,2.7-3.4,4.7-4.5
				s4.3-1.6,6.8-1.6s4.7,0.5,6.7,1.6s3.6,2.6,4.7,4.5c1.1,1.9,1.7,4,1.7,6.4s-0.6,4.5-1.7,6.4c-1.1,1.9-2.7,3.4-4.7,4.5
				s-4.2,1.6-6.7,1.6C537.3,266,535.1,265.5,533.1,264.4z M543.7,260.3c1.1-0.7,2-1.6,2.7-2.7c0.7-1.2,1-2.5,1-4s-0.3-2.8-1-4
				s-1.6-2.1-2.7-2.7c-1.1-0.7-2.4-1-3.8-1c-1.4,0-2.7,0.3-3.9,1c-1.1,0.7-2,1.6-2.7,2.7c-0.7,1.2-1,2.5-1,4s0.3,2.8,1,4
				s1.6,2.1,2.7,2.7c1.1,0.7,2.4,1,3.9,1C541.2,261.2,542.5,260.9,543.7,260.3z"/>
			<path class="st2" d="M561.8,246.1h-7.7v-4.5h21v4.5h-7.7v19.5h-5.6V246.1z"/>
		</g>
	</g>
	<g>
		<path class="st3" d="M273.9,62.9l175.6,352.3l38.4,77.1l-75.8-36.8L58.7,282.4C104.5,187.7,180,110.6,273.9,62.9L273.9,62.9z"/>
		
			<image style="overflow:visible;enable-background:new    ;" width="200" height="200" xlink:href="../brand/symbol5.png"  transform="matrix(0.5268 -0.5338 0.5338 0.5268 127.9226 240.9482)">
		</image>
		<g>
			<path class="st2" d="M284.3,330.9l11.3-11.3l5,5l-11.3,11.3L284.3,330.9z"/>
			<path class="st2" d="M316,296.4c3.4-0.3,6.5,0.9,9.1,3.5c1.7,1.7,2.8,3.7,3.4,5.9c0.5,2.2,0.4,4.7-0.5,7.2
				c-0.9,2.6-2.6,5.1-5.2,7.7c-2,2-4.2,3.6-6.6,5s-4.8,2.3-7,2.6l-2.4-7.5c1.9-0.3,3.7-0.9,5.5-1.8s3.5-2.1,4.9-3.6
				c1.6-1.6,2.6-3.2,2.9-4.8s-0.1-2.9-1.3-4.1c-1.2-1.2-2.6-1.6-4.2-1.3c-1.6,0.4-3.6,1.7-6,4.1l-7.1,7.1l-14.3-17.1l17-17l5.2,5.2
				l-11.6,11.6l4.9,5.7l2.3-2.3C308.9,298.8,312.6,296.7,316,296.4z"/>
		</g>
	</g>
	<g>
		<path class="st3" d="M917.1,706.1c-47.7,93.8-124.8,169.4-219.5,215.2L524.7,567.8l-35.3-72.3l-0.6-1.3l-1-2l1.6,0.8l2.5,1.3
			l72.9,36.3L917.1,706.1z"/>
		
			<image style="overflow:visible;enable-background:new    ;" width="200" height="200" xlink:href="../brand/symbol5.png"  transform="matrix(-0.5303 0.5303 -0.5303 -0.5303 854.121 744.4217)">
		</image>
		<g>
			<path class="st2" d="M697.3,654L686,665.3l-5-5l11.3-11.3L697.3,654z"/>
			<path class="st2" d="M665.6,688.4c-3.4,0.3-6.5-0.9-9.1-3.5c-1.7-1.7-2.8-3.7-3.4-5.9c-0.5-2.2-0.4-4.7,0.5-7.2
				c0.9-2.6,2.6-5.1,5.2-7.7c2-2,4.2-3.6,6.6-5c2.4-1.4,4.8-2.3,7-2.6l2.4,7.5c-1.9,0.3-3.7,0.9-5.5,1.8s-3.5,2.1-4.9,3.6
				c-1.6,1.6-2.6,3.2-2.9,4.8s0.1,2.9,1.3,4.1c1.2,1.2,2.6,1.6,4.2,1.3s3.6-1.7,6-4.1l7.1-7.1l14.3,17.1l-17,17l-5.2-5.2l11.6-11.6
				l-4.9-5.7l-2.3,2.3C672.7,686,669,688.1,665.6,688.4z"/>
		</g>
	</g>
	<g>
		<path class="st2" d="M58.6,282.5l353.5,172.9c-5.4,12.1-7.9,25.3-7.2,38.5c0.6,13.2,4.3,26.1,10.7,37.7L62,704.3
			c-32.7-65.4-50-137.4-50.5-210.6C10.9,420.7,27,348.4,58.6,282.5L58.6,282.5z"/>
		
			<image style="overflow:visible;enable-background:new    ;" width="150" height="150" xlink:href="../brand/lucky-nugget-casino-bonuses-logo-150x150.png"  transform="matrix(-1.608123e-16 -1 1 -1.608123e-16 83.7007 568.3942)">
		</image>
		<g>
			<path class="st3" d="M264.8,544.3v7.2h7v5.3h-7v7.2h-5.1v-7.2h-7v-5.3h7v-7.2H264.8z"/>
			<path class="st3" d="M276.4,536c-0.6,2.1-1.4,3.9-2.4,5.2l-5.1-2.3c0.9-1.2,1.6-2.7,2.2-4.4s0.8-3.4,0.8-5.1
				c0-1.9-0.3-3.3-0.8-4.2c-0.6-0.9-1.3-1.4-2.3-1.4c-0.7,0-1.3,0.3-1.7,0.8c-0.5,0.5-0.8,1.2-1.1,2.1c-0.3,0.8-0.6,2-0.9,3.4
				c-0.5,2.2-1,4-1.6,5.4c-0.5,1.4-1.4,2.6-2.5,3.6c-1.2,1-2.7,1.5-4.6,1.5c-1.7,0-3.2-0.5-4.6-1.4c-1.4-0.9-2.4-2.3-3.2-4.1
				s-1.2-4.1-1.2-6.7c0-1.8,0.2-3.7,0.7-5.4c0.4-1.8,1.1-3.3,1.9-4.6l5.1,2.1c-1.5,2.7-2.3,5.4-2.3,8c0,1.9,0.3,3.3,0.9,4.2
				c0.6,0.9,1.4,1.3,2.4,1.3s1.7-0.5,2.2-1.6c0.5-1,1-2.6,1.4-4.7c0.5-2.2,1-4,1.6-5.4c0.5-1.4,1.4-2.6,2.5-3.6s2.7-1.5,4.6-1.5
				c1.7,0,3.2,0.5,4.5,1.4c1.4,0.9,2.4,2.3,3.2,4.2s1.2,4.1,1.2,6.7C277.3,531.7,277,533.9,276.4,536z"/>
			<path class="st3" d="M249.1,493.2c0.9-1.9,2.1-3.3,3.6-4.4c1.6-1,3.4-1.5,5.6-1.5c2.1,0,4,0.5,5.6,1.5s2.8,2.5,3.6,4.4
				c0.8,1.9,1.3,4.1,1.3,6.7v5.8h8v6.7h-29v-12.5C247.8,497.4,248.3,495.1,249.1,493.2z M262,495.7c-0.9-1-2.1-1.6-3.7-1.6
				s-2.9,0.5-3.7,1.6c-0.9,1.1-1.3,2.6-1.3,4.6v5.5h10.1v-5.5C263.3,498.3,262.9,496.8,262,495.7z"/>
			<path class="st3" d="M247.8,482.6v-6.7h29v6.7H247.8z"/>
			<path class="st3" d="M247.8,442.4h29v5.5l-17.6,14.4h17.6v6.6h-29v-5.5l17.6-14.4h-17.6L247.8,442.4L247.8,442.4z"/>
		</g>
	</g>
	<g>
		<path class="st2" d="M920.5,280.6c32.2,66.4,48.7,139.3,48.1,213.1c-0.6,73.8-18.2,146.5-51.5,212.4L564.8,530.5
			c6.1-11.3,9.6-23.9,10.2-36.8c0.6-12.9-1.8-25.7-6.9-37.5L920.5,280.6z"/>
		
			<image style="overflow:visible;enable-background:new    ;" width="150" height="150" xlink:href="../brand/lucky-nugget-casino-bonuses-logo-150x150.png"  transform="matrix(-1.836970e-16 1 -1 -1.836970e-16 895.5002 418.4018)">
		</image>
		<g>
			<path class="st3" d="M710.1,452v-7.2h-7v-5.3h7v-7.2h5.1v7.2h7v5.3h-7v7.2H710.1z"/>
			<path class="st3" d="M698.5,460.3c0.6-2.1,1.4-3.9,2.4-5.2l5.1,2.3c-0.9,1.2-1.6,2.7-2.2,4.4c-0.6,1.7-0.8,3.4-0.8,5.1
				c0,1.9,0.3,3.3,0.8,4.2c0.6,0.9,1.3,1.4,2.3,1.4c0.7,0,1.3-0.3,1.7-0.8c0.5-0.5,0.8-1.2,1.1-2.1s0.6-2,0.9-3.4
				c0.5-2.2,1-4,1.6-5.4c0.5-1.4,1.4-2.6,2.5-3.6c1.2-1,2.7-1.5,4.6-1.5c1.7,0,3.2,0.5,4.6,1.4c1.4,0.9,2.4,2.3,3.2,4.1
				c0.8,1.8,1.2,4.1,1.2,6.7c0,1.8-0.2,3.7-0.7,5.4c-0.4,1.8-1.1,3.3-1.9,4.6l-5.1-2.1c1.5-2.7,2.3-5.4,2.3-8c0-1.9-0.3-3.3-0.9-4.2
				c-0.6-0.9-1.4-1.3-2.4-1.3s-1.7,0.5-2.2,1.6s-1,2.6-1.4,4.7c-0.5,2.2-1,4-1.6,5.4c-0.5,1.4-1.4,2.6-2.5,3.6s-2.7,1.5-4.6,1.5
				c-1.7,0-3.2-0.5-4.5-1.4c-1.4-0.9-2.4-2.3-3.2-4.2c-0.8-1.8-1.2-4.1-1.2-6.7C697.6,464.6,697.9,462.4,698.5,460.3z"/>
			<path class="st3" d="M725.8,503c-0.9,1.9-2.1,3.3-3.6,4.4c-1.6,1-3.4,1.5-5.6,1.5c-2.1,0-4-0.5-5.6-1.5s-2.8-2.5-3.6-4.4
				s-1.3-4.1-1.3-6.7v-5.8h-8v-6.7h29v12.5C727.1,498.9,726.6,501.1,725.8,503z M712.9,500.6c0.9,1,2.1,1.6,3.7,1.6
				c1.6,0,2.9-0.5,3.7-1.6c0.9-1.1,1.3-2.6,1.3-4.6v-5.5h-10.1v5.5C711.6,498,712,499.5,712.9,500.6z"/>
			<path class="st3" d="M727.1,513.7v6.7h-29v-6.7H727.1z"/>
			<path class="st3" d="M727.1,553.9h-29v-5.5l17.6-14.4h-17.6v-6.6h29v5.5l-17.6,14.4h17.6V553.9z"/>
		</g>
	</g>
	<g>
		<path class="st2" d="M524.7,567.8l172.9,353.5c-65.7,31.5-137.6,47.6-210.4,47.2c-72.8-0.4-144.6-17.4-209.9-49.7l175.6-352.2
			c11.2,5.4,23.4,8.3,35.8,8.5C501,575.4,513.3,572.9,524.7,567.8z"/>
		
			<image style="overflow:visible;enable-background:new    ;" width="200" height="200" xlink:href="../brand/symbol2.png"  transform="matrix(-0.75 0 0 -0.75 562.3543 906.5324)">
		</image>
		<g>
			<path class="st3" d="M511.6,726h10.3v-10h7.6v10h10.3v7.2h-10.3v10.1h-7.6v-10.1h-10.3L511.6,726L511.6,726z"/>
			<path class="st3" d="M475.6,716.7v-7.8H507v6.2l-16,15.1c-1.7,1.6-2.8,3-3.4,4.2s-0.9,2.3-0.9,3.5c0,1.7,0.6,2.9,1.7,3.8
				c1.1,0.9,2.8,1.3,5,1.3c1.8,0,3.5-0.3,4.9-1c1.5-0.7,2.7-1.7,3.7-3.1l7,4.5c-1.6,2.4-3.9,4.3-6.7,5.7c-2.8,1.4-6.1,2-9.8,2
				c-3.1,0-5.8-0.5-8.1-1.5c-2.3-1-4.1-2.4-5.4-4.3s-1.9-4-1.9-6.5c0-2.3,0.5-4.4,1.4-6.3c0.9-2,2.8-4.2,5.5-6.8l9.6-9L475.6,716.7
				L475.6,716.7z"/>
			<path class="st3" d="M463.2,710.7c2.7,1.7,4.8,4.2,6.3,7.4s2.3,7.1,2.3,11.5c0,4.5-0.8,8.3-2.3,11.5s-3.6,5.7-6.3,7.4
				c-2.7,1.7-5.8,2.6-9.2,2.6c-3.4,0-6.5-0.8-9.2-2.6c-2.7-1.7-4.8-4.2-6.3-7.4s-2.3-7.1-2.3-11.5c0-4.5,0.8-8.3,2.3-11.5
				s3.6-5.7,6.3-7.4c2.7-1.7,5.8-2.6,9.2-2.6C457.4,708.2,460.5,709,463.2,710.7z M448,719.6c-1.4,2.2-2.2,5.5-2.2,10.1
				c0,4.5,0.7,7.9,2.2,10.1c1.4,2.2,3.4,3.3,6,3.3c2.5,0,4.5-1.1,5.9-3.3s2.2-5.5,2.2-10.1c0-4.5-0.7-7.9-2.2-10.1
				c-1.4-2.2-3.4-3.3-5.9-3.3C451.4,716.3,449.4,717.4,448,719.6z"/>
		</g>
	</g>
	<g>
		<path class="st3" d="M828.4,151.6c37.7,37.6,68.8,81.2,92.1,129L568.2,456.2l-76.4,38l-2.5,1.3l-1.6,0.8l1-2l0.6-1.2l38.6-79.1
			l173-353.7C748.1,83.5,791.2,114.3,828.4,151.6L828.4,151.6z"/>
		
			<image style="overflow:visible;enable-background:new    ;" width="200" height="200" xlink:href="../brand/symbol4.png"  transform="matrix(0.5384 0.5222 -0.5222 0.5384 743.8839 132.4476)">
		</image>
		<g>
			<path class="st2" d="M635.4,294.1l6.4-6.4l-6.3-6.3l4.4-4.4l6.3,6.3l6.4-6.4l4.9,4.9l-6.4,6.4l6.3,6.3l-4.4,4.4l-6.3-6.3
				l-6.4,6.4L635.4,294.1z"/>
			<path class="st2" d="M672.3,308.2c1.5-0.3,2.7-0.8,3.5-1.6c0.8-0.8,1.3-1.8,1.3-2.9c0-1.1-0.4-2.1-1.3-3
				c-1.6-1.6-4.2-1.9-7.8-1.1l-1.8-7.1c3-0.6,5.6-0.7,8-0.3c2.3,0.5,4.6,1.8,6.7,3.9c2.2,2.2,3.4,4.7,3.6,7.8c0.3,3-0.8,5.7-3.2,8.1
				c-1.3,1.3-2.9,2.2-4.7,2.7c-1.8,0.5-4.6,0.8-8.2,0.9l-9.2,0.2l9.9,9.9l-5,5L646.5,313l4.2-4.2l14.9-0.2
				C668.5,308.6,670.8,308.5,672.3,308.2z"/>
			<path class="st2" d="M678.2,345.2c-3.5-3.5-4.9-7.2-4.2-11.3s2.9-8.1,6.8-12c3.9-3.9,7.9-6.2,12-6.8c4.1-0.6,7.8,0.8,11.3,4.2
				c3.5,3.5,4.9,7.2,4.2,11.3s-2.9,8.1-6.8,12c-3.9,3.9-7.9,6.2-12,6.8S681.6,348.7,678.2,345.2z M693.5,322.5
				c-2.3,0.7-4.7,2.4-7.2,4.9c-2.5,2.5-4.1,4.9-4.9,7.2c-0.7,2.3-0.3,4.3,1.4,6c1.7,1.7,3.7,2.1,6,1.4c2.3-0.7,4.7-2.4,7.2-4.9
				c2.5-2.5,4.1-4.9,4.9-7.2c0.7-2.3,0.3-4.3-1.4-6C697.8,322.3,695.8,321.8,693.5,322.5z"/>
		</g>
	</g>
	<g>
		<path class="st3" d="M488,496.4l-35,70.3L277.3,918.9c-93-46.4-168.5-121.6-215.2-214.5l353.7-172.8L488,496.4z"/>
		
			<image style="overflow:visible;enable-background:new    ;" width="200" height="200" xlink:href="../brand/symbol3.png"  transform="matrix(-0.5303 -0.5303 0.5303 -0.5303 233.7043 831.5324)">
		</image>
		<g>
			<path class="st2" d="M338.2,673.2l-7.1,7.1l6.9,6.9l-4.9,4.9l-6.9-6.9l-7.1,7.1l-5.5-5.5l7.1-7.1l-6.9-6.9l4.9-4.9l6.9,6.9
				l7.1-7.1L338.2,673.2z"/>
			<path class="st2" d="M299.3,681l-11.2-11.2l27.6-27.6l5.9,5.9l-22.4,22.4l5.3,5.3L299.3,681z"/>
			<path class="st2" d="M264.6,646.3l5.3-5.3l10.9,10.9l4.6-4.6c-1.1-0.6-2.1-1.4-3.2-2.5c-2.7-2.7-4.2-5.8-4.5-9.3
				c-0.3-3.5,0.9-6.7,3.6-9.4c2.7-2.7,6-4,9.7-3.8c3.8,0.2,7.1,1.8,10,4.7c3.7,3.7,5.5,8.3,5.2,13.5l-7.8,1.3c0-0.5,0-1.1-0.1-1.8
				c-0.1-0.7-0.3-1.9-0.8-3.5c-0.5-1.6-1.3-3-2.3-4c-1.1-1.1-2.3-1.7-3.8-1.9c-1.5-0.2-2.8,0.3-4,1.6c-1.2,1.2-1.8,2.6-1.5,4.2
				c0.2,1.6,1,3,2.4,4.4c1.4,1.4,3.5,2.5,6.4,3.4l-0.2,5.3L281.3,663L264.6,646.3z"/>
		</g>
	</g>
</g>
<g>
	<path class="st2" d="M490,575.1c47,0,85.1-38.1,85.1-85.1S537,404.9,490,404.9S404.9,443,404.9,490S443,575.1,490,575.1z"/>
</g>
<g>
	<g>
		<path d="M490,535.1c24.9,0,45.1-20.2,45.1-45.1s-20.2-45.1-45.1-45.1s-45.1,20.2-45.1,45.1C444.9,514.9,465.1,535.1,490,535.1z"/>
	</g>
	
		<image style="overflow:visible;enable-background:new    ;" width="843" height="315" xlink:href="../brand/logo.png"  transform="matrix(8.382671e-02 0 0 8.382671e-02 454.7171 476.7973)">
	</image>
</g>
</svg>
