<svg width="851" height="801" viewBox="0 0 851 801" fill="none" xmlns="http://www.w3.org/2000/svg">
<path fill-rule="evenodd" clip-rule="evenodd" d="M441.28 49.8462C437.532 59.7645 433.787 69.6843 430.039 79.603C427.637 85.9591 425.237 92.314 422.835 98.6701C421.983 100.924 421.509 103.235 419.862 104.8C415.98 108.483 409.013 110.828 404.347 113.419C401.222 115.156 398.095 116.892 394.97 118.628C393.358 119.525 389.784 120.65 388.655 122.137C387.412 123.775 388 126.784 388 129.05V148.611V185.469C404.145 183.45 420.291 181.433 436.436 179.414C414.926 204.234 393.416 229.053 371.905 253.874C366.604 259.99 360.168 265.877 356.218 272.994C347.812 288.143 339.594 303.4 331.285 318.602C323.55 332.752 315.814 346.903 308.079 361.052L377.669 358.09C395.686 357.324 414.195 358.477 431.555 353.37C445.866 349.161 460.175 344.953 474.486 340.744C476.389 340.183 482.318 339.55 483.667 338.018C484.93 336.583 484.903 331.162 485.261 329.326C492.015 294.609 500.614 256.351 520.328 226.467C534.461 205.045 553.533 186.289 571 167.608C577.817 160.317 584.753 153.113 591.329 145.6C593.013 143.676 595.446 141.493 596.56 139.156C597.279 137.646 598.284 134.769 597.837 133.428C597.644 132.847 593.15 130.762 592.506 130.348C587.951 127.421 583.437 124.432 578.913 121.458C566.201 113.101 553.501 104.722 540.716 96.4759C530.749 90.0459 520.81 83.2285 510.296 77.703C499.399 71.9754 487.398 67.9442 475.973 63.419C464.428 58.8454 452.861 54.3242 441.28 49.8462Z" fill="white"/>
<path fill-rule="evenodd" clip-rule="evenodd" d="M833.124 579.726C827.581 584.95 817.485 591.961 809.505 588.772C805.497 587.172 802.074 583.656 798.423 581.389C794.134 578.725 790.101 576.06 786.465 572.51C779.21 565.423 773.718 555.071 765.149 549.524C762.27 547.659 756.649 547.26 754.651 544.282C753.756 542.946 753.672 540.921 753.837 539.377C754.195 536.051 755.991 536.248 752.99 533.806H757.651C757.741 532.006 755.944 531.857 754.605 532.089C755.227 529.235 755.862 518.067 750.659 523.128C746.15 527.516 748.406 534.794 745.213 539.546C742.768 543.185 736.28 540.239 735.404 536.235C735.011 534.437 736.992 531.629 737.228 529.866C737.746 525.956 736 522.575 733.464 519.614C727.901 523.321 731.055 530.992 727.884 535.862C725.016 540.269 718.627 538.213 714.259 537.438C709.023 536.508 703.103 537.449 698.093 536.212C690.529 534.345 693.354 525.464 692.605 519.732C691.803 513.591 685.597 505.069 687.462 498.874C689.464 492.222 701.173 490.785 706.77 489.171C719.561 485.481 737.805 484.771 747.315 474.442C754.878 482.878 760.962 492.536 768.895 500.656C777.463 509.427 786.615 517.524 794.841 526.649C803.402 536.145 812.239 545.458 820.489 555.229C824.09 559.491 827.25 564.084 830.974 568.245C834.284 571.943 837.774 575.346 833.124 579.726ZM452.94 415.679C456.871 413.589 457.371 414.899 457.37 419.204C456.239 417.137 455.116 416.583 452.94 415.679ZM419.616 499.361V491.773C423.405 491.674 421.075 498.164 419.616 499.361ZM418.689 510.661C418.689 507.301 418.599 504.101 419.567 500.833C420.076 504.394 421.047 507.477 418.689 510.661ZM434.981 741.489C438.461 741.815 443.824 739.417 446.751 742.148C449.758 744.953 449.517 753.12 450.229 756.91C451.406 763.174 452.449 769.459 453.44 775.753C454.091 779.88 454.895 784.071 450.229 785.65C443.334 787.982 433.482 784.653 426.295 784.351C412.098 783.754 397.908 782.923 383.699 782.635C369.927 782.356 356.124 782.577 342.415 784.009C336.222 784.656 330.166 785.799 324.037 786.833C320.806 787.379 312.149 789.662 309.231 786.938C303.74 781.811 312.868 769.841 316.794 766.46C324.08 760.187 334.442 755.663 343.578 752.938C348.461 751.481 356.601 747.392 360.447 751.966C363.398 755.474 363.28 760.156 367.509 762.814C377.306 768.973 371.574 751.307 365.451 749.132C369.562 739.51 377.398 753.095 380.648 756.359C381.805 757.52 385.566 761.349 387.199 759.424C388.422 757.983 385.98 752.819 385.527 751.415C384.839 749.281 383.099 746.036 383.599 743.722C384.505 739.534 390.378 738.394 393.896 738.045C399.351 737.505 404.702 739.234 410.096 739.812C418.366 740.698 426.701 740.711 434.981 741.489ZM380.209 347.079C369.44 347.936 358.604 346.289 347.86 347.637C337.696 348.913 328.117 352.646 318.535 356.074C332.781 322.663 351.211 292.248 373.675 263.757C384.861 249.566 396.893 235.473 408.98 222.043C414.605 215.795 420.422 209.753 426.23 203.681C431.41 198.263 435.122 189.062 441.338 185.017C446.645 181.563 455.918 184.026 461.798 184.241C468.445 184.483 476.534 185.087 483.016 182.875C487.713 181.271 489.005 176.993 483.125 176.851C476.19 176.683 469.369 177.406 462.343 176.756C444.139 175.074 426.592 172.309 408.24 173.877C404.036 174.236 398.502 176.027 394.377 175.489C391.41 175.101 393.361 176.592 391.298 174.212C390.509 173.301 389.557 171.16 389.323 169.95C388.01 163.156 391.74 153.447 392.633 146.606C393.459 140.276 392.727 133.318 394.272 127.153C395.679 121.543 399.969 120.794 405.251 120.195C419.701 118.554 434.447 117.681 448.962 116.445C482.088 113.623 516.267 109.367 549.167 116.339C561.048 118.857 575.534 122.75 586.146 128.984C589.465 130.932 592.814 133.227 591.606 137.264C590.354 141.455 584.215 145.882 581.174 148.643C558.701 169.045 536.995 189.854 521.208 216.032C501.075 249.413 489.522 285.466 482.743 323.718C481.285 331.947 479.932 336.254 471.465 338.623C462.376 341.167 453.603 342.82 444.178 343.594C422.873 345.344 401.503 345.38 380.209 347.079ZM387.425 126.013C385.792 138.165 383.582 150.29 383.364 162.537C383.282 167.163 382.844 169.481 377.925 170.512C372.126 171.728 366.23 172.634 360.404 173.896C332.288 179.989 304.703 187.472 277.196 195.896C250.462 204.084 224.169 213.295 196.834 219.361C185.076 221.97 171.318 223.729 160.609 229.506C149.088 235.723 150.604 245.915 149.57 257.11C148.188 272.067 143.753 286.55 142.193 301.501C141.447 308.646 140.768 315.832 140.88 323.022C140.976 329.15 141.854 335.926 137.734 341.084C129.47 330.035 125.552 316.139 123.924 302.597C123.132 296.014 123.445 289.379 123.219 282.766C123.036 277.441 123.155 268.972 119.687 264.526C112.148 254.863 102.343 293.588 101.41 297.723C99.8422 304.683 98.5489 311.702 96.9868 318.663C96.2942 321.749 95.4054 332.966 91.2713 334.083C82.704 336.401 84.5846 312.327 84.449 308.661C84.1777 301.263 83.9936 293.855 84.1668 286.451C84.2927 281.106 85.3269 275.305 84.7129 269.958C83.2053 256.828 75.8224 270.661 73.7469 275.549C68.5024 287.887 66.1302 301.093 61.427 313.628C60.6447 315.714 58.8065 322.733 55.8943 322.864C52.6538 323.008 52.6793 315.758 52.494 313.641C51.4187 301.363 47.7872 289.172 48.883 276.767C49.9898 264.241 54.3806 251.364 60.5938 240.47C73.7299 217.435 97.4518 204.21 120.174 192.162C146.177 178.377 173.63 167.486 201.668 158.614C235.39 147.943 270.015 139.309 304.848 133.165C322.57 130.04 340.566 127.804 358.469 126.012C364.761 125.383 371.055 125.014 377.266 123.817C379.611 123.364 388.069 121.212 387.425 126.013ZM405.539 86.6888C396.654 86.7591 387.578 82.4518 378.923 80.6718C368.618 78.5502 358.554 75.4806 348.267 73.2658C328.124 68.9295 307.969 64.701 287.843 60.269C279.107 58.3448 270.328 56.6701 261.625 54.6035C252.314 52.3923 242.255 49.9269 232.725 52.3088C218.28 55.9197 212.178 71.7231 206.874 84.0563C203.128 92.7677 200.192 102.478 194.35 110.058C192.269 112.761 189.312 115.985 185.54 115.109C178.533 113.484 179.645 104.211 180.538 99.085C181.831 91.6463 183.663 84.2949 185.13 76.8901C185.721 73.9015 190.3 54.3419 182.124 57.3701C176.059 59.6163 172.85 74.4113 170.554 79.6958C168.848 83.6228 167.04 87.5244 165.125 91.3545C162.57 96.4634 155.28 113.534 147.21 111.332C135.66 108.181 146.739 77.8176 148.706 71.4179C149.787 67.9051 161.526 41.264 151.617 43.4412C147.397 44.37 143.286 52.2083 141.135 55.4572C137.319 61.2196 133.515 67.0235 129.924 72.9279C126.229 79.0007 124.343 85.9126 120.678 91.897C118.751 95.0466 114.816 99.2437 110.975 96.3278C104.987 91.7856 108.537 75.9855 109.585 70.0108C111.536 58.9031 116.382 47.5159 123.031 38.4353C133.023 24.7906 151.875 20.3817 167.729 17.731C188.192 14.3089 208.94 15.2449 229.489 17.2696C252.6 19.5473 275.358 21.9861 298.138 26.6433C321.095 31.3369 344.065 35.9928 366.67 42.2C377.318 45.1244 388.12 47.717 398.617 51.1499C409.777 54.7984 420.668 59.339 432.139 61.9679C428.104 72.0367 424.068 82.1055 420.034 92.1755C416.172 88.3551 410.901 86.6452 405.539 86.6888ZM603.31 114.435C606.848 112.5 610.757 111.587 612.048 107.31C613.19 103.53 611.239 99.2485 610.307 95.6206C607.698 85.4634 607.012 74.9417 609.32 64.6646C611.526 68.0322 619.784 80.9854 624.807 73.1435C627.837 68.4136 619.719 61.6095 617.349 58.2843C622.549 55.0757 629.975 46.4637 635.967 51.6573C639.84 55.0152 641.479 58.248 646.697 59.8803C653.031 61.8626 658.995 61.4085 665.464 60.8611C669.993 60.4785 671.084 59.8742 672.853 63.3617C674.242 66.1032 674.959 69.4962 675.771 72.4399C677.37 78.2439 681.07 89.6798 676.687 95.1168C672.848 99.8794 657.947 95.7962 655.877 101.944C654.748 105.297 660.135 105.417 662.193 107.076C664.742 109.13 666.85 112.398 668.236 115.317C669.261 117.476 670.821 121.044 669.075 123.251C666.663 126.305 662.191 123.989 660.247 121.769C657.666 118.821 656.828 114.789 654.673 111.578C650.72 105.686 650.484 110.373 649.407 114.604C648.289 119 645.645 118.697 641.594 119.261C634.487 120.253 627.305 121.652 620.387 123.556C616.841 124.532 613.405 125.776 610.028 127.229C607.852 128.164 604.08 130.996 601.719 131.023C597.344 131.073 594.31 123.755 592.052 120.702C595.801 118.609 599.541 116.496 603.31 114.435ZM838.263 562.503C827.336 549.386 817.873 535.136 807.091 521.904C796.458 508.854 784.156 497.444 772.223 485.624C766.591 480.045 761.196 473.925 754.979 468.982C750.341 465.294 746.772 465.237 741.194 466.87C725.341 471.513 709.202 477.101 694.201 484.029C680.233 490.481 667.51 498.765 652.362 502.362C636.9 506.035 620.822 507.215 604.975 506.304C588.719 505.37 573.388 501.988 557.929 497.017C543.289 492.309 528.025 488.198 515.504 478.867C502.377 469.085 492.236 455.015 482.839 441.783C478.081 435.084 473.359 428.048 470.153 420.456C467.372 413.867 465.554 406.091 460.563 400.72C459.339 402.455 457.815 403.944 457.193 405.982C456.91 406.908 458.578 406.879 458.408 407.615C458.084 409.002 456.239 410.416 455.166 411.17C451.312 413.883 451.289 411.724 452.3 416.796C452.888 419.753 451.774 426.424 446.952 424.245C448.727 426.37 445.907 429.052 444.986 430.803C444.352 430.075 443.564 429.822 442.622 430.041C444.385 433.553 443.344 433.646 441.635 436.435C441.323 436.945 440.217 439.613 440.376 439.387C438.63 441.875 436.612 442.501 435.594 445.598C434.757 448.142 434.971 450.939 434.039 453.48C432.912 451.922 431.784 450.363 430.657 448.806C430.887 450.031 431.347 451.845 431.882 452.957C432.219 453.652 433.662 455.275 433.643 455.654C433.564 457.07 431.796 456.73 431.293 457.952C430.347 460.244 431.714 460.582 431.198 462.819C430.607 465.386 429.021 464.359 428.267 466.547C428.124 466.962 429.238 468.597 429.061 469.493C428.813 470.76 427.665 471.468 427.259 472.594C426.227 475.459 426.603 477.557 425.17 480.304C424.616 481.37 423.808 482.08 423.417 483.29C423.074 484.356 423.812 486.624 423.15 487.578C419.956 492.179 420.405 484.254 420.647 482.289C422.681 465.788 429.204 448.757 435.174 433.334C438.14 425.671 441.027 417.769 444.747 410.429C446.244 407.474 447.972 404.423 450.446 402.162C453.575 399.302 458.014 398.158 460.848 394.964C460.401 395.467 463.92 392.137 463.357 393.232C463.86 392.253 462.981 390.929 463.294 389.982C463.682 388.806 464.417 388.559 465.236 387.53C466.707 385.682 468.455 384.762 466.144 382.408C469.573 381.649 471.213 380.537 471.898 376.864C472.399 374.177 471.389 374.352 473.152 372.562C474.921 370.762 475.817 372.167 476.932 369.051C478.265 365.323 479.151 360.253 479.95 356.351C480.647 352.945 478.954 347.935 481.826 345.53C485.462 342.485 488.716 343.774 488.064 337.649C487.428 331.678 489.284 328.061 491.148 322.411C494.87 311.132 496.308 299.222 499.57 287.808C506.534 263.449 518.836 241.487 532.064 220.045C544.287 200.232 561.376 183.352 577.877 167.095C582.395 162.643 586.863 158.126 590.92 153.245C594.414 149.042 596.01 143.319 599.369 139.329C601.41 136.906 605.209 135.869 608.058 134.584C612.81 132.441 618.472 129.645 623.835 130.079C621.704 137.263 621.009 145.658 627.298 151.046C634.928 157.581 641.844 150.791 648.838 147.065C661.587 140.273 679.819 146.508 690.936 136.328C693.584 133.904 694.323 130.03 697.074 127.766C699.094 126.105 701.967 125.684 704.241 124.447C711.15 120.687 714.503 113.804 711.813 106.2C709.354 99.2497 705.534 96.8388 714.038 93.3162C720.94 90.4584 723.564 86.1524 720.44 78.4861C717.461 71.177 712.003 70.3354 706.84 65.5522C701.839 60.9193 707.585 55.5274 711.331 52.0496C716.161 47.5632 717.085 43.5199 711.485 38.8542C705.619 33.9694 697.245 34.1401 690.408 36.5559C682.675 39.2865 677.58 43.8263 674.308 51.1826C670.976 58.6718 662.716 56.5817 656.027 54.4945C649.63 52.4989 647.965 48.1929 643.764 43.5562C639.093 38.3989 629.571 42.8091 624.061 45.1656C610.489 50.9659 597.002 60.1201 596.463 76.3355C596.142 86.0047 600.232 94.2232 602.358 103.299C604.303 111.599 590.969 110.945 588.66 118.973C564.029 105.934 536.598 101.944 509.064 101.056C479.8 100.112 450.114 99.3551 421.099 103.971C427.834 92.2373 431.391 79.37 437.25 67.3153C438.937 63.8448 439.664 64.1415 443.386 65.1902C450.537 67.2039 457.634 69.4575 464.77 71.5318C490.838 79.1097 516.395 88.24 541.601 98.2398C544.051 99.2122 549.521 101.911 551.668 98.976C554.145 95.5915 548.413 91.4187 546.094 89.7161C535.944 82.2702 523.366 77.751 511.999 72.5271C487.148 61.1094 459.628 55.6897 433.698 47.2096C377.718 28.8993 319.805 14.9931 261.63 5.80825C247.433 3.56683 233.084 3.23867 218.826 1.57487C206.196 0.10118 193.543 0.135087 180.914 1.65721C157.59 4.47018 130.549 10.5393 117.375 31.8902C105.483 51.1681 97.5439 72.842 100.578 95.709C101.49 102.577 104.399 110.711 112.874 108.941C118.753 107.713 121.875 102.718 124.604 97.8426C128.729 90.4778 132.802 83.113 137.272 75.9456C138.929 86.6925 132.905 97.2602 133.852 108.208C134.496 115.637 138.601 127.375 148.246 125.271C161.466 122.389 166.907 101.737 173.263 91.8292C173.585 99.4604 170.91 106.981 171.728 114.63C172.536 122.185 178.439 129.317 186.73 128.282C194.551 127.306 199.633 118.927 202.954 112.619C207.576 103.842 210.897 94.4302 215.411 85.5942C219.642 77.3115 224.654 67.451 234.756 65.8949C243.771 64.5048 254.102 67.7222 263.008 69.0494C287.709 72.7306 311.913 78.9983 336.344 84.0624C362.54 89.4909 389.355 92.7882 414.743 101.548C405.816 113.698 382.455 111.073 369.157 112.377C349.06 114.349 328.706 115.832 308.723 118.741C288.988 121.613 269.665 126.712 250.083 130.414C230.605 134.096 211.16 137.785 192.312 144.065C157.317 155.725 121.739 170.481 90.9068 190.826C76.561 200.292 63.8173 211.112 54.9558 226.055C46.0374 241.091 41.7519 258.093 40.1172 275.389C39.1 286.159 40.828 295.479 42.9144 305.961C44.4256 313.55 44.9149 326.256 50.9997 331.813C62.6137 342.419 72.2562 299.398 74.4007 294.202C75.9447 302.717 73.4199 350.689 92.0548 346.787C100.371 345.047 102.258 333.632 103.637 326.756C106.153 314.222 108.407 301.436 112.711 289.364C115.473 305.629 116.624 322.575 122.575 338.11C126.527 348.427 137.805 366.733 145.667 349.071C151.564 335.825 149.541 320.622 150.248 306.558C151.031 290.973 155.506 275.941 157.09 260.509C157.704 254.531 157.148 247.793 163.155 244.531C168.312 241.731 175.854 240.82 181.485 239.256C198.163 234.626 214.95 230.369 231.549 225.457C248.156 220.54 264.532 214.797 280.917 209.192C296.588 203.831 312.587 200.783 328.448 196.192C337.466 193.582 346.374 190.851 355.518 188.671C359.773 187.658 364.081 186.868 368.326 185.818C371.473 185.041 375.619 182.107 378.855 182.159C382.185 182.213 383.436 185.032 387.255 185.254C391.366 185.491 395.546 184.584 399.634 184.271C409.594 183.507 420.181 182.272 430.118 183.652C424.146 190.736 416.08 195.633 409.011 201.501C400.857 208.269 392.967 215.577 386.003 223.569C371.99 239.65 358.746 256.647 346.442 274.069C334.305 291.256 324.533 310.062 316.037 329.277C311.804 338.852 307.694 348.636 304.77 358.7C303.568 362.834 302.588 366.984 300.419 370.744C298.429 374.193 295.626 377.165 297.978 381.33C299.597 380.316 301.051 379.057 302.515 377.84C300.823 389.757 297.172 401.285 295.295 413.165C293.445 424.87 293.52 436.907 293.64 448.728C293.892 473.484 295.733 497.68 300.754 521.962C305.833 546.516 312.357 570.884 320.584 594.57C328.504 617.377 336.451 641.294 347.506 662.789C359.312 685.748 373.357 709.886 390.447 729.32C379.284 733.893 365.077 733.038 353.256 734.88C340.9 736.805 330.211 740.439 319.681 747.276C309.027 754.195 303.244 763.102 301.772 775.718C300.725 784.697 297.617 797.128 309.397 799.487C317.869 801.184 327.341 798.397 335.831 797.708C350.682 796.505 365.553 795.753 380.438 795.103C395.282 794.456 410.131 793.885 424.98 793.425C431.965 793.208 438.953 793.099 445.935 792.849C449.064 792.737 450.962 792.689 453.767 793.593C455.986 794.309 455.823 795.795 458.294 793.958C462.278 790.995 461.458 781.653 461.346 777.545C461.177 771.206 460.576 764.794 459.34 758.575C458.606 754.879 449.699 731.057 456.625 730.054C448.579 721.212 445.365 708.586 441.75 697.503C437.221 683.619 433.246 669.773 430.125 655.493C423.459 624.989 420.513 594.151 420.513 562.94C451.413 581.986 484.107 592.303 520.502 593.454C556.687 594.598 596.44 591.627 630.8 579.589C646.712 574.014 660.964 566.693 674.606 556.83C679.496 553.295 684.734 545.288 691.152 545.425C698.811 545.59 707.388 548.489 714.994 549.729C729.54 552.1 748.525 553.438 760.84 562.435C767.529 567.322 772.323 574.163 778.293 579.793C782.834 584.078 788.838 586.404 793.345 590.688C798.209 595.31 796.277 601.349 804.341 601.723C811.233 602.042 818.791 599.269 824.735 596.014C836.595 589.52 849.225 575.658 838.263 562.503Z" fill="black"/>
<path fill-rule="evenodd" clip-rule="evenodd" d="M724.27 253.611C741.626 265.94 761.534 274.362 779.671 285.465C784.211 288.244 798.354 294.014 798.217 299.169C798.138 302.183 793.887 305.962 792.026 308.051C788.838 311.629 785.838 315.245 782.896 319.03C769.428 336.364 756.745 353.862 742.148 370.326C739.951 372.802 733.33 384.627 731.193 378.754C730.224 376.091 731.022 373.099 728.498 370.616C727.198 369.338 722.177 368.633 723.639 365.89C724.614 366.329 725.59 366.768 726.566 367.205C725.808 365.014 725.864 362.612 724.728 360.54C724.022 359.253 722.643 358.644 722.165 357.195C721.503 355.192 722.625 352.864 722.437 350.8C722.252 348.741 721.185 346.795 720.548 344.853C716.771 333.34 715.416 321.733 713.482 309.854C711.569 298.099 708.589 286.713 707.419 274.828C706.183 262.274 704.668 249.746 702.647 237.293C706.254 237.799 709.027 241.719 711.579 243.935C715.589 247.417 719.944 250.538 724.27 253.611ZM710.664 375.148C709.836 374.497 709.188 373.698 708.721 372.751C717.228 368.537 712.095 375.727 710.664 375.148ZM705.491 366.16C701.783 367.182 699.119 367.389 696.261 365.864C695.989 365.719 696.302 364.604 695.812 364.375C695.385 364.177 694.732 364.423 694.367 364.236C693.122 363.603 690.942 364.991 690.73 362.566C695.462 361.118 700.116 358.446 705.112 357.995C712.056 357.37 711.735 364.438 705.491 366.16ZM689.246 352.186C684.186 353.369 680.018 356.133 674.643 355.411C669.597 354.735 665.213 352.118 661.232 349.103C671.19 346.284 681.631 345.776 691.58 343.049C694.82 342.161 699.076 339.82 702.567 340.764C706.446 341.812 706.69 345.445 707.853 348.751C701.645 349.867 695.391 350.75 689.246 352.186ZM657.603 338.159C652.742 339.32 647.774 341.86 643.71 337.477C643.054 336.77 642.48 337.476 642.557 335.298C642.639 333 644.724 331.521 646.517 330.712C650.734 328.811 656.644 330.04 661.122 329.76C668.265 329.316 675.536 327.831 682.601 326.688C687.493 325.897 692.547 324.141 697.547 324.488C701.407 324.755 706.064 328.045 700.438 330.445C695.315 332.632 687.633 332.297 682.082 333.244C673.877 334.644 665.701 336.224 657.603 338.159ZM652.855 315.292C653.17 315.613 653.485 315.934 653.8 316.255C653.748 316.243 655.663 314.691 656.171 314.647C658.635 314.432 661.114 314.602 663.581 314.462C669.268 314.142 674.999 313.151 680.584 312.06C685.133 311.171 689.768 309.639 694.45 310.023C698.504 310.355 698.931 311.186 699.196 315.098C688.847 315.098 678.188 314.88 668.017 317.071C661.396 318.496 654.099 322.742 650.782 315.089C651.473 315.156 652.164 315.224 652.855 315.292ZM659.325 298.728C661.891 300.682 668.886 297.432 671.962 297.108C675.302 296.754 678.444 296.387 681.681 295.555C684.551 294.817 694.046 291.128 696.247 294.655C699.622 300.06 685.957 301.052 683.79 301.319C674.705 302.442 665.278 303.437 656.437 305.82C657.4 303.456 658.362 301.093 659.325 298.728ZM671.788 280.371C672.451 282.87 692.998 273.664 693.372 280.355C693.661 285.488 673.044 288.045 669.337 287.595C670.205 285.231 672.514 283.114 671.788 280.371ZM678.686 264.669C679.124 259.631 679.799 259.66 683.84 259.185C686.922 258.823 691.158 257.016 690.356 262.509C689.669 267.212 678.247 269.754 678.686 264.669ZM686.031 247.333C687.003 244.628 689.191 248.269 689.237 249.644C689.359 253.305 686.584 252.513 683.913 252.513C684.656 250.803 685.363 249.074 686.031 247.333ZM719.848 227.027C719.303 226.371 716.244 226.12 715.374 225.801C713.233 225.017 713.537 223.344 710.798 224.994C710.661 224.856 710.921 223.616 710.772 223.559C710.697 223.53 708.778 222.806 708.154 222.406C706.649 221.442 705.293 220.499 703.91 219.289C702.44 218.004 700.967 216.139 699.288 215.116C698.579 214.685 698.001 214.074 697.147 213.942C694.932 213.6 695.567 215.143 693.63 215.449C692.438 215.638 691.569 214.246 690.01 214.846C688.662 215.364 687.88 217.255 687.279 218.38C685.096 222.474 683.411 226.88 681.274 231.018C670.344 252.176 657.922 272.532 647.335 293.888C642.235 304.176 636.915 314.535 633.325 325.469C630.738 333.354 624.894 344.874 629.921 352.753C633.577 358.482 640.897 360.956 646.738 363.724C655.525 367.889 663.626 373.334 672.511 377.372C683.105 382.188 693.393 387.225 703.72 392.603C708.124 394.897 712.098 398.2 716.488 400.372C719.172 401.701 723.319 399.434 724.193 402.479C727.558 398.403 733.005 401.121 736.898 398.251C739.188 396.563 740.861 393.238 742.771 391.158C745.636 388.042 748.745 385.15 751.669 382.087C763.27 369.924 773.983 357.255 784.539 344.191C794.621 331.714 806.4 319.927 814.916 306.271C818.298 300.849 818.911 295.164 816.679 289.175C815.049 284.806 811.124 278.209 805.516 281.102C807.642 277.571 799.439 273.8 796.951 273.11C796.913 273.1 796.423 275.812 795.729 275.745C795.976 275.769 793.644 269.735 792.619 268.961C789.578 266.659 785.877 263.973 782.558 262.078C779.514 260.34 776.301 259.479 773.352 257.535C769.778 255.178 766.496 252.383 762.908 250.043C759.444 247.783 755.582 245.112 751.753 243.558C748.433 242.211 745.452 241.947 742.464 239.738C738.769 237.005 735.545 235.151 731.283 233.268C727.595 231.639 722.485 230.216 719.848 227.027Z" fill="black"/>
<path fill-rule="evenodd" clip-rule="evenodd" d="M216.523 554.27C217.201 552.678 217.876 551.085 218.554 549.494C219.392 552.27 219.627 553.65 216.523 554.27ZM217.425 561.625C215.956 561.888 216.535 557.28 216.535 556.478C219.072 557.914 216.971 559.636 217.425 561.625ZM215.135 548.333C216.387 547.593 217.639 546.854 218.891 546.114C217.147 549.345 217.832 547.327 218.551 549.484C217.236 549.862 215.957 549.421 215.135 548.333ZM207.714 573.583C203.021 590.612 188.113 604.042 172.368 610.999C163.32 614.995 154.424 615.995 144.653 615.55C140.885 615.378 136.45 614.154 132.824 614.381C130.031 614.557 130.157 614.678 127.844 617.042C126.821 615.158 127.562 613.835 125.51 612.738C122.949 611.37 121.886 612.963 120.615 614.858C118.953 613.135 118.272 612.236 116.118 611.212C116.186 611.245 114.056 611.164 114.143 611.19C113.758 611.072 111.441 609.582 110.716 609.311C107.74 608.195 104.298 607.736 101.552 606.134C99.1493 604.735 97.1707 600.808 94.4219 603.826C94.4195 598.783 87.6274 596.692 84.4439 594.051C79.4694 589.924 75.5146 583.814 73.0346 577.904C70.39 571.601 69.5072 565.558 68.2696 559.063C67.405 554.524 61.7428 547.964 65.1431 543.384C65.9532 545.304 65.5729 547.271 66.9182 549.012C68.1292 546.679 68.7952 544.068 69.3425 541.514C69.6113 540.263 71.1686 536.592 70.9918 535.502C70.6321 533.271 67.8712 533.15 69.4019 530.416C72.5769 533.871 75.1392 527.804 72.7403 525.386C71.5561 526.722 71.1214 528.239 70.5752 529.893C67.4535 523.591 76.0934 525.621 74.2031 519.932C77.3564 519.325 79.1691 518.531 80.3679 515.415C81.7012 511.948 80.7203 511.193 83.7476 508.902C84.789 508.115 87.734 506.982 88.2728 505.687C89.3154 503.184 86.6623 502.441 88.986 500.096C89.7707 501.473 92.8295 504.198 94.5042 501.605C94.8396 501.088 93.4313 500.721 94.4558 499.529C95.9731 497.766 97.6708 496.037 100.237 496.407C98.2048 491.328 111.188 490.926 114.513 489.727C117.846 488.527 120.673 487.738 124.207 487.46C127.737 487.181 127.912 486.147 130.901 484.022C131.154 487.063 131.885 486.394 134.047 486.931C134.566 486.04 135.099 485.939 135.644 486.63C136.186 487.146 136.85 487.388 137.632 487.359C138.819 487.421 140.166 487.266 141.409 487.292C144.329 487.349 147.34 487.105 150.204 487.167C150.943 487.043 151.633 486.787 152.28 486.396C152.55 486.904 152.821 487.414 153.09 487.924C154.607 488.114 154.724 490.015 156.59 487.936C157.143 490.579 158.729 489.204 160.405 489.921C161.933 490.576 162.176 491.622 163.587 492.352C164.515 493.104 165.509 493.203 166.572 492.652C167.583 493.402 168.61 494.13 169.651 494.836C171.571 495.919 173.833 496.583 175.855 497.439C177.2 497.994 178.537 498.571 179.863 499.17C179.903 500.77 180.621 501.336 182.016 500.865C183.277 501.92 183.632 501.878 184.855 503.674C187.625 507.744 190.083 510.906 193.583 514.543C208.793 530.358 213.466 552.716 207.714 573.583ZM212.382 506.336C205.515 497.14 195.795 486.61 187.061 480.802C182.634 477.857 176.419 472.572 171.005 471.014C169.722 470.645 168.393 470.621 167.132 470.233C166.157 469.934 165.626 468.934 164.515 468.754C163.737 468.628 163.651 470.368 162.825 470.208C161.099 469.871 160.004 468.158 158.785 467.086C156.165 471.599 154.744 464.009 150.898 469.112C146.321 461.935 135.568 463.504 128.259 463.866C126.091 463.973 125.073 464.744 123.151 465.316C121.362 465.847 121.186 465.711 119.232 465.696C114.368 465.659 110.05 466.27 105.554 468.406C98.0001 471.994 91.0664 477.585 83.8917 481.909C75.873 486.742 68.645 492.893 62.5105 499.961C40.3337 525.519 34.4038 562.824 52.0869 592.453C80.1742 639.51 152.625 644.539 193.679 612.61C225.396 587.94 237.467 539.919 212.382 506.336Z" fill="black"/>
<path fill-rule="evenodd" clip-rule="evenodd" d="M560.024 373.913C559.236 375.793 551.875 375.16 551.714 372.943C551.474 369.63 561.394 370.644 560.024 373.913ZM567.843 372.682C572.015 373.021 578.869 375.855 582.889 374.143C589.025 371.53 582.581 367.519 579.29 366.32C575.941 365.101 570.952 365.749 569.23 362.247C567.934 359.613 571.136 352.26 567.164 353.442C562.996 354.682 564.208 365.215 557.668 361.664C554.549 359.97 555.821 349.651 550.596 354.923C549.166 356.365 549.041 359.013 547.147 360.089C545.215 361.187 542.791 360.043 540.75 360.138C535.348 360.391 533.628 365.445 539.101 367.449C541.127 368.191 548.763 369.097 544.137 372.407C541.222 374.493 534.748 370.116 532.245 373.747C528.804 378.733 538.02 378.846 540.495 380.338C544.689 382.864 541.225 388.765 541.559 392.966C542.071 399.387 545.801 398.045 547.156 392.612C548.305 388.002 546.881 381.366 553.831 383.198C565.148 386.182 547.537 400.549 555.827 404.226C561.113 406.57 561.861 393.898 562.272 391.716C563.792 383.662 568.316 385.541 575.169 385.788C583.176 386.076 585.109 380.154 576.63 378.457C573.925 377.916 570.203 378.6 567.854 376.877C566.464 375.859 564.553 372.416 567.843 372.682Z" fill="black"/>
<path fill-rule="evenodd" clip-rule="evenodd" d="M272.226 635.808C265.746 633.488 254.906 633.989 253.303 642.358C252.632 645.861 253.939 649.566 256.358 652.112C259.164 655.063 263.632 655.336 263.394 650.197C263.228 646.641 259.843 643.552 265.794 642.835C269.497 642.389 274.974 645.159 275.158 649.249C275.574 658.469 259.614 659.192 253.733 657.597C242.06 654.434 245.231 642.208 253.247 636.628C255.318 635.185 261.26 632.965 261.531 629.97C261.892 625.998 256.981 626.809 254.573 627.333C236.878 631.185 233.021 660.828 251.511 666.416C259.907 668.953 271.732 666.334 276.792 658.729C281.537 651.599 281.601 639.165 272.226 635.808Z" fill="black"/>
<path fill-rule="evenodd" clip-rule="evenodd" d="M37.6067 425.961C32.0752 428.624 26.5437 431.286 21.0135 433.949C19.185 430.037 16.0959 419.348 11.4581 417.983C3.95039 415.773 8.7311 427.425 10.0268 430.089C11.0912 432.277 13.5602 435.667 12.9608 438.276C12.1568 441.79 7.19929 443.035 4.60429 444.847C-1.81722 449.335 -1.76637 458.76 7.53349 454.766C12.7961 452.505 19.3121 446.236 23.3457 453.354C25.2081 456.638 29.6207 474.986 34.2294 462.987C37.0811 455.558 23.3554 447.84 30.122 441.555C32.3004 439.533 34.8506 439.362 37.0267 438.2C42.282 435.391 39.3189 430.203 37.6067 425.961Z" fill="black"/>
<path fill-rule="evenodd" clip-rule="evenodd" d="M848.543 160.115C845.246 158.909 841.166 156.554 837.501 157.357C833.605 158.209 832.037 162.111 829.205 164.457C821.504 170.835 817.019 161.329 812.788 156.119C808.792 151.201 803.917 150.007 798.279 153.029C796.033 154.234 786.569 159.755 788.22 163.292C789.407 165.837 794.082 163.552 795.677 162.996C799.139 161.791 802.354 160.737 805.894 162.494C812.536 165.787 814.26 174.82 822.295 176.228C830.605 177.685 830.877 169.777 836.807 166.801C840.782 164.807 843.552 168.338 847.387 167.634C851.041 166.964 852.732 161.646 848.543 160.115Z" fill="black"/>
<path fill-rule="evenodd" clip-rule="evenodd" d="M781.457 191.983C784.396 192.621 786.314 186.921 788.154 185.475C791.205 183.079 796.496 182.596 799.603 185.008C805.671 189.716 803.58 199.88 812.22 202.53C819.942 204.898 823.579 194.728 830.08 192.196C833.859 190.723 838.007 189.76 836.532 184.476C835.514 180.823 832.513 179.884 829.251 181.288C823.645 183.698 821.741 193.515 815.094 193.69C808.218 193.872 807.472 183.958 804.519 179.64C800.018 173.059 790.766 171.469 785.508 177.762C783.92 179.66 775.861 190.771 781.457 191.983Z" fill="black"/>
<path fill-rule="evenodd" clip-rule="evenodd" d="M645.525 79.5975C649.613 82.3947 657.76 82.2979 661.526 78.8286C665.358 75.2987 660.242 74.7563 657.12 74.864C654.719 74.9476 650.224 76.1379 651.592 71.9905C652.807 68.3105 659.483 70.1838 660.04 66.1442C655.016 65.2433 649.482 65.5678 645.766 69.5166C643.078 72.3707 641.698 76.9783 645.525 79.5975Z" fill="black"/>
</svg>
