<svg width="804" height="779" viewBox="0 0 804 779" fill="none" xmlns="http://www.w3.org/2000/svg">
<path fill-rule="evenodd" clip-rule="evenodd" d="M249.685 657.281C288.073 665.671 326.46 674.06 364.848 682.45C370.252 683.631 375.656 684.811 381.06 685.993C379.452 636.459 377.844 586.926 376.236 537.392C376.004 530.238 375.772 523.084 375.54 515.93C384.434 523.716 393.771 531.18 402.281 539.379C413.176 549.874 423.652 560.738 434.865 570.921C454.156 588.438 474.42 605.427 496.757 618.951C521.028 633.647 549.026 643.1 577.209 646.365C587.59 647.568 596.988 647.273 607.272 646.203C616.222 645.271 625.17 644.338 634.119 643.406C637.722 643.03 641.328 642.654 644.933 642.279C645.803 642.189 648.637 642.392 649.332 641.807C650.594 640.743 651.252 635.915 651.749 634.38C653.819 627.995 655.877 621.607 657.922 615.214C663.48 597.838 668.96 580.438 674.251 562.98C678.782 548.035 683.546 533.025 686.93 517.766C687.327 515.978 688.196 513.637 688.049 511.787C687.835 509.086 689.115 509.654 685.553 509.616C677.181 509.524 668.328 511.558 659.948 512.154C651.318 512.765 642.671 513.13 634.019 513.217C588.205 513.683 535.473 508.718 498.359 479.055C485.916 469.109 473.416 457.613 463.774 444.827C450.176 426.798 442.765 402.793 440.96 380.548C438.929 355.551 443.144 329.77 449.284 305.572C450.528 300.676 450.248 298.844 449.179 293.72C448.293 289.467 447.408 285.212 446.522 280.959C446.275 279.778 446.01 274.816 445.034 274.087C443.325 272.816 435.086 274.213 433.084 274.238L408.261 274.549C392.275 274.748 376.289 274.948 360.302 275.148C352.001 275.252 343.706 276.549 335.456 277.408C317.77 279.245 300.084 281.084 282.399 282.921C278.855 283.29 275.31 283.659 271.766 284.026C274.037 304.154 276.308 324.282 278.581 344.409C280.274 359.418 274.367 374.299 271.22 388.971C264.127 422.023 257.219 455.557 254.589 489.314C252.115 521.095 252.141 553.218 251.334 585.075C250.725 609.142 250.17 633.21 249.685 657.281Z" fill="white"/>
<path fill-rule="evenodd" clip-rule="evenodd" d="M496.492 49.8186C496.492 47.9708 495.941 46.6768 494.904 45.1455C492.508 47.2264 488.756 57.5457 484.764 50.8836C483.971 49.5587 483.934 44.6236 481.211 46.1635C479.932 46.8864 480.281 50.3693 480.372 51.5499C480.696 55.7524 482.605 61.6157 488.026 61.3761C493.559 61.1323 496.642 54.4158 496.492 49.8186Z" fill="black"/>
<path fill-rule="evenodd" clip-rule="evenodd" d="M493.154 40.5841C502.356 42.2813 498.684 34.0037 491.944 33.3168C489.446 33.062 485.136 33.1957 485.728 36.8848C486.252 40.1475 490.723 40.135 493.154 40.5841Z" fill="black"/>
<path fill-rule="evenodd" clip-rule="evenodd" d="M518.649 67.8647C521.546 68.1394 526.319 64.0547 521.509 63.557C519.287 63.3276 514.622 67.481 518.649 67.8647Z" fill="black"/>
<path fill-rule="evenodd" clip-rule="evenodd" d="M13.4407 116.261C15.6577 117.958 22.3011 112.5 24.4737 111.535C32.9303 107.779 42.6524 105.7 51.7402 104.081C69.7316 100.876 88.1723 99.0699 106.439 98.4951C117.581 98.1433 128.129 98.533 139.149 99.7205C141.893 100.016 160.455 103.113 160.909 98.0253C161.708 89.0912 112.607 89.5145 107.931 89.5308C86.673 89.6033 67.4735 91.9621 46.8245 96.5942C41.2387 97.8466 6.88928 111.245 13.4407 116.261Z" fill="black"/>
<path fill-rule="evenodd" clip-rule="evenodd" d="M600.44 263.879C611.62 267.186 624.377 266.734 634.866 261.406C636.669 260.492 641.049 258.546 638.728 256.26C636.231 253.802 629.239 257.973 626.517 258.506C613.304 261.099 596.551 255.961 587.191 246.326C582.545 241.545 579.923 235.503 578.817 228.995C578.187 225.283 577.863 221.356 578.09 217.594C578.33 213.607 579.96 209.321 578.869 205.354C573.994 208.244 573.938 215.854 573.59 220.769C573.153 226.965 573.191 232.923 574.931 238.96C578.513 251.391 588.129 260.237 600.44 263.879Z" fill="black"/>
<path fill-rule="evenodd" clip-rule="evenodd" d="M800.203 594.991C799.848 595.94 799.514 596.828 799.124 597.872C797.616 595.103 797.616 595.103 800.203 594.991ZM786.151 667.316C780.559 669.899 774.328 662.958 771.351 659.092C766.389 652.647 764.18 645.218 762.224 637.457C760.06 628.871 757.56 620.385 755.548 611.758C754.654 607.912 753.798 604.055 752.792 600.235C751.96 597.074 748.857 591.443 750.163 588.16C752.371 582.61 763.217 581.083 762.478 573.639C761.799 566.799 749.864 574.104 746.999 575.554C740.453 578.871 743.857 574.686 747.019 572.261C749.415 570.423 760.561 562.467 754.727 558.454C750.94 555.848 742.704 563.78 739.566 565.242C736.271 566.776 735.07 566.374 732.399 563.671C730.498 561.746 727.673 559.311 726.204 557.104C722.575 551.648 727.437 540.955 728.184 534.705C728.35 533.314 727.303 525.69 728.274 524.788C729.553 523.602 735.023 524.437 737.033 524.135C744.242 523.051 751.354 522.234 758.574 521.332C763.344 520.736 777.53 517.145 780.338 522.091C782.566 526.013 781.853 533.543 781.854 537.737C781.857 546.565 781.885 555.204 782.72 564.061C784.545 583.402 785.914 602.732 787.672 622.075C788.526 631.463 790.293 640.743 791.178 650.13C791.728 655.949 792.597 664.338 786.151 667.316ZM677.557 524.48C672.263 537.723 667.882 551.366 663.302 564.864C661.183 571.104 659.229 577.407 657.079 583.635C655.02 589.602 651.709 594.977 650.011 601.079C646.804 612.604 644.107 624.049 640.309 635.377C639.762 637.009 640.083 640.62 639.102 641.773C637.896 643.191 632.557 642.979 630.666 643.217C622.933 644.192 615.12 644.941 607.316 644.615C614.618 635.409 622.808 626.958 631.203 618.725C638.554 611.517 648.483 603.331 649.679 592.345C651.272 577.751 636.043 580.685 626.568 581.568C613.35 582.803 598.368 588.16 585.14 585.191C594.309 572.792 608.206 563.546 619.715 553.454C624.204 549.517 628.926 545.19 631.219 539.527C632.386 536.64 632.967 533.311 632.175 530.247C631.213 526.526 629.077 525.85 625.98 524.092C644.344 524.092 662.915 523.437 680.408 517.13C681.103 520.061 678.541 522.019 677.557 524.48ZM595.458 641.448C592.251 645.81 586.473 644.622 581.718 644.347C574.737 643.943 567.774 643.094 560.919 641.695C554.001 640.283 547.06 638.389 540.459 635.855C539.071 635.321 534.751 634.103 534.242 632.433C533.781 630.921 536.446 627.819 537.027 626.666C538.878 622.977 539.796 616.407 535.615 613.776C532.162 611.604 527.064 613.78 523.581 614.805C518.423 616.326 512.27 619.396 507.032 617.061C500.348 614.08 493.73 609.796 487.446 606.044C498.797 595.728 509.946 585.211 521.586 575.215C532.249 566.056 545.093 555.518 551.757 542.904C554.267 538.152 555.892 531.419 552.814 526.471C550.054 522.035 544.489 521.879 539.798 522.285C525.863 523.493 512.135 526.954 498.427 529.536C493.812 530.406 464.124 537.292 464.044 529.801C464.028 528.185 467.102 524.504 467.889 523.22C469.672 520.306 471.494 517.424 473.421 514.602C477.912 508.027 482.793 501.733 487.634 495.417C490.076 492.229 493.198 485.588 497.874 486.295C500.006 486.618 502.142 488.991 503.862 490.22C506.827 492.336 509.9 494.296 513.055 496.116C525.809 503.473 539.893 507.208 554.083 510.677C557.301 511.463 572.668 513.047 574.177 516.22C574.93 517.804 573.195 521.549 573.15 523.263C573.083 525.845 573.652 528.525 575.07 530.712C579.187 537.058 588.19 536.725 594.821 536.536C603.243 536.297 611.866 535.882 620.249 536.91C611.909 544.628 603.255 551.993 594.549 559.291C588.413 564.432 581.576 569.303 576.754 575.775C572.627 581.316 569.556 590.744 574.828 596.714C580.47 603.102 593.188 600.273 600.345 599.184C608.688 597.914 616.957 596.36 625.227 594.704C628.03 594.143 630.924 593.495 633.788 593.345C637.213 593.165 638.469 592.971 636.096 596.15C630.199 604.047 621.331 609.725 615.123 617.437C612.199 621.069 608.791 623.961 605.716 627.447C601.886 631.79 598.88 636.796 595.458 641.448ZM480.69 598.291C476.66 602.39 472.111 596.562 468.844 593.891C463.945 589.886 459.165 585.741 454.195 581.823C444.78 574.406 434.98 567.524 426.13 559.41C423.34 556.852 418.756 553.987 417.907 550.069C416.827 545.07 419.424 540.6 416.769 535.573C411.741 526.051 401.342 533.841 394.56 528.36C391.077 525.545 388.622 521.46 385.876 517.975C382.608 513.827 378.435 509.802 376.554 504.805C374.597 499.609 374.34 497.122 377.983 492.729C381.909 487.997 386.67 483.676 389.82 478.351C391.989 474.682 393.76 469.289 390.35 465.739C387.598 462.87 382.829 463.643 379.265 463.862C374.076 464.184 368.912 464.669 363.813 465.698C359.78 466.512 352.081 468.642 348.212 466.429C339.084 461.211 355.496 447.77 359.131 443.782C367.253 434.87 375.77 426.331 384.217 417.729C392.027 409.776 399.913 401.815 407.249 393.414C412.707 387.162 419.103 378.336 416.176 369.508C413.803 362.353 405.815 362.126 399.459 362.623C390.149 363.353 380.885 364.878 371.616 365.984C364.707 366.809 351.411 369.403 345.517 363.912C339.424 358.237 352.431 341.377 355.793 336.326C362.899 325.652 371.086 315.746 379.567 306.149C383.685 301.489 387.885 296.899 392.086 292.313C395.732 288.328 399.076 283.308 403.265 279.887C407.848 276.145 414.692 276.585 420.308 276.021C426.215 275.428 432.496 274.553 438.434 274.573C443.842 274.593 442.504 279.8 442.732 284.315C442.788 285.396 444.245 294.99 442.604 295.14C442.424 293.004 442.245 290.869 442.066 288.732C437.448 290.627 434.021 294.707 430.44 298.022C426.868 301.33 422.017 304.698 420.508 309.563C416.254 323.294 433.234 318.423 440.35 317.029C438.749 332.627 434.76 347.786 432.561 363.278C431.64 369.77 432.015 375.645 432.734 382.101C433.143 385.78 433.096 389.495 433.544 393.172C433.9 396.088 435.258 399.423 434.715 402.356C433.723 407.722 426.948 413.357 423.938 417.897C419.943 423.922 416.417 430.449 414.571 437.483C411.233 450.177 416.919 459.304 430.199 460.526C436.19 461.077 442.819 460.152 448.753 459.305C453.854 458.578 460.369 454.795 465.021 458.217C466.927 459.617 468.239 462.097 469.909 463.808C472.332 466.289 475.054 468.503 477.728 470.702C480.25 472.776 487.146 476.461 486.467 479.638C485.955 482.034 481.798 485.455 480.39 487.229C478.543 489.552 476.71 491.887 474.928 494.262C470.4 500.292 466.084 506.521 462.179 512.973C457.452 520.78 450.818 534.729 458.811 542.82C463.441 547.506 471.129 546.681 477.032 545.757C485.079 544.5 493.075 542.883 500.978 540.933C508.893 538.982 516.872 537.622 524.879 536.136C531.72 534.868 539.675 532.445 546.513 534.954C526.533 558.215 502.117 576.494 480.69 598.291ZM364.131 490.697C361.562 487.693 358.931 484.357 356.657 481.109C354.564 478.118 354.735 476.814 358.265 475.882C360.463 475.303 362.904 475.869 365.146 475.608C367.48 475.335 369.81 474.584 372.096 474.068C374.663 473.49 377.544 472.611 380.194 472.618C383.18 472.625 383.474 472.354 381.974 475.039C379.916 478.719 375.932 481.936 373.094 485.003C371.309 486.933 367.036 494.095 364.131 490.697ZM367.435 532.877C366.081 535.85 356.343 533.671 354.776 531.625C351.352 527.152 360.114 516.737 362.416 512.97C365.892 515.273 367.095 518.319 367.301 522.338C367.445 525.122 368.586 530.345 367.435 532.877ZM371.1 680.612C365.281 681.187 357.657 677.831 352.328 675.987C344.946 673.436 337.271 671.615 329.656 669.915C314.36 666.501 298.55 666.026 283.21 662.75C292.957 650.066 304.744 639.137 314.651 626.588C318.243 622.038 323.525 615.516 321.857 609.275C320.224 603.155 313.903 604.508 309.209 605.918C302.913 607.81 296.83 610.445 290.674 612.739C287.764 613.824 274.763 620.068 272.358 616.019C270.736 613.286 279.965 603.107 281.311 601.347C286.338 594.773 291.794 588.545 297.292 582.365C307.55 570.832 319.193 559.034 327.128 545.729C333.076 535.754 335.066 520.01 319.007 520.641C312.376 520.9 305.62 522.956 299.151 524.308C293.174 525.557 284.341 528.319 278.243 526.776C271.82 525.152 279.206 515.567 281.227 512.405C285.498 505.722 290.514 499.479 295.219 493.098C300.281 486.234 305.678 479.517 310.41 472.422C313.354 468.007 318.129 460.305 315.454 454.724C312.383 448.319 301.837 452.278 296.674 453.249C286.892 455.091 277.297 458.157 267.249 458.157C267.349 453.113 272.516 448.679 275.489 445.101C279.952 439.729 284.546 434.527 289.426 429.528C292.858 426.011 296.61 420.285 300.625 417.575C304.732 414.805 307.159 423.565 308.775 426.822C320.544 450.574 333.41 473.86 349.282 495.166C352.476 499.455 357.167 502.919 354.486 508.395C351.697 514.091 348.02 519.075 346.947 525.504C346.155 530.251 346.57 536.852 350.226 540.46C353.769 543.956 358.973 543.163 363.348 544.53C367.995 545.982 366.686 550.102 366.726 554.227C366.798 561.44 366.886 568.649 366.841 575.863C366.804 582.274 366.715 588.683 366.638 595.094C366.558 601.873 364.907 606.677 363.056 613.06C362.094 616.384 361.762 619.82 362.826 623.161C363.742 626.031 365.247 626.581 367.011 628.613C370.448 632.566 369.35 640.08 369.771 645.106C370.074 648.709 375.106 680.217 371.1 680.612ZM356.782 757.687C355.319 759.525 350.067 758.938 348.018 759.073C344.125 759.328 340.226 759.329 336.332 759.54C328.026 759.991 319.826 761.147 311.493 761.293C304.645 761.413 297.55 761.745 290.969 762.214C287.725 762.445 284.081 761.039 280.926 761.698C277.817 762.348 276.63 763.256 273.263 762.987C264.88 762.316 256.302 763.16 247.904 763.367C240.135 763.557 232.299 762.969 224.517 762.866C215.763 762.75 206.989 763.07 198.236 763.16C188.869 763.256 179.308 762.699 170.06 764.48C170.917 760.545 170.858 755.907 174.036 752.965C177.293 749.951 182.69 749.266 186.88 748.775C192.98 748.058 199.031 747.894 205.119 747.636C208.923 747.474 212.583 746.184 216.364 745.754C221.786 745.136 227.623 745.493 233.088 745.405C234.963 745.375 236.208 744.682 237.927 744.42C239.947 744.111 241.919 744.627 244.12 744.09C248.684 742.977 253.338 741.81 257.767 740.321C260.47 739.413 260.359 738.642 262.574 740.751C263.963 742.072 264.815 744.573 265.988 746.128C267.923 748.696 271.387 751.767 274.372 748.676C277.535 745.401 274.145 741.728 274.848 738.33C275.39 735.706 280.375 733.403 282.865 734.392C286.311 735.762 287.331 742.878 291.02 743.683C295.658 744.697 294.406 737.676 293.777 735.062C292.133 728.222 292.72 727.999 298.182 723.445C302.346 719.973 303.509 718.618 308.675 721.213C313.879 723.827 319.565 724.965 325.367 725.589C332.22 726.329 338.614 725.556 345.32 724.185C348.476 723.54 354.627 721.118 356.69 724.432C359.014 728.168 356.622 737.317 356.538 741.641C356.474 744.862 356.278 748.177 356.586 751.392C356.745 753.053 357.964 756.202 356.782 757.687ZM272.714 660.109C267.896 659.691 263.176 658.414 258.372 657.831C256.622 657.62 252.862 657.684 251.415 656.445C249.644 654.929 250.474 655.078 250.835 652.874C252.554 642.398 253.21 632.251 252.956 621.605C252.767 613.636 251.212 601.24 255.959 594.311C261.554 586.146 270.056 580.103 275.729 571.912C278.799 567.481 283.081 555.587 273.365 555.907C269.499 556.032 265.37 558.483 261.618 559.391C256.306 560.676 255.982 559.386 256.452 554.572C257.554 543.274 257.226 531.927 258.379 520.623C259.564 509.003 260.835 497.376 262.139 485.767C262.775 480.127 263.064 474.154 264.158 468.597C265.223 463.196 270.468 466.103 275.058 465.884C287.211 465.3 299.026 457.847 311.24 459.014C301.057 478.122 283.69 492.637 273.81 511.998C270.396 518.688 267.216 529.156 275.636 533.623C285.02 538.603 299.343 532.293 308.998 530.69C312.378 530.13 325.8 526.207 326.423 531.434C326.76 534.249 321.297 540.832 319.931 542.865C316.819 547.501 313.235 551.801 309.87 556.249C303.146 565.133 295.147 572.864 288.175 581.56C282.093 589.145 274.63 596.577 269.729 604.991C265.128 612.888 264.242 627.119 277.179 625.564C290.421 623.971 301.94 613.639 315.439 613.335C308.539 622.429 300.665 630.708 293.007 639.151C289.322 643.214 285.706 647.332 282.212 651.562C279.976 654.27 276.906 660.474 272.714 660.109ZM254.641 577.693C254.933 573.911 254.017 571.798 257.451 569.725C259.665 568.39 264.892 566.315 267.317 567.234C266.401 568.298 255.919 580.832 254.799 579.822C254.519 579.141 254.466 578.431 254.641 577.693ZM272.915 403.748C273.545 396.474 275.009 389.281 275.324 381.98C275.538 377.045 274.834 370.476 278.177 366.359C282.221 373.929 284.941 382.116 288.982 389.689C290.712 392.929 292.64 396.06 294.43 399.265C295.651 401.458 299.235 406.163 298.952 408.776C298.472 413.239 289.604 419.633 286.732 422.818C280.612 429.606 274.622 436.514 268.37 443.183C269.215 429.967 271.774 416.935 272.915 403.748ZM272.74 285.552C274.43 283.18 286.209 284.301 288.752 284.075C296.753 283.368 305.448 282.737 313.191 280.588C300.897 295.802 289.848 312.273 282.625 330.54C279.885 323.077 278.08 315.306 276.406 307.546C275.555 303.598 274.824 299.634 274.19 295.645C273.903 293.841 271.647 287.09 272.74 285.552ZM310.284 396.89C306.991 398.534 297.004 373.948 296.561 371.223C301.297 372.304 320.154 373.188 321.261 379.164C321.778 381.956 318.556 385.326 317.146 387.345C315.422 389.816 313.008 395.532 310.284 396.89ZM340.207 371.864C347.181 380.604 360.197 378.837 369.932 377.596C376.526 376.752 383.058 375.62 389.631 374.651C396.117 373.693 403.985 371.924 410.276 374.596C400.075 388.939 386.942 400.799 374.541 413.168C368.186 419.511 362.045 426.063 355.933 432.642C349.939 439.094 345.159 447.216 338.8 453.194C333.404 443.336 328.296 433.329 323.094 423.369C320.909 419.185 318.097 415.418 315.854 411.281C313.382 406.725 313.002 404.629 316.156 400.501C320.85 394.353 327.448 386.027 326.504 377.772C325.403 368.132 313.952 367.074 306.454 364.995C302.687 363.95 298.361 363.158 294.917 361.256C290.541 358.837 290.344 354.844 288.897 350.512C287.144 345.268 285.538 341.863 287.387 336.347C288.927 331.757 291.231 327.201 293.359 322.865C297.834 313.748 303.429 305.354 309.361 297.134C313.26 291.732 317.859 280.954 324.832 279.511C329.78 278.488 336.024 278.908 341.1 278.628C347.017 278.302 352.942 278.117 358.862 277.861C371.133 277.33 384.272 276.169 396.482 277.787C382.103 293.337 367.568 308.497 354.777 325.431C346.539 336.338 328.965 357.774 340.207 371.864ZM285.177 254.235C291.845 241.866 298.038 229.636 307.067 218.836C314.876 209.495 321.959 199.749 330.064 190.626C347.066 171.49 369.132 157.348 389.704 142.478C394.358 139.114 400.314 137.28 405.421 134.345C411.741 130.716 418.512 127.686 425.351 125.176C437.758 120.625 452.004 118.303 465.217 119.227C479.819 120.248 490.836 125.407 499.901 136.798C508.79 147.963 510.167 160.289 510.407 174.322C510.521 180.99 510.604 187.697 510.539 194.367C510.474 200.967 509.617 205.14 505.576 210.224C502.248 214.408 495.238 216.521 490.455 218.456C483.948 221.086 477.858 224.02 471.787 227.56C469.161 229.09 462.925 234.854 459.685 234.242C454.912 233.34 453.743 224.868 453.269 221.109C451.491 207.045 451.68 192.663 452.542 178.53C452.983 171.294 456.348 160.42 454.441 153.097C453.65 150.055 451.842 148.976 449.609 151.662C446.847 154.985 446.167 162.784 445.455 166.792C442.94 180.907 443.107 195.096 443.025 209.369C442.992 215.04 439.827 217.982 437.752 223.034C435.097 229.495 432.926 236.237 431.618 243.101C430.858 247.086 430.321 251.146 430.379 255.211C430.41 257.443 431.51 260.993 430.653 263.114C428.989 267.229 418.659 264.928 415.197 264.851C399.764 264.507 384.376 263.686 368.919 263.486C337.628 263.085 306.113 267.733 275.469 273.637C278.643 267.14 281.745 260.603 285.177 254.235ZM298.626 188.204C296.174 188.604 287.938 193.108 286.514 190.253C285.3 187.813 291.311 179.075 292.208 176.747C294.293 171.344 294.799 165.31 296.027 159.669C296.8 156.114 296.874 149.087 298.798 145.92C300.946 142.379 305.959 144.157 309.516 144.263C315.583 144.444 321.711 144.441 327.782 144.419C333.957 144.398 340.127 144.236 346.303 144.255C352.614 144.274 358.848 143.226 365.112 143.226C364.409 145.495 361.472 146.603 359.628 147.67C356.786 149.315 354.395 151.272 351.903 153.419C346.067 158.451 340.246 162.472 335.352 168.475C330.929 173.902 324.752 179.704 319.262 184.066C316.321 186.401 314.311 186.214 310.749 186.184C306.488 186.147 302.783 187.524 298.626 188.204ZM283.507 176.113C281.974 180.811 281.83 182.191 276.858 181.858C270.468 181.427 264.062 181.027 257.661 180.562C243.058 179.506 228.442 177.323 213.836 176.587C201.384 175.959 187.938 174.456 175.565 175.753C169.789 176.358 163.633 175.193 157.745 175.424C150.635 175.703 143.457 175.674 136.655 177.862C130.986 179.689 126.249 180.675 122.199 185.398C118.117 190.154 115.33 196.149 112.618 201.745C107.358 212.596 103.24 226.762 93.9864 234.979C91.6493 237.056 87.658 240.579 84.2579 240.188C78.6623 239.544 80.3781 232.133 80.8707 228.374C82.5259 215.706 87.4989 204.758 91.2109 192.658C92.3194 189.042 94.5169 179.488 88.772 178.157C84.6368 177.199 78.1416 186.296 75.7666 188.74C70.5348 194.12 65.4145 199.341 59.5656 204.078C54.7376 207.989 49.8836 212.309 43.211 211.47C46.4044 202.856 49.928 194.515 55.1587 186.914C59.649 180.389 67.2169 174.517 70.0228 167.012C72.1369 161.361 70.2652 153.65 63.6922 158.623C57.983 162.94 53.0413 168.224 47.2065 172.464C39.5477 178.027 30.8562 182.639 21.7782 185.389C18.7753 186.3 13.4461 188.062 10.5677 185.89C6.27439 182.653 10.6532 175.897 13.0629 172.92C35.6636 145.007 73.2465 134.997 107.54 132.893C116.478 132.344 125.775 133.225 134.749 133.352C143.265 133.47 151.167 134.513 159.583 135.759C177.051 138.343 194.557 140.445 211.951 143.027C216.606 143.719 222.13 145.087 226.767 144.907C228.676 144.834 229.669 144.322 231.573 144.832C233.198 145.268 234.367 146.138 236.179 146.432C246.486 148.093 256.977 148.742 267.421 148.875C272.445 148.939 277.52 148.843 282.506 148.185C285.442 147.798 288.449 146.577 289.276 150.066C289.9 152.696 287.819 157.68 287.103 160.213C285.643 165.393 285.142 171.097 283.507 176.113ZM470.352 85.8853C468.595 85.9524 465.7 86.2155 465.13 84.0201C464.054 79.8833 469.582 82.4083 470.606 79.8038C471.747 76.9046 467.855 76.1539 466.139 75.6858C462.639 74.7298 463.538 74.934 463.444 71.2996C463.355 67.9467 462.273 64.893 460.913 61.8558C459.023 57.6363 458.926 57.8494 463.166 57.3648C470.3 56.5499 471.856 50.2471 474.496 44.4809C476.124 40.9226 477.928 37.4516 478.942 33.6505C479.557 31.3442 479.472 27.6789 481.725 26.3794C484.768 24.624 491.853 26.4391 495.059 26.8608C500.416 27.5652 506.051 28.3644 511.177 30.1629C515.571 31.7052 517.243 35.2823 521.205 35.916C523.766 36.3244 539.179 35.3584 537.155 40.0825C535.894 43.0257 529.942 41.3444 527.749 41.256C524.947 41.1445 521.533 40.7272 518.756 41.2748C515.981 41.8235 515.721 42.8624 514.638 45.6257C517.238 45.4966 526.965 44.0425 529.09 45.9558C530.976 47.6527 529.584 49.5129 527.687 50.1368C523.987 51.3545 518.986 48.9919 515.102 50.0075C512.338 50.7307 512.53 50.829 511.391 53.6055C510.798 55.054 510.121 56.5355 509.87 58.0934C508.442 66.8923 516.509 60.0619 519.864 58.1132C526 54.5484 532.651 55.2141 531.46 63.779C531.066 66.613 529.538 69.0926 527.577 71.1362C524.812 74.0166 524.095 74.5598 523.954 78.9117C523.831 82.6562 524.233 86.6626 522.908 90.2587C521.447 94.2185 518.334 97.5938 515.904 100.975C512.984 105.035 509.964 109.046 507.148 113.179C505.934 114.96 504.202 119.442 501.865 120.037C499.663 120.594 496.251 117.061 494.428 116.05C490.009 113.599 485.156 112.003 480.614 109.81C484.42 106.425 487.808 102.585 491.536 99.1851C494.446 96.5297 495.953 96.0242 494.993 91.5404C492.839 81.4827 477.712 85.6103 470.352 85.8853ZM527.58 297.235C539.609 308.886 557.494 316.169 573.765 319.101C590.809 322.173 610.244 324.448 626.848 318.509C643.872 312.417 659.79 303.661 674.203 292.764C675.975 291.424 695.827 272.036 697.426 273.565C691.528 282.398 685.34 291.013 679.088 299.596C676.017 303.811 665.396 318.323 671.503 323.574C675.548 327.051 682.428 321.449 685.749 319.201C693.743 313.793 702.649 310.881 712.367 310.881C707.877 319.125 701.052 326.424 697.401 335.132C695.677 339.246 696.555 338.948 700.452 337.829C705.328 336.431 710.859 334.812 715.948 334.583C718.314 334.476 723.12 335.517 723.52 338.608C723.902 341.565 717.626 347.144 715.874 349.262C709.454 357.028 702.91 364.395 694.973 370.657C679.737 382.674 661.65 390.421 643.241 396.177C624.434 402.055 604.334 403.826 585.107 399.094C575.582 396.75 566.844 393.569 558.312 388.821C554.449 386.674 550.387 385.699 546.671 383.174C542.812 380.551 538.901 377.933 534.962 375.436C526.848 370.293 521.82 365.12 516.158 357.391C513.882 354.284 510.757 351.98 508.587 348.92C506.196 345.548 503.737 342.113 501.507 338.564C491.226 322.2 481.153 304.609 475.16 286.16C472.07 276.648 469.971 266.863 467.378 257.211C466.486 253.89 463.193 247.503 463.88 244.13C464.544 240.876 469.691 239.556 472.24 238.176C479.68 234.149 487.145 230.575 494.405 226.293C504.434 220.377 502.657 232.508 503.308 239.512C505.238 260.334 512.233 282.37 527.58 297.235ZM442.751 305.195C440.634 307.009 435.28 308.135 432.573 307.307C435.241 303.331 439.354 300.722 442.815 297.522C443.191 299.721 444.864 303.384 442.751 305.195ZM455.664 446.674C450.794 447.029 445.71 448.493 440.881 448.531C436.574 448.565 431.123 448.916 426.937 447.992C415.39 445.438 422.218 434.987 426.236 428.166C428.459 424.395 431.27 421.021 433.586 417.314C434.146 416.421 435.698 412.774 436.938 412.652C438.762 412.471 439.329 415.463 440.208 417.294C442.587 422.252 444.786 427.374 447.486 432.169C450.201 436.99 453.993 441.316 455.664 446.674ZM580.58 520.052C581.578 514.505 597.802 520.138 601.473 520.8C602.526 520.99 615.237 522.539 615.122 523.645C610.915 523.955 579.338 526.955 580.58 520.052ZM801.203 643.883C803.688 644.965 803.6 637.053 803.715 636.004C803.947 633.889 804.238 630.081 803.163 628.223C802.374 626.86 802.142 627.553 801.719 627.194C798.248 624.25 802.439 622.991 803.219 620.646C803.46 619.925 803.482 617.938 803.123 617.336C802.099 615.611 801.815 616.901 800.597 616.178C799.781 615.693 798.125 616.89 798.605 614.681C799 612.857 800.394 613.976 801.092 613.406C803.748 611.235 803.477 608.387 803.051 604.918C802.648 601.623 802.258 598.097 801.288 594.977C800.791 593.376 800.112 594.098 800.167 592.207C800.195 591.22 801.694 590.244 801.744 589.004C801.803 587.461 800.373 584.986 800.293 583.361C800.187 581.226 800.168 579.371 800.406 577.354C800.552 576.116 800.879 575.667 800.947 574.162C801.011 572.745 800.7 571.085 800.671 569.607C800.587 565.413 800.027 561.198 799.291 557.187C798.858 556.558 798.518 555.882 798.268 555.158C798.44 554.406 798.728 553.702 799.131 553.043C799.242 551.126 799.205 549.254 799.183 547.308C799.139 543.7 799.828 540.276 800.039 536.719C800.101 535.663 800.516 533.9 799.782 532.924C799.223 532.18 797.267 532.363 797.052 531.649C796.434 529.601 798.284 530.823 798.685 529.786C799.006 528.954 798.843 527.86 798.896 527.024C799.044 524.764 795.791 509.402 792.973 511.399C794.096 510.603 791.893 505.314 791.177 504.419C788.521 501.09 786.935 504.861 784.78 507.201C781.765 510.478 779.14 508.37 775.223 507.631C770.374 506.716 765.045 507.039 760.13 507.145C755.091 507.254 749.98 507.538 744.961 507.982C739.558 508.459 734.324 510.092 728.866 510.01C720.776 509.889 712.58 510.078 704.498 509.788C702.88 509.73 698.965 509.899 698.288 507.842C698.032 507.069 699.491 505.446 699.711 504.594C700.135 502.958 700.165 500.81 699.444 499.208C697.265 494.374 692.73 498.32 689.535 500.077C684.723 502.722 679.735 504.974 674.419 506.404C653.218 512.108 628.207 511.79 606.557 509.098C584.574 506.363 562.841 499.744 541.407 494.321C521.836 489.371 503.773 478.394 488.751 464.962C473.438 451.272 461.353 432.282 453.789 413.219C445.362 391.982 451.492 370.601 451.706 348.88C451.813 338.047 454.222 327.475 454.883 316.677C455.522 306.204 454.626 296.376 451.486 286.125C450.685 283.514 449.559 280.891 448.975 278.219C448.435 275.746 449.391 273.761 449.074 271.428C448.392 266.433 442.872 266.94 440.458 263.227C438.272 259.865 440.524 254.634 441.298 251.029C442.644 244.769 444.316 238.585 445.855 232.372C447.445 236.072 448.929 239.762 449.889 243.683C450.136 244.687 450.157 246.461 450.845 247.353C451.342 247.998 452.596 247.914 452.989 248.51C454.314 250.517 454.162 252.529 454.391 255.11C454.838 260.116 455.648 265.068 456.471 270.023C459.238 286.666 461.344 303.07 467.883 318.781C479.933 347.734 496.21 374.676 520.281 395.214C531.189 404.521 545.062 410.308 558.265 415.212C574.014 421.061 588.995 424.23 605.901 422.713C621.856 421.281 637.803 416.326 652.418 409.902C666.813 403.574 680.329 398.004 692.62 387.808C705.753 376.914 718.87 363.764 727.903 349.184C731.197 343.867 737.062 332.897 735.625 326.238C733.781 317.698 720.664 323.329 715.927 325.098C719.913 318.573 730.583 306.955 725.278 298.818C717.535 286.941 697.267 298.968 688.967 303.37C693.244 294.669 699.782 287.359 704.415 278.87C706.71 274.663 713.055 257.557 703.733 256.632C700.911 256.351 697.914 259.574 695.92 261.189C692.05 264.326 688.21 267.499 684.372 270.675C675.982 277.618 667.127 283.522 657.465 288.549C638.128 298.609 619.423 303.951 597.46 301.811C578.747 299.99 558.112 294.301 543.56 281.964C534.822 274.556 527.875 266.362 523.386 255.715C518.43 243.959 515.27 231.044 511.802 218.779C517.177 217.395 520.944 218.197 519.907 211.803C518.663 204.138 518.937 196.382 518.892 188.602C518.797 172.475 518.499 156.17 513.454 140.693C512.557 137.939 511.766 135.101 510.219 132.621C508.311 129.563 506.54 129.108 508.997 125.774C513.723 119.355 518.633 113.868 522.139 106.492C523.963 102.656 525.656 98.8982 527.904 95.3119C531.59 89.4316 536.409 85.1178 541.139 80.0235C546.569 74.1778 550.822 68.6632 553.612 61.1537C554.917 57.6485 556.694 54.1608 557.369 50.458C558.172 46.043 557.337 41.5266 556.956 37.1093C555.696 22.4557 550.775 10.6306 536.368 4.90532C524.661 0.251899 511.202 -1.75195 498.927 1.84601C484.077 6.20033 477.038 19.2309 469.966 31.8411C467.971 35.397 466.744 39.1595 464.935 42.7685C463.08 46.4681 461.157 46.4737 457.741 47.9751C450.971 50.9493 451.545 59.5286 454.484 65.1679C458.219 72.334 457.463 80.6362 460.682 88.1175C463.978 95.7773 469.094 97.9121 476.896 99.6289C473.921 101.991 471.209 105.081 467.418 106.09C462.816 107.316 457.241 106.147 452.477 106.214C442.587 106.354 432.586 107.694 423.188 110.856C413.958 113.959 405.685 118.928 397.105 123.374C393.183 125.406 389.526 128.305 385.044 128.895C380.695 129.467 376.316 128.396 371.942 128.958C362.353 130.191 351.841 128.636 342.062 128.424C331.53 128.193 320.96 128.341 310.449 127.57C305.908 127.237 301.423 126.76 296.866 127.156C292.726 127.515 290.257 126.54 286.677 129.374C284.297 131.258 282.4 135.868 279.596 136.496C276.606 137.166 270.716 135.291 267.764 134.846C257.837 133.349 247.833 131.371 237.968 129.545C233.345 128.689 228.988 127.13 224.326 126.326C219.514 125.495 214.517 125.224 209.764 124.154C202.071 122.424 193.765 121.778 185.745 120.672C176.353 119.377 166.693 116.646 157.226 116.301C117.598 114.855 73.1816 112.501 38.0441 134.473C29.7953 139.632 21.3171 146.22 14.9616 153.6C9.1236 160.38 1.95406 169.35 0.464514 178.383C-0.865899 186.447 0.105175 200.574 10.887 200.672C21.4015 200.769 32.2061 194.491 41.2527 189.842C37.3892 199.106 25.645 218.948 35.8391 227.944C46.359 237.228 65.7273 217.083 72.6749 210.616C71.3023 220.515 61.498 256.487 80.0501 257.044C98.1574 257.588 108.663 235.266 115.115 222.015C118.52 215.019 121.061 206.799 126.59 201.106C132.15 195.382 139.857 195.571 147.382 194.84C165.672 193.061 183.861 192.969 202.258 192.528C225.54 191.972 248.406 195.808 271.72 193.641C271.425 198.137 273.132 206.319 277.686 208.04C284.397 210.576 292.626 206.93 299.496 206.93C299.035 209.679 295.121 212.574 293.473 214.65C290.519 218.368 287.976 222.357 285.599 226.464C280.955 234.486 276.015 242.521 272.719 251.216C271.06 255.59 269.643 260.101 268.449 264.623C267.763 267.223 267.775 271.109 266.383 273.408C264.654 276.265 261.997 274.616 259.806 276.857C256.649 280.088 259.945 281.787 260.94 284.636C262.019 287.717 260.664 292.937 261.075 296.325C261.691 301.41 262.344 306.532 263.188 311.585C264.731 320.821 268.004 329.364 270.194 338.38C272.273 346.933 266.647 355.978 264.791 364.25C262.635 373.854 261.385 383.57 259.171 393.155C256.834 403.274 255.75 413.696 254.138 423.947C252.564 433.962 250.299 443.855 248.76 453.878C245.83 472.977 243.968 492.427 241.658 511.604C240.447 521.656 239.516 531.839 239.426 541.969C239.343 551.455 238.005 560.719 237.809 570.187C237.602 580.222 237.484 590.266 237.05 600.293C236.622 610.212 237.852 620.088 238.302 629.992C238.517 634.713 238.675 639.441 238.604 644.167C238.547 648.156 237.452 652.823 238.442 656.727C240.396 664.444 251.257 669.081 258.074 671.326C266.409 674.071 275.206 675.968 283.74 677.996C287.896 678.985 292.105 679.826 296.333 680.446C297.976 680.687 299.881 680.59 301.415 681.288C303.727 682.341 303.272 681.811 303.394 684.441C303.592 688.689 302.348 693.343 301.7 697.508C301.104 701.342 301.863 707.647 300.381 711.083C298.695 714.992 286.81 718.195 283.902 715.542C281.851 713.673 281.264 710.137 278.848 708.563C275.368 706.293 273.769 709.473 273.786 712.888C273.799 715.461 275.745 718.566 273.405 720.445C271.377 722.075 267.1 721.221 265.141 719.88C261.876 717.644 255.102 703.802 253.445 715.576C253.055 718.349 254.251 721.58 251.9 723.685C249.696 725.657 244.383 725.57 241.603 725.922C237.167 726.483 233.284 726.671 228.805 726.575C223.806 726.468 219.083 727.642 214.17 727.863C206.512 728.206 198.828 729.243 190.997 729.393C183.004 729.549 174.293 731.637 168.145 737.061C161.086 743.287 162.539 750.986 163.886 759.327C164.774 764.842 157.738 770.801 164.84 775.624C167.69 777.559 172.422 777.151 175.698 777.18C181.297 777.232 186.834 776.579 192.439 776.892C233.266 779.165 274.252 777.47 315.07 776.123C324.606 775.809 334.511 776.247 343.966 775.094C348.178 774.581 352.358 773.848 356.58 773.396C360.192 773.011 364.503 773.646 367.952 772.473C376.492 769.569 367.353 760.731 366.673 755.683C365.35 745.885 365.91 735.503 365.847 725.63C365.779 715.134 365.847 704.637 365.847 694.141C370.388 694.457 383.131 697.82 386.692 693.922C389.634 690.7 384.626 683.971 384.38 680.102C383.379 664.33 383.717 648.541 382.527 632.755C381.3 616.475 381.451 600.34 380.94 584.058C380.395 566.665 379.16 549.336 379.16 531.917C391.866 545.368 404.001 560.14 418.129 572.132C424.18 577.267 430.772 581.711 437.091 586.5C444.212 591.895 450.842 597.898 457.921 603.344C471.091 613.477 486.752 619.402 500.667 628.411C514.731 637.519 529.74 645.02 545.932 649.527C563.632 654.456 582.402 656.094 600.718 655.149C609.506 654.696 618.25 653.566 626.904 651.988C630.512 651.329 634.084 650.47 637.693 649.824C642.798 648.909 645.285 649.763 650.065 650.698C656.344 651.927 657.909 642.753 659.771 638.344C663.204 630.208 664.691 621.319 667.729 613C673.042 598.45 677.938 584.064 682.64 569.268C683.707 565.911 684.417 560.089 688.42 559.617C691.122 559.297 695.776 562.311 698.425 563.143C703.031 564.59 707.397 565.24 712.195 565.359C716.238 565.459 716.721 566.974 719.248 569.852C721.566 572.489 725.75 574.001 724.963 577.831C724.498 580.099 722.089 581.849 721.639 584.412C720.023 593.605 729.252 585.657 732.496 583.648C734.461 587.982 719.616 592.794 725.026 598.93C727.675 601.934 733.198 597.37 735.834 596.204C741.981 593.482 742.915 600.883 744.553 605.679C747.557 614.483 749.569 623.723 751.871 632.732C754.089 641.413 755.893 650.283 759.392 658.57C762.511 665.956 767.943 670.777 771.822 677.447C773.732 680.729 775.839 683.094 779.966 683.249C782.758 683.355 787.921 682.257 790.558 681.192C793.048 680.186 795.748 677.125 797.488 675.204C799.906 672.537 799.428 669.958 801.385 666.694C801.301 668.333 800.935 669.858 800.847 671.459C804.42 668.647 800.858 664.223 801.507 660.658C801.711 659.529 802.875 658.582 802.941 657.397C802.97 656.912 801.933 655.796 801.863 655.118C801.781 654.318 801.716 651.991 801.943 651.397C802.108 650.97 803.482 648.795 803.452 649.189C803.473 648.902 803.959 648.447 803.698 647.496C803.304 646.061 801.021 645.807 801.203 643.883Z" fill="black"/>
</svg>
