<svg width="22" height="24" viewBox="0 0 22 24" fill="none" xmlns="http://www.w3.org/2000/svg">
<path id="R" d="M0 24V21.1154L2.64136 20.6209V3.3956L0 2.9011V0H11.7583C14.6099 0 16.8479 0.637363 18.4725 1.91209C20.0971 3.17582 20.9094 4.92308 20.9094 7.15385C20.9094 8.57143 20.5345 9.84066 19.7847 10.9615C19.0462 12.0824 18.0294 12.956 16.7343 13.5824L19.8869 20.6374L22 21.1154V24H15.9675L12.1503 14.522H7.61735V20.6209L10.2758 21.1154V24H0ZM7.61735 10.8132H11.6731C14.5247 10.8132 15.9504 9.66484 15.9504 7.36813C15.9504 6.25824 15.5982 5.37363 14.8939 4.71429C14.1895 4.04396 13.1443 3.70879 11.7583 3.70879H7.61735V10.8132Z" fill="white"/>
</svg>
