<?xml version="1.0" encoding="utf-8"?>
<!-- Generator: Adobe Illustrator 23.0.2, SVG Export Plug-In . SVG Version: 6.00 Build 0)  -->
<svg version="1.1" id="Layer_1" xmlns="http://www.w3.org/2000/svg" xmlns:xlink="http://www.w3.org/1999/xlink" x="0px" y="0px"
	 viewBox="0 0 980 980" style="enable-background:new 0 0 980 980;" xml:space="preserve">
<style type="text/css">
	.st0{fill:#3ADC7B;}
	.st1{fill:#FFFFFF;}
	.st2{fill:#DA3833;}
	.st3{fill:#0B0B0B;}
</style>
<g>
	<g>
		<g>
			<path class="st0" d="M700.9,60.2L528.1,413.9c-12.2-6.1-25.8-9.2-39.5-9s-27.1,3.8-39.1,10.3L273.8,62.9
				C340,29.5,412.9,11.9,487,11.5C561.1,11,634.3,27.7,700.9,60.2z"/>
		</g>
		<g>
			<g>
				<path class="st1" d="M503.9,304.7c0,2.7-0.4,5-1.3,6.9s-2.1,3.5-3.9,4.5s-4,1.7-6.7,1.8h-0.1v-7.7c2.2-0.2,3.7-0.6,4.4-1.4
					s1.1-1.8,1.1-3c0-0.7-0.2-1.4-0.5-2s-0.8-1.2-1.5-1.6s-1.6-0.6-2.7-0.6h-18l-0.8,4.6h-4.8v-16.4h4.8l0.8,3.6h18
					c2.3,0,4.3,0.4,5.9,1.3s2.9,2.2,3.8,3.9S503.9,302.3,503.9,304.7z"/>
				<path class="st1" d="M503.4,289.2h-4.8l-0.4-2.4l-29-10.2v-8.9l29-10.2l0.4-2.4h4.8v12.8h-4.8l-0.4-2.2l-3.7,1v11l3.7,1l0.4-2.2
					h4.8V289.2z M488.7,276v-7.5l-10.3,3.3l-1.2,0.4v0.1l1.3,0.4L488.7,276z"/>
				<path class="st1" d="M503.9,236.9c0,3.3-0.7,6.1-2,8.7s-3.2,4.5-5.7,6s-5.5,2.2-9.1,2.2h-1.6c-3.3,0-6.2-0.7-8.7-2
					s-4.5-3.2-5.9-5.7s-2.1-5.4-2.1-8.8c0-2.4,0.3-4.6,0.9-6.8s1.7-4.1,3.2-6h8.8v6l-5,0.8c-0.4,0.5-0.7,1.1-0.9,1.7
					s-0.5,1.2-0.6,1.9s-0.2,1.4-0.2,2.1c0,1.7,0.4,3.3,1.2,4.5s2,2.3,3.6,3s3.5,1.1,5.7,1.1h1.6c2.1,0,3.9-0.4,5.5-1.1
					s2.8-1.8,3.7-3.1s1.3-2.8,1.3-4.6c0-0.9-0.1-1.9-0.3-2.8s-0.5-1.9-0.8-2.8l-4.8-0.8v-6h8.6c0.9,1.4,1.8,3.1,2.4,5.2
					S503.9,234.2,503.9,236.9z"/>
				<path class="st1" d="M496,212.7l-4.8,4.2l-16.8-17l0,0l-0.3,3.9h-4.8v-15.9h4.8l0.7,3.2L496,212.7z M503.4,222.3h-4.8l-0.8-3.5
					h-23l-0.8,3.5h-4.8v-15h4.8l0.8,3.2h23l0.8-3.2h4.8V222.3z M503.4,203h-4.8l-0.3-3.4l0,0l-11.2,8.2l-5.1-5.7l16-12l0.6-3.5h4.8
					V203z"/>
				<path class="st1" d="M503.4,185.4h-4.8l-0.8-3.5h-23l-0.8,3.5h-4.8v-3.5v-13.1c0-2.7,0.5-5.1,1.4-7.1s2.3-3.5,4-4.6
					s3.7-1.6,5.9-1.6s4.2,0.5,5.9,1.6s3,2.6,3.9,4.6s1.4,4.4,1.4,7.1v4.8h6l0.8-3.5h4.8v15.3H503.4z M485.5,173.7v-4.8
					c0-1.7-0.5-2.9-1.4-3.8s-2.1-1.3-3.5-1.3c-1.5,0-2.7,0.4-3.7,1.3s-1.4,2.1-1.4,3.8v4.8H485.5z"/>
				<path class="st1" d="M503.9,137.3c0,2.4-0.4,4.5-1.3,6.5s-2.1,3.7-3.6,5.1s-3.4,2.6-5.5,3.4s-4.4,1.2-6.9,1.2H486
					c-2.5,0-4.7-0.4-6.8-1.2s-3.9-1.9-5.5-3.4s-2.8-3.2-3.7-5.1s-1.3-4.1-1.3-6.5c0-2.3,0.4-4.5,1.3-6.4s2.1-3.7,3.7-5.2
					s3.4-2.7,5.5-3.5s4.4-1.2,6.8-1.2h0.5c2.5,0,4.8,0.4,6.9,1.2s3.9,2,5.5,3.5s2.8,3.2,3.6,5.2S503.9,135,503.9,137.3z
					 M497.7,137.3c0-1.7-0.5-3.2-1.4-4.4s-2.2-2.1-3.9-2.8s-3.6-1-5.8-1H486c-2.2,0-4.1,0.3-5.7,1s-2.9,1.6-3.9,2.8
					s-1.4,2.7-1.4,4.4c0,1.8,0.5,3.3,1.4,4.5s2.2,2,3.8,2.6s3.6,0.8,5.8,0.8h0.6c2.2,0,4.2-0.3,5.8-0.9s3-1.4,3.9-2.6
					S497.7,139.1,497.7,137.3z"/>
				<path class="st1" d="M503.4,111.2h-4.8l-0.8-3.6h-22.2v5.3l3.7,0.2v6.2h-10.1V87.6h10.1v6.3l-3.7,0.2v5.3h22.2l0.8-3.6h4.8
					V111.2z"/>
			</g>
		</g>
	</g>
	<g>
		<path class="st2" d="M828.4,151.6c37.7,37.6,68.8,81.2,92.1,129L568.2,456.2l-76.4,38l-2.5,1.3l-1.6,0.8l1-2l0.6-1.2l38.6-79.1
			l173-353.7C748.1,83.5,791.2,114.3,828.4,151.6L828.4,151.6z"/>
		<g>
			<g>
				<path class="st1" d="M618.8,379.1l-2.5-2.5l1.5-2.3l-3-3l-14.6-4.1l-2.2,1.6l-2.6-2.6l7.8-7.8l2.6,2.6l-0.9,1.3l7.4,2.5l0.9,0.3
					l0.1-0.1l-0.3-0.9l-2.1-7.9l-2.1,1.7l-2.6-2.6l7.7-7.7l2.6,2.6l-1.7,2.2l3.8,14.2l3.4,3.4l2.3-1.5l2.5,2.5L618.8,379.1z"/>
				<path class="st1" d="M642.1,356.4c-1.3,1.3-2.6,2.2-4.1,2.8c-1.5,0.6-3.1,0.9-4.7,0.8c-1.6-0.1-3.2-0.4-4.7-1.1s-3-1.7-4.3-3
					l-0.3-0.3c-1.3-1.3-2.3-2.7-3-4.2s-1.1-3.1-1.1-4.7c-0.1-1.6,0.2-3.1,0.8-4.7c0.6-1.5,1.5-2.9,2.7-4.1s2.6-2.1,4.1-2.7
					s3.1-0.9,4.7-0.8c1.6,0,3.2,0.4,4.8,1.1c1.5,0.7,3,1.7,4.3,3l0.3,0.3c1.3,1.3,2.3,2.7,3,4.3c0.7,1.6,1,3.1,1.1,4.8
					s-0.2,3.2-0.8,4.7C644.2,353.8,643.3,355.2,642.1,356.4z M638.8,353.1c0.9-0.9,1.4-1.9,1.6-3.1c0.2-1.1,0-2.3-0.6-3.5
					s-1.4-2.4-2.6-3.6l-0.3-0.3c-1.2-1.2-2.3-2-3.6-2.5c-1.2-0.5-2.4-0.7-3.5-0.6s-2.2,0.7-3.1,1.6c-1,1-1.5,2-1.7,3.1
					c-0.1,1.1,0.1,2.2,0.7,3.4s1.4,2.3,2.6,3.5l0.3,0.3c1.2,1.2,2.4,2.1,3.5,2.6c1.2,0.6,2.3,0.8,3.4,0.7
					C636.8,354.6,637.8,354,638.8,353.1z"/>
				<path class="st1" d="M661.2,337.2c-1.6,1.6-3.2,2.7-4.8,3.3c-1.7,0.7-3.3,0.8-4.9,0.5s-3.1-1.2-4.5-2.6l-8.9-8.9l-2.3,1.5
					l-2.6-2.6l8.1-8.1l2.6,2.6l-1.5,2.3l8.9,8.9c0.7,0.7,1.5,1.2,2.2,1.4c0.7,0.2,1.5,0.2,2.2-0.1c0.7-0.3,1.4-0.7,2.1-1.4
					c0.7-0.7,1.2-1.5,1.5-2.2s0.3-1.5,0.1-2.2s-0.7-1.5-1.4-2.2l-8.9-8.9l-2.3,1.5l-2.6-2.6l8.1-8.1l2.6,2.6l-1.5,2.3l8.9,8.9
					c1.4,1.4,2.2,2.9,2.6,4.5c0.3,1.6,0.2,3.3-0.5,4.9S662.8,335.7,661.2,337.2z"/>
				<path class="st1" d="M677.4,320.5l-2.5-2.5l1.5-2.3l-12.2-12.2l-2.3,1.5l-2.6-2.6l1.9-1.9l4.4-4.4l2.3-2.3l2.6,2.6l-1.9,2.7
					l11.8,11.8l4.3-4.3l-2.4-2.6l3.3-3.3l5.9,5.9L677.4,320.5z"/>
				<path class="st1" d="M701.4,297.1c-1.3,1.3-2.6,2.2-4.1,2.8c-1.5,0.6-3.1,0.9-4.7,0.8c-1.6-0.1-3.2-0.4-4.7-1.1s-3-1.7-4.3-3
					l-0.3-0.3c-1.3-1.3-2.3-2.7-3-4.2s-1.1-3.1-1.1-4.7s0.2-3.1,0.8-4.7s1.5-2.9,2.7-4.1s2.6-2.1,4.1-2.7s3.1-0.9,4.7-0.8
					c1.6,0,3.2,0.4,4.8,1.1c1.5,0.7,3,1.7,4.3,3l0.3,0.3c1.3,1.3,2.3,2.7,3,4.3c0.7,1.6,1,3.1,1.1,4.8s-0.2,3.2-0.8,4.7
					C703.5,294.5,702.6,295.8,701.4,297.1z M698.1,293.8c0.9-0.9,1.4-1.9,1.6-3.1c0.2-1.1,0-2.3-0.6-3.5c-0.5-1.2-1.4-2.4-2.6-3.6
					l-0.3-0.3c-1.2-1.2-2.3-2-3.6-2.5s-2.4-0.7-3.5-0.6c-1.1,0.2-2.2,0.7-3.1,1.6c-1,1-1.5,2-1.7,3.1c-0.1,1.1,0.1,2.2,0.7,3.4
					c0.6,1.2,1.4,2.3,2.6,3.5l0.3,0.3c1.2,1.2,2.4,2.1,3.5,2.6c1.2,0.6,2.3,0.8,3.4,0.7C696.1,295.3,697.1,294.7,698.1,293.8z"/>
				<path class="st1" d="M719.2,279.3c-1.5,1.5-2.9,2.6-4.3,3.5c-1.4,0.9-3.1,1.5-5,1.8l-4.7-4.7l3.4-3.4l2.8,2
					c0.6,0,1.3-0.2,2.2-0.7s1.7-1.1,2.5-1.9c0.6-0.6,1-1.1,1.2-1.6s0.3-1,0.2-1.4c-0.1-0.5-0.3-0.9-0.7-1.2
					c-0.4-0.4-0.8-0.6-1.2-0.7c-0.5-0.1-1-0.1-1.7,0.1s-1.5,0.4-2.4,0.9c-2,1.1-3.8,1.8-5.3,2.3s-2.9,0.6-4,0.4
					c-1.2-0.2-2.3-0.9-3.3-1.9s-1.6-2.2-1.8-3.5s0-2.7,0.6-4.1s1.5-2.8,2.8-4.1c1.4-1.5,2.9-2.7,4.4-3.5s3-1.3,4.5-1.5l4.4,4.4
					l-3.2,3.2l-2.9-1.9c-0.4,0.1-1,0.4-1.6,0.8s-1.3,0.9-1.8,1.5c-0.5,0.5-0.9,1-1.1,1.5c-0.3,0.5-0.4,1-0.3,1.5
					c0,0.5,0.3,0.9,0.7,1.3c0.3,0.3,0.7,0.5,1.1,0.6c0.4,0.1,1,0,1.8-0.2c0.7-0.2,1.7-0.6,2.9-1.1c2.7-1.4,5-2.3,6.9-2.4
					c2-0.2,3.7,0.5,5.3,2.1c1.1,1.1,1.7,2.3,1.9,3.6s-0.1,2.7-0.7,4.1S720.5,277.9,719.2,279.3z"/>
				<path class="st1" d="M726.8,271.1l-2.5-2.5l1.5-2.3l-12.2-12.2l-2.3,1.5l-2.6-2.6l14.5-14.5l5.2,5.2l-3.3,3.3l-2-1.8l-4.8,4.8
					l3.7,3.7l5.8-5.8l3.3,3.3l-5.8,5.8l4.3,4.3l5.1-5.1l-1.9-2.1l3.3-3.3l5.3,5.3L726.8,271.1z"/>
				<path class="st1" d="M757.6,245.8l-2.5-2.5c-1.2,1-2.4,1.7-3.8,2.1c-1.3,0.4-2.6,0.4-4,0s-2.6-1.2-3.9-2.5v-0.1l4.3-4.3
					c0.7,0.7,1.3,1.1,1.9,1.3c0.6,0.2,1.2,0.3,1.7,0.1s1-0.5,1.5-0.9c0.4-0.4,0.6-0.8,0.7-1.2c0.1-0.4,0.1-0.8-0.1-1.2
					c-0.1-0.4-0.4-0.8-0.8-1.1c-0.4-0.4-0.8-0.7-1.3-0.9s-0.9-0.2-1.4-0.1c-0.5,0.1-1.2,0.2-1.9,0.5c-1.8,0.8-3.4,1.3-4.7,1.6
					s-2.6,0.3-3.6,0c-1.1-0.3-2.1-1-3.2-2c-1.4-1.4-2.1-3-2-4.9s0.8-3.7,2.2-5.4l-2.6-2.6l2-2l2.7,2.7c1.7-1.3,3.5-1.8,5.4-1.7
					s3.6,1,5.1,2.6l0.1,0.1l-4.3,4.3c-0.9-0.9-1.7-1.4-2.5-1.5s-1.4,0.1-2,0.7c-0.6,0.6-0.8,1.1-0.7,1.8c0.1,0.6,0.4,1.2,1,1.8
					c0.4,0.4,0.7,0.6,1.1,0.8c0.4,0.1,0.8,0.2,1.4,0.1c0.5-0.1,1.2-0.3,1.9-0.5c1.8-0.7,3.4-1.2,4.8-1.5s2.6-0.3,3.7,0
					s2.2,0.9,3.2,1.9c1.4,1.4,2.1,3,2.1,4.8s-0.7,3.5-2.1,5.2l2.5,2.5L757.6,245.8z"/>
				<path class="st1" d="M763.3,234.6l-2.8-2.8l-0.3-12c-0.1-1.1-0.2-2.1-0.3-2.8s-0.3-1.4-0.6-1.9c-0.2-0.5-0.5-1-0.9-1.3
					c-0.6-0.6-1.2-0.9-2-1c-0.7-0.1-1.4,0.2-2,0.8c-0.7,0.7-1,1.4-0.8,2.3c0.2,0.8,0.6,1.6,1.5,2.5l-4.3,4.3h-0.1
					c-1.1-1.1-1.9-2.3-2.3-3.8c-0.4-1.4-0.4-2.9,0.1-4.4c0.4-1.5,1.3-2.9,2.6-4.2s2.6-2.2,4-2.7s2.7-0.6,4.1-0.2
					c1.3,0.3,2.5,1,3.6,2.1c0.7,0.7,1.3,1.6,1.7,2.4c0.4,0.9,0.6,2,0.8,3.3c0.1,1.3,0.2,2.9,0.3,4.9l0.2,5.6h0.1l3.6-3.6l-1.3-1.7
					l3.3-3.3l4.8,4.8L763.3,234.6z"/>
				<path class="st1" d="M784.3,214.2c-2,2-4.1,2.9-6.5,2.8c-2.4-0.1-4.8-1.4-7.2-3.8l-3.8-3.8c-2.4-2.4-3.7-4.9-3.8-7.2
					c-0.1-2.4,0.8-4.6,2.8-6.5c1.9-1.9,4.1-2.8,6.5-2.7s4.8,1.4,7.3,3.8l3.8,3.8c2.4,2.4,3.7,4.9,3.8,7.2
					C787.1,210.1,786.2,212.2,784.3,214.2z M781,210.8c0.6-0.6,0.8-1.4,0.6-2.3c-0.2-0.9-1.1-2.1-2.4-3.5l-4.3-4.3
					c-1.4-1.4-2.5-2.2-3.4-2.4s-1.7,0-2.4,0.6c-0.7,0.7-0.9,1.5-0.6,2.4s1.1,2.1,2.4,3.4l4.3,4.3c1.4,1.4,2.5,2.2,3.5,2.4
					C779.5,211.7,780.3,211.5,781,210.8z"/>
				<path class="st1" d="M798.8,199.6c-2,2-4.1,2.9-6.5,2.8c-2.4-0.1-4.8-1.4-7.2-3.8l-3.8-3.8c-2.4-2.4-3.7-4.9-3.8-7.2
					c-0.1-2.4,0.8-4.6,2.8-6.5c1.9-1.9,4.1-2.8,6.5-2.7s4.8,1.4,7.3,3.8l3.8,3.8c2.4,2.4,3.7,4.9,3.8,7.2S800.8,197.7,798.8,199.6z
					 M795.5,196.3c0.6-0.6,0.8-1.4,0.6-2.3c-0.2-0.9-1.1-2.1-2.4-3.5l-4.3-4.3c-1.4-1.4-2.5-2.2-3.4-2.4s-1.7,0-2.4,0.6
					c-0.7,0.7-0.9,1.5-0.6,2.4c0.2,0.9,1.1,2.1,2.4,3.4l4.3,4.3c1.4,1.4,2.5,2.2,3.5,2.4S794.9,197,795.5,196.3z"/>
			</g>
		</g>
	</g>
	<g>
		<path class="st2" d="M273.9,62.9l175.6,352.3l38.4,77.1l-75.8-36.8L58.7,282.4C104.5,187.7,180,110.6,273.9,62.9L273.9,62.9z"/>
		<g>
			<g>
				<path class="st1" d="M377.5,367.9l-2.5,2.5l-2.3-1.5l-3,3l-4.1,14.6l1.6,2.2l-2.6,2.6l-7.8-7.8l2.6-2.6l1.3,0.9l2.5-7.4l0.3-0.9
					l-0.1-0.1l-0.9,0.3l-7.9,2.1l1.7,2.1l-2.6,2.6l-7.7-7.7l2.6-2.6l2.2,1.7l14.2-3.8l3.4-3.4l-1.5-2.3l2.5-2.5L377.5,367.9z"/>
				<path class="st1" d="M354.8,344.6c1.3,1.3,2.2,2.6,2.8,4.1s0.9,3.1,0.8,4.7s-0.4,3.2-1.1,4.7c-0.7,1.5-1.7,3-3,4.3l-0.3,0.3
					c-1.3,1.3-2.7,2.3-4.2,3c-1.5,0.7-3.1,1.1-4.7,1.1c-1.6,0.1-3.1-0.2-4.7-0.8c-1.5-0.6-2.9-1.5-4.1-2.7c-1.2-1.2-2.1-2.6-2.7-4.1
					c-0.6-1.5-0.9-3.1-0.8-4.7c0-1.6,0.4-3.2,1.1-4.8c0.7-1.5,1.7-3,3-4.3l0.3-0.3c1.3-1.3,2.7-2.3,4.3-3c1.6-0.7,3.1-1,4.8-1.1
					c1.6,0,3.2,0.2,4.7,0.8C352.2,342.5,353.6,343.4,354.8,344.6z M351.5,347.9c-0.9-0.9-1.9-1.4-3.1-1.6c-1.1-0.2-2.3,0-3.5,0.6
					c-1.2,0.5-2.4,1.4-3.6,2.6l-0.3,0.3c-1.2,1.2-2,2.3-2.5,3.6c-0.5,1.2-0.7,2.4-0.6,3.5c0.2,1.1,0.7,2.2,1.6,3.1
					c1,1,2,1.5,3.1,1.7c1.1,0.2,2.2-0.1,3.4-0.7c1.2-0.6,2.3-1.4,3.5-2.6l0.3-0.3c1.2-1.2,2.1-2.4,2.6-3.5c0.6-1.2,0.8-2.3,0.7-3.4
					C353,349.9,352.5,348.9,351.5,347.9z"/>
				<path class="st1" d="M335.7,325.5c1.6,1.6,2.7,3.2,3.3,4.8c0.7,1.7,0.8,3.3,0.5,4.9c-0.3,1.6-1.2,3.1-2.6,4.5l-8.9,8.9l1.5,2.3
					l-2.6,2.6l-8.1-8.1l2.6-2.6l2.3,1.5l8.9-8.9c0.7-0.7,1.2-1.5,1.4-2.2c0.2-0.7,0.2-1.5-0.1-2.2c-0.3-0.7-0.7-1.4-1.4-2.1
					c-0.7-0.7-1.5-1.2-2.2-1.5c-0.7-0.3-1.5-0.3-2.2-0.1c-0.7,0.2-1.5,0.7-2.2,1.4l-8.9,8.9l1.5,2.3l-2.6,2.6l-8.1-8.1l2.6-2.6
					l2.3,1.5l8.9-8.9c1.4-1.4,2.9-2.2,4.5-2.6s3.3-0.2,4.9,0.5C332.5,322.9,334.1,324,335.7,325.5z"/>
				<path class="st1" d="M318.9,309.3l-2.5,2.5l-2.3-1.5l-12.2,12.2l1.5,2.3l-2.6,2.6l-1.9-1.9l-4.4-4.4l-2.3-2.3l2.6-2.6l2.7,1.9
					l11.8-11.8L305,302l-2.6,2.4l-3.3-3.3l5.9-5.9L318.9,309.3z"/>
				<path class="st1" d="M295.5,285.3c1.3,1.3,2.2,2.6,2.8,4.1s0.9,3.1,0.8,4.7s-0.4,3.2-1.1,4.7s-1.7,3-3,4.3l-0.3,0.3
					c-1.3,1.3-2.7,2.3-4.2,3s-3.1,1.1-4.7,1.1c-1.6,0.1-3.1-0.2-4.7-0.8c-1.5-0.6-2.9-1.5-4.1-2.7s-2.1-2.6-2.7-4.1
					s-0.9-3.1-0.8-4.7c0-1.6,0.4-3.2,1.1-4.8c0.7-1.5,1.7-3,3-4.3l0.3-0.3c1.3-1.3,2.7-2.3,4.3-3c1.6-0.7,3.1-1,4.8-1.1
					s3.2,0.2,4.7,0.8C292.9,283.2,294.3,284.1,295.5,285.3z M292.2,288.6c-0.9-0.9-1.9-1.4-3.1-1.6s-2.3,0-3.5,0.6
					c-1.2,0.5-2.4,1.4-3.6,2.6l-0.3,0.3c-1.2,1.2-2,2.3-2.5,3.6c-0.5,1.2-0.7,2.4-0.6,3.5c0.2,1.1,0.7,2.2,1.6,3.1
					c1,1,2,1.5,3.1,1.7c1.1,0.1,2.2-0.1,3.4-0.7c1.2-0.6,2.3-1.4,3.5-2.6l0.3-0.3c1.2-1.2,2.1-2.4,2.6-3.5c0.6-1.2,0.8-2.3,0.7-3.4
					C293.7,290.6,293.2,289.6,292.2,288.6z"/>
				<path class="st1" d="M277.7,267.6c1.5,1.5,2.6,2.9,3.5,4.3s1.5,3.1,1.8,5l-4.7,4.7l-3.4-3.4l2-2.8c0-0.6-0.2-1.3-0.7-2.2
					c-0.5-0.9-1.1-1.7-1.9-2.5c-0.6-0.6-1.1-1-1.6-1.2s-1-0.3-1.4-0.2c-0.5,0.1-0.9,0.3-1.2,0.7c-0.4,0.4-0.6,0.8-0.7,1.2
					c-0.1,0.5-0.1,1,0.1,1.7s0.4,1.5,0.9,2.4c1.1,2,1.8,3.8,2.3,5.3s0.6,2.9,0.4,4c-0.2,1.2-0.9,2.3-1.9,3.3s-2.2,1.6-3.5,1.8
					c-1.3,0.2-2.7,0-4.1-0.6s-2.8-1.5-4.1-2.8c-1.5-1.4-2.7-2.9-3.5-4.4s-1.3-3-1.5-4.5l4.4-4.4l3.2,3.2l-1.9,2.9
					c0.1,0.4,0.4,1,0.8,1.6s0.9,1.3,1.5,1.8c0.5,0.5,1,0.9,1.5,1.1c0.5,0.3,1,0.4,1.5,0.3c0.5,0,0.9-0.3,1.3-0.7
					c0.3-0.3,0.5-0.7,0.6-1.1s0-1-0.2-1.8c-0.2-0.7-0.6-1.7-1.1-2.9c-1.4-2.7-2.3-5-2.4-6.9c-0.2-2,0.5-3.7,2.1-5.3
					c1.1-1.1,2.3-1.7,3.6-1.9s2.7,0.1,4.1,0.7S276.4,266.2,277.7,267.6z"/>
				<path class="st1" d="M269.6,259.9l-2.5,2.5l-2.3-1.5l-12.2,12.2l1.5,2.3l-2.6,2.6L237,263.5l5.2-5.2l3.3,3.3l-1.8,2l4.8,4.8
					l3.7-3.7l-5.8-5.8l3.3-3.3l5.8,5.8l4.3-4.3l-5.1-5.1l-2.1,1.9l-3.3-3.3l5.3-5.3L269.6,259.9z"/>
				<path class="st1" d="M244.2,229.1l-2.5,2.5c1,1.2,1.7,2.4,2.1,3.8c0.4,1.3,0.4,2.6,0,4c-0.4,1.3-1.2,2.6-2.5,3.9h-0.1l-4.3-4.3
					c0.7-0.7,1.1-1.3,1.3-1.9c0.2-0.6,0.3-1.2,0.1-1.7c-0.2-0.5-0.5-1-0.9-1.5c-0.4-0.4-0.8-0.6-1.2-0.7c-0.4-0.1-0.8-0.1-1.2,0.1
					c-0.4,0.1-0.8,0.4-1.1,0.8c-0.4,0.4-0.7,0.8-0.9,1.3s-0.2,0.9-0.1,1.4s0.2,1.2,0.5,1.9c0.8,1.8,1.3,3.4,1.6,4.7
					c0.3,1.3,0.3,2.6,0,3.6c-0.3,1.1-1,2.1-2,3.2c-1.4,1.4-3,2.1-4.9,2c-1.9,0-3.7-0.8-5.4-2.2l-2.6,2.6l-2-2l2.7-2.7
					c-1.3-1.7-1.8-3.5-1.7-5.4c0.1-1.9,1-3.6,2.6-5.1l0.1-0.1l4.3,4.3c-0.9,0.9-1.4,1.7-1.5,2.5s0.1,1.4,0.7,2s1.1,0.8,1.8,0.7
					c0.6-0.1,1.2-0.4,1.8-1c0.4-0.4,0.6-0.7,0.8-1.1c0.1-0.4,0.2-0.8,0.1-1.4c-0.1-0.5-0.3-1.2-0.5-1.9c-0.7-1.8-1.2-3.4-1.5-4.8
					s-0.3-2.6,0-3.7s0.9-2.2,1.9-3.2c1.4-1.4,3-2.1,4.8-2.1s3.5,0.7,5.2,2.1l2.5-2.5L244.2,229.1z"/>
				<path class="st1" d="M233.5,223.9l-2.5,2.5l-3.6-2.8L216,235l3.2,3.3l-2.4,2.4l-8.9-6.3l15.2-15.2l-2.8-3.6l2.5-2.5L233.5,223.9
					z"/>
				<path class="st1" d="M215.4,205.2c1.2,1.2,2,2.4,2.6,3.9c0.6,1.4,0.7,2.8,0.5,4.2s-0.8,2.6-1.9,3.6h-0.1l-4.6-4
					c0.7-0.7,1-1.4,1.1-2.2c0-0.8-0.3-1.5-0.9-2.1c-0.7-0.7-1.5-1-2.3-0.8s-1.6,0.7-2.4,1.5c-1,1-1.6,1.9-1.8,2.8
					c-0.2,0.9,0,1.7,0.8,2.5c0.5,0.5,1.1,0.8,1.6,0.9c0.6,0.1,1.1,0,1.6-0.2l3.7,4.2l-11.2,9.1l-11-11l4.5-4.5l2.5,2.5l-0.7,1.5
					l4.5,4.5l4.1-3.1c-0.4-0.1-0.7-0.2-1.1-0.4s-0.8-0.4-1.2-0.7c-0.4-0.3-0.8-0.6-1.1-0.9c-1.2-1.2-2-2.4-2.4-3.7
					c-0.4-1.3-0.3-2.6,0.2-3.9s1.4-2.7,2.7-4c1.1-1.1,2.4-1.9,3.8-2.3s2.9-0.5,4.4,0C212.6,203,214.1,203.9,215.4,205.2z"/>
				<path class="st1" d="M201.4,191.2c2,2,2.9,4.1,2.8,6.5s-1.4,4.8-3.8,7.2l-3.8,3.8c-2.4,2.4-4.9,3.7-7.2,3.8
					c-2.4,0.1-4.6-0.8-6.5-2.8c-1.9-1.9-2.8-4.1-2.7-6.5c0.1-2.4,1.4-4.8,3.8-7.3l3.8-3.8c2.4-2.4,4.9-3.7,7.2-3.8
					C197.3,188.3,199.4,189.3,201.4,191.2z M198,194.5c-0.6-0.6-1.4-0.8-2.3-0.6c-0.9,0.2-2.1,1.1-3.5,2.4l-4.3,4.3
					c-1.4,1.4-2.2,2.5-2.4,3.4c-0.2,0.9,0,1.7,0.6,2.4c0.7,0.7,1.5,0.9,2.4,0.6c0.9-0.2,2.1-1,3.4-2.4l4.3-4.3
					c1.4-1.4,2.2-2.5,2.4-3.5S198.7,195.2,198,194.5z"/>
			</g>
		</g>
	</g>
	<g>
		<path class="st2" d="M488,496.4l-35,70.3L277.3,918.9c-93-46.4-168.5-121.6-215.2-214.5l353.7-172.8L488,496.4z"/>
		<g>
			<g>
				<path class="st1" d="M358.9,607.8l2.5,2.5l-1.5,2.3l3,3l14.6,4.1l2.2-1.6l2.6,2.6l-7.8,7.8l-2.6-2.6l0.9-1.3l-7.4-2.5l-0.9-0.3
					l-0.1,0.1l0.3,0.9l2.1,7.9l2.1-1.7l2.6,2.6l-7.7,7.7l-2.6-2.6l1.7-2.2l-3.8-14.2l-3.4-3.4l-2.3,1.5l-2.5-2.5L358.9,607.8z"/>
				<path class="st1" d="M335.6,630.5c1.3-1.3,2.6-2.2,4.1-2.8s3.1-0.9,4.7-0.8c1.6,0.1,3.2,0.4,4.7,1.1c1.5,0.7,3,1.7,4.3,3
					l0.3,0.3c1.3,1.3,2.3,2.7,3,4.2s1.1,3.1,1.1,4.7c0.1,1.6-0.2,3.1-0.8,4.7s-1.5,2.9-2.7,4.1c-1.2,1.2-2.6,2.1-4.1,2.7
					c-1.5,0.6-3.1,0.9-4.7,0.8c-1.6,0-3.2-0.4-4.8-1.1c-1.5-0.7-3-1.7-4.3-3l-0.3-0.3c-1.3-1.3-2.3-2.7-3-4.3s-1-3.1-1.1-4.8
					c0-1.6,0.2-3.2,0.8-4.7C333.5,633.1,334.4,631.7,335.6,630.5z M338.9,633.8c-0.9,0.9-1.4,1.9-1.6,3.1c-0.2,1.1,0,2.3,0.6,3.5
					c0.5,1.2,1.4,2.4,2.6,3.6l0.3,0.3c1.2,1.2,2.3,2,3.6,2.5c1.2,0.5,2.4,0.7,3.5,0.6c1.1-0.2,2.2-0.7,3.1-1.6c1-1,1.5-2,1.7-3.1
					s-0.1-2.2-0.7-3.4s-1.4-2.3-2.6-3.5l-0.3-0.3c-1.2-1.2-2.4-2.1-3.5-2.6c-1.2-0.6-2.3-0.8-3.4-0.7S339.9,632.9,338.9,633.8z"/>
				<path class="st1" d="M316.5,649.7c1.6-1.6,3.2-2.7,4.8-3.3c1.7-0.7,3.3-0.8,4.9-0.5s3.1,1.2,4.5,2.6l8.9,8.9l2.3-1.5l2.6,2.6
					l-8.1,8.1l-2.6-2.6l1.5-2.3l-8.9-8.9c-0.7-0.7-1.5-1.2-2.2-1.4s-1.5-0.2-2.2,0.1s-1.4,0.7-2.1,1.4s-1.2,1.5-1.5,2.2
					s-0.3,1.5-0.1,2.2c0.2,0.7,0.7,1.5,1.4,2.2l8.9,8.9l2.3-1.5l2.6,2.6l-8.1,8.1l-2.6-2.6l1.5-2.3l-8.9-8.9
					c-1.4-1.4-2.2-2.9-2.6-4.5c-0.3-1.6-0.2-3.3,0.5-4.9C313.8,652.8,314.9,651.2,316.5,649.7z"/>
				<path class="st1" d="M300.3,666.4l2.5,2.5l-1.5,2.3l12.2,12.2l2.3-1.5l2.6,2.6l-1.9,1.9l-4.4,4.4l-2.3,2.3l-2.6-2.6l1.9-2.7
					L297.4,676l-4.3,4.3l2.4,2.6l-3.3,3.3l-5.9-5.9L300.3,666.4z"/>
				<path class="st1" d="M276.3,689.8c1.3-1.3,2.6-2.2,4.1-2.8s3.1-0.9,4.7-0.8c1.6,0.1,3.2,0.4,4.7,1.1s3,1.7,4.3,3l0.3,0.3
					c1.3,1.3,2.3,2.7,3,4.2s1.1,3.1,1.1,4.7c0.1,1.6-0.2,3.1-0.8,4.7c-0.6,1.5-1.5,2.9-2.7,4.1c-1.2,1.2-2.6,2.1-4.1,2.7
					c-1.5,0.6-3.1,0.9-4.7,0.8s-3.2-0.4-4.8-1.1c-1.5-0.7-3-1.7-4.3-3l-0.3-0.3c-1.3-1.3-2.3-2.7-3-4.3s-1-3.1-1.1-4.8
					c0-1.6,0.2-3.2,0.8-4.7C274.2,692.4,275.1,691,276.3,689.8z M279.6,693.1c-0.9,0.9-1.4,1.9-1.6,3.1c-0.2,1.1,0,2.3,0.6,3.5
					c0.5,1.2,1.4,2.4,2.6,3.6l0.3,0.3c1.2,1.2,2.3,2,3.6,2.5c1.2,0.5,2.4,0.7,3.5,0.6c1.1-0.2,2.2-0.7,3.1-1.6c1-1,1.5-2,1.7-3.1
					s-0.1-2.2-0.7-3.4s-1.4-2.3-2.6-3.5l-0.3-0.3c-1.2-1.2-2.4-2.1-3.5-2.6s-2.3-0.8-3.4-0.7C281.6,691.6,280.6,692.2,279.6,693.1z"
					/>
				<path class="st1" d="M258.5,707.6c1.5-1.5,2.9-2.6,4.3-3.5s3.1-1.5,5-1.8l4.7,4.7l-3.4,3.4l-2.8-2c-0.6,0-1.3,0.2-2.2,0.7
					c-0.9,0.5-1.7,1.1-2.5,1.9c-0.6,0.6-1,1.1-1.2,1.6s-0.3,1-0.2,1.4c0.1,0.5,0.3,0.9,0.7,1.2c0.4,0.4,0.8,0.6,1.2,0.7
					s1,0.1,1.7-0.1c0.7-0.2,1.5-0.4,2.4-0.9c2-1.1,3.8-1.8,5.3-2.3s2.9-0.6,4-0.4s2.3,0.9,3.3,1.9s1.6,2.2,1.8,3.5
					c0.2,1.3,0,2.7-0.6,4.1c-0.6,1.4-1.5,2.8-2.8,4.1c-1.4,1.5-2.9,2.7-4.4,3.5s-3,1.3-4.5,1.5l-4.4-4.4l3.2-3.2l2.9,1.9
					c0.4-0.1,1-0.4,1.6-0.8c0.6-0.4,1.3-0.9,1.8-1.5c0.5-0.5,0.9-1,1.2-1.5c0.3-0.5,0.4-1,0.3-1.5c0-0.5-0.3-0.9-0.7-1.3
					c-0.3-0.3-0.7-0.5-1.1-0.6s-1,0-1.8,0.2s-1.7,0.6-2.9,1.1c-2.7,1.5-5,2.3-6.9,2.4c-2,0.2-3.7-0.5-5.3-2.1
					c-1.1-1.1-1.7-2.3-1.9-3.6s0.1-2.7,0.7-4.1C256.1,710.4,257.2,709,258.5,707.6z"/>
				<path class="st1" d="M250.9,715.7l2.5,2.5l-1.5,2.3l12.2,12.2l2.3-1.5l2.6,2.6l-14.5,14.5l-5.2-5.2l3.3-3.3l2,1.8l4.8-4.8
					l-3.7-3.7l-5.8,5.8l-3.3-3.3l5.8-5.8l-4.3-4.3l-5.1,5.1l1.9,2.1l-3.3,3.3l-5.3-5.3L250.9,715.7z"/>
				<path class="st1" d="M220.1,741.1l2.5,2.5c1.2-1,2.4-1.7,3.8-2.1c1.3-0.4,2.6-0.4,4,0c1.3,0.4,2.6,1.2,3.9,2.5v0.1l-4.3,4.3
					c-0.7-0.7-1.3-1.1-1.9-1.3s-1.2-0.3-1.7-0.1s-1,0.5-1.5,0.9c-0.4,0.4-0.6,0.8-0.7,1.2c-0.1,0.4-0.1,0.8,0.1,1.2
					c0.2,0.4,0.4,0.8,0.8,1.1c0.4,0.4,0.8,0.7,1.3,0.9c0.4,0.2,0.9,0.2,1.4,0.1c0.5-0.1,1.2-0.2,1.9-0.5c1.8-0.8,3.4-1.3,4.7-1.6
					s2.6-0.3,3.6,0c1.1,0.3,2.1,1,3.2,2c1.4,1.4,2.1,3,2,4.9c0,1.9-0.8,3.7-2.2,5.4l2.6,2.6l-2,2l-2.7-2.7c-1.7,1.3-3.5,1.8-5.4,1.7
					s-3.6-1-5.1-2.6l-0.1-0.1l4.3-4.3c0.9,0.9,1.7,1.4,2.5,1.5s1.4-0.1,2-0.7c0.6-0.6,0.8-1.1,0.7-1.8s-0.4-1.2-1-1.8
					c-0.4-0.4-0.7-0.6-1.1-0.8c-0.4-0.1-0.8-0.2-1.4-0.1c-0.5,0.1-1.2,0.3-1.9,0.5c-1.8,0.7-3.4,1.2-4.8,1.5c-1.4,0.3-2.6,0.3-3.7,0
					s-2.2-0.9-3.2-1.9c-1.4-1.4-2.1-3-2.1-4.8s0.7-3.5,2.1-5.2l-2.5-2.5L220.1,741.1z"/>
				<path class="st1" d="M214.8,751.8l2.5,2.5l-2.8,3.6l11.4,11.4l3.3-3.2l2.4,2.4l-6.3,8.9l-15.2-15.2l-3.6,2.8l-2.5-2.5
					L214.8,751.8z"/>
				<path class="st1" d="M196.2,769.9c1.2-1.2,2.4-2,3.9-2.6c1.4-0.6,2.8-0.7,4.2-0.5s2.6,0.8,3.6,1.9v0.1l-4,4.6
					c-0.7-0.7-1.4-1-2.2-1.1c-0.8,0-1.5,0.3-2.1,0.9c-0.7,0.7-1,1.5-0.8,2.3s0.7,1.6,1.5,2.4c1,1,1.9,1.6,2.8,1.8
					c0.9,0.2,1.7,0,2.5-0.8c0.5-0.5,0.8-1.1,0.9-1.6c0.1-0.6,0-1.1-0.2-1.6l4.2-3.7l9.1,11.2l-11,11l-4.5-4.5l2.5-2.5l1.5,0.7
					l4.5-4.5l-3.1-4.1c-0.1,0.4-0.2,0.7-0.4,1.1c-0.2,0.4-0.4,0.8-0.7,1.2s-0.6,0.8-0.9,1.1c-1.2,1.2-2.4,2-3.7,2.4
					s-2.6,0.3-3.9-0.2c-1.3-0.5-2.7-1.4-4-2.7c-1.1-1.1-1.9-2.4-2.3-3.8c-0.4-1.4-0.5-2.9,0-4.4C194,772.7,194.9,771.3,196.2,769.9z
					"/>
			</g>
		</g>
	</g>
	<g>
		<path class="st2" d="M917.1,706.1c-47.7,93.8-124.8,169.4-219.5,215.2L524.7,567.8l-35.3-72.3l-0.6-1.3l-1-2l1.6,0.8l2.5,1.3
			l72.9,36.3L917.1,706.1z"/>
		<g>
			<g>
				<path class="st1" d="M593.4,620.9l2.5-2.5l2.3,1.5l3-3l4.1-14.6l-1.6-2.2l2.6-2.6l7.8,7.8l-2.6,2.6l-1.3-0.9l-2.5,7.4l-0.3,0.9
					l0.1,0.1l0.9-0.3l7.9-2.1l-1.7-2.1l2.6-2.6l7.7,7.7l-2.6,2.6l-2.2-1.7l-14.2,3.8l-3.4,3.4l1.5,2.3l-2.5,2.5L593.4,620.9z"/>
				<path class="st1" d="M616.1,644.1c-1.3-1.3-2.2-2.6-2.8-4.1s-0.9-3.1-0.8-4.7c0.1-1.6,0.4-3.2,1.1-4.7c0.7-1.5,1.7-3,3-4.3
					l0.3-0.3c1.3-1.3,2.7-2.3,4.2-3s3.1-1.1,4.7-1.1c1.6-0.1,3.1,0.2,4.7,0.8c1.5,0.6,2.9,1.5,4.1,2.7c1.2,1.2,2.1,2.6,2.7,4.1
					c0.6,1.5,0.9,3.1,0.8,4.7c0,1.6-0.4,3.2-1.1,4.8c-0.7,1.6-1.7,3-3,4.3l-0.3,0.3c-1.3,1.3-2.7,2.3-4.3,3s-3.1,1-4.8,1.1
					c-1.6,0-3.2-0.2-4.7-0.8C618.7,646.2,617.3,645.3,616.1,644.1z M619.4,640.8c0.9,0.9,1.9,1.4,3.1,1.6c1.1,0.2,2.3,0,3.5-0.6
					c1.2-0.5,2.4-1.4,3.6-2.6l0.3-0.3c1.2-1.2,2-2.3,2.5-3.6c0.5-1.2,0.7-2.4,0.6-3.5c-0.2-1.1-0.7-2.2-1.6-3.1c-1-1-2-1.5-3.1-1.7
					c-1.1-0.1-2.2,0.1-3.4,0.7c-1.2,0.6-2.3,1.4-3.5,2.6l-0.3,0.3c-1.2,1.2-2.1,2.4-2.6,3.5c-0.6,1.2-0.8,2.3-0.7,3.4
					C617.9,638.8,618.4,639.8,619.4,640.8z"/>
				<path class="st1" d="M635.3,663.3c-1.6-1.6-2.7-3.2-3.3-4.8c-0.7-1.7-0.8-3.3-0.5-4.9c0.3-1.6,1.2-3.1,2.6-4.5l8.9-8.9l-1.5-2.3
					l2.6-2.6l8.1,8.1l-2.6,2.6l-2.3-1.5l-8.9,8.9c-0.7,0.7-1.2,1.5-1.4,2.2s-0.2,1.5,0.1,2.2s0.7,1.4,1.4,2.1
					c0.7,0.7,1.5,1.2,2.2,1.5s1.5,0.3,2.2,0.1s1.5-0.7,2.2-1.4l8.9-8.9l-1.5-2.3l2.6-2.6l8.1,8.1l-2.6,2.6l-2.3-1.5l-8.9,8.9
					c-1.4,1.4-2.9,2.2-4.5,2.6c-1.6,0.3-3.3,0.2-4.9-0.5C638.4,665.9,636.8,664.8,635.3,663.3z"/>
				<path class="st1" d="M652,679.5l2.5-2.5l2.3,1.5l12.2-12.2l-1.5-2.3l2.6-2.6l1.9,1.9l4.4,4.4l2.3,2.3l-2.6,2.6l-2.7-1.9
					l-11.8,11.8l4.3,4.3l2.6-2.4l3.3,3.3l-5.9,5.9L652,679.5z"/>
				<path class="st1" d="M675.4,703.4c-1.3-1.3-2.2-2.6-2.8-4.1s-0.9-3.1-0.8-4.7c0.1-1.6,0.4-3.2,1.1-4.7c0.7-1.5,1.7-3,3-4.3
					l0.3-0.3c1.3-1.3,2.7-2.3,4.2-3s3.1-1.1,4.7-1.1c1.6-0.1,3.1,0.2,4.7,0.8s2.9,1.5,4.1,2.7c1.2,1.2,2.1,2.6,2.7,4.1
					c0.6,1.5,0.9,3.1,0.8,4.7s-0.4,3.2-1.1,4.8c-0.7,1.6-1.7,3-3,4.3l-0.3,0.3c-1.3,1.3-2.7,2.3-4.3,3s-3.1,1-4.8,1.1
					c-1.6,0-3.2-0.2-4.7-0.8C678,705.5,676.6,704.6,675.4,703.4z M678.7,700.1c0.9,0.9,1.9,1.4,3.1,1.6s2.3,0,3.5-0.6
					c1.2-0.5,2.4-1.4,3.6-2.6l0.3-0.3c1.2-1.2,2-2.3,2.5-3.6c0.5-1.2,0.7-2.4,0.6-3.5c-0.2-1.1-0.7-2.2-1.6-3.1c-1-1-2-1.5-3.1-1.7
					c-1.1-0.1-2.2,0.1-3.4,0.7c-1.2,0.6-2.3,1.4-3.5,2.6l-0.3,0.3c-1.2,1.2-2.1,2.4-2.6,3.5s-0.8,2.3-0.7,3.4
					C677.2,698.1,677.8,699.2,678.7,700.1z"/>
				<path class="st1" d="M693.2,721.2c-1.5-1.5-2.6-2.9-3.5-4.4c-0.9-1.4-1.5-3.1-1.8-5l4.7-4.7l3.4,3.4l-2,2.8
					c0,0.6,0.2,1.3,0.7,2.2s1.1,1.7,1.9,2.5c0.6,0.6,1.1,1,1.6,1.2s1,0.3,1.4,0.2c0.5-0.1,0.9-0.3,1.2-0.7c0.4-0.4,0.6-0.8,0.7-1.2
					c0.1-0.5,0.1-1-0.1-1.7s-0.4-1.5-0.9-2.4c-1.1-2-1.8-3.8-2.3-5.3s-0.6-2.9-0.4-4c0.2-1.2,0.9-2.3,1.9-3.3s2.2-1.6,3.5-1.8
					s2.7,0,4.1,0.6s2.8,1.5,4.1,2.8c1.5,1.4,2.7,2.9,3.5,4.4s1.3,3,1.5,4.5l-4.4,4.4l-3.2-3.2l1.9-2.9c-0.1-0.4-0.4-1-0.8-1.6
					c-0.4-0.6-0.9-1.3-1.5-1.8c-0.5-0.5-1-0.9-1.5-1.2s-1-0.4-1.5-0.3s-0.9,0.3-1.3,0.7c-0.3,0.3-0.5,0.7-0.6,1.2s0,1,0.2,1.8
					c0.2,0.7,0.6,1.7,1.1,2.9c1.5,2.7,2.3,5,2.4,6.9c0.2,2-0.5,3.7-2.1,5.3c-1.1,1.1-2.3,1.7-3.6,1.9s-2.7-0.1-4.1-0.7
					C695.9,723.6,694.5,722.6,693.2,721.2z"/>
				<path class="st1" d="M701.3,728.8l2.5-2.5l2.3,1.5l12.2-12.2l-1.5-2.3l2.6-2.6l14.5,14.5l-5.2,5.2l-3.3-3.3l1.8-2l-4.8-4.8
					l-3.7,3.7l5.8,5.8l-3.3,3.3l-5.8-5.8l-4.3,4.3l5.1,5.1l2.1-1.9l3.3,3.3l-5.3,5.3L701.3,728.8z"/>
				<path class="st1" d="M726.7,759.6l2.5-2.5c-1-1.2-1.7-2.4-2.1-3.8c-0.4-1.3-0.4-2.6,0-4c0.4-1.3,1.2-2.6,2.5-3.9h0.1l4.3,4.3
					c-0.7,0.7-1.1,1.3-1.3,1.9c-0.2,0.6-0.3,1.2-0.1,1.7s0.5,1,0.9,1.5c0.4,0.4,0.8,0.6,1.2,0.7s0.8,0.1,1.2-0.1
					c0.4-0.1,0.8-0.4,1.1-0.8c0.4-0.4,0.7-0.8,0.9-1.3c0.2-0.4,0.2-0.9,0.1-1.4s-0.2-1.2-0.5-1.9c-0.8-1.8-1.3-3.4-1.6-4.7
					s-0.3-2.6,0-3.6s1-2.1,2-3.2c1.4-1.4,3-2.1,4.9-2c1.9,0,3.7,0.8,5.4,2.2l2.6-2.6l2,2l-2.7,2.7c1.3,1.7,1.8,3.5,1.7,5.4
					s-1,3.6-2.6,5.1l-0.1,0.1l-4.3-4.3c0.9-0.9,1.4-1.7,1.5-2.5s-0.1-1.4-0.7-2c-0.6-0.6-1.1-0.8-1.8-0.7c-0.6,0.1-1.2,0.4-1.8,1
					c-0.4,0.4-0.6,0.7-0.8,1.1c-0.1,0.4-0.2,0.8-0.1,1.4s0.3,1.2,0.5,1.9c0.7,1.8,1.2,3.4,1.5,4.8s0.3,2.6,0,3.7s-0.9,2.2-1.9,3.2
					c-1.4,1.4-3,2.1-4.8,2.1s-3.5-0.7-5.2-2.1l-2.5,2.5L726.7,759.6z"/>
				<path class="st1" d="M743.8,771.8c-1.2-1.2-2-2.4-2.6-3.9c-0.6-1.4-0.7-2.8-0.5-4.2s0.8-2.6,1.9-3.6h0.1l4.6,4
					c-0.7,0.7-1,1.4-1.1,2.2s0.3,1.5,0.9,2.1c0.7,0.7,1.5,1,2.3,0.8s1.6-0.7,2.4-1.5c1-1,1.6-1.9,1.8-2.8c0.2-0.9,0-1.7-0.8-2.5
					c-0.5-0.5-1.1-0.8-1.6-0.9c-0.6-0.1-1.1,0-1.6,0.2l-3.7-4.2l11.2-9.1l11,10.9l-4.5,4.5l-2.5-2.5l0.7-1.5l-4.5-4.5l-4.1,3.1
					c0.4,0.1,0.7,0.2,1.1,0.4c0.4,0.2,0.8,0.4,1.2,0.7s0.8,0.6,1.1,0.9c1.2,1.2,2,2.4,2.4,3.7s0.3,2.6-0.2,3.9
					c-0.5,1.3-1.4,2.7-2.7,4c-1.1,1.1-2.4,1.9-3.8,2.3c-1.4,0.4-2.9,0.5-4.4,0.1S745.1,773.1,743.8,771.8z"/>
				<path class="st1" d="M757.8,785.8c-2-2-2.9-4.1-2.8-6.5c0.1-2.4,1.4-4.8,3.8-7.2l3.8-3.8c2.4-2.4,4.9-3.7,7.2-3.8
					s4.6,0.8,6.5,2.8c1.9,1.9,2.8,4.1,2.7,6.5s-1.4,4.8-3.8,7.3l-3.8,3.8c-2.4,2.4-4.9,3.7-7.2,3.8
					C761.9,788.7,759.7,787.8,757.8,785.8z M761.1,782.5c0.6,0.6,1.4,0.8,2.3,0.6c0.9-0.2,2.1-1.1,3.5-2.4l4.3-4.3
					c1.4-1.4,2.2-2.5,2.4-3.4s0-1.7-0.6-2.4c-0.7-0.7-1.5-0.9-2.4-0.6s-2.1,1.1-3.4,2.4l-4.3,4.3c-1.4,1.4-2.2,2.5-2.4,3.5
					S760.5,781.8,761.1,782.5z"/>
			</g>
		</g>
	</g>
	<g>
		<path class="st1" d="M920.5,280.6c32.2,66.4,48.7,139.3,48.1,213.1c-0.6,73.8-18.2,146.5-51.5,212.4L564.8,530.5
			c6.1-11.3,9.6-23.9,10.2-36.8c0.6-12.9-1.8-25.7-6.9-37.5L920.5,280.6z"/>
		<g>
			<g>
				<path d="M665.7,499.7v-3.6l2.7-0.6v-4.3L661,478l-2.7-0.4V474h11.1v3.6l-1.6,0.3l3.5,7l0.4,0.9h0.2l0.4-0.8l4.1-7.1l-2.7-0.3
					V474h10.9v3.6l-2.7,0.4l-7.3,12.7v4.8l2.7,0.6v3.6H665.7z"/>
				<path d="M698.2,500.1c-1.8,0-3.4-0.3-4.9-1s-2.8-1.6-3.9-2.7s-1.9-2.5-2.5-4.1s-0.9-3.3-0.9-5.1v-0.4c0-1.8,0.3-3.5,0.9-5.1
					s1.4-2.9,2.5-4.1s2.4-2.1,3.8-2.7s3.1-1,4.9-1c1.7,0,3.3,0.3,4.8,1s2.8,1.6,3.9,2.7s2,2.5,2.6,4.1s0.9,3.3,0.9,5.1v0.4
					c0,1.9-0.3,3.6-0.9,5.1s-1.5,3-2.6,4.1s-2.4,2.1-3.9,2.7S699.9,500.1,698.2,500.1z M698.2,495.4c1.3,0,2.4-0.3,3.3-1
					s1.6-1.7,2.1-2.9s0.7-2.7,0.7-4.4v-0.4c0-1.6-0.2-3.1-0.7-4.3s-1.2-2.2-2.1-2.9s-2-1-3.3-1c-1.4,0-2.5,0.3-3.4,1
					s-1.5,1.6-1.9,2.9s-0.6,2.7-0.6,4.3v0.4c0,1.7,0.2,3.1,0.6,4.4s1.1,2.2,2,2.9S696.8,495.4,698.2,495.4z"/>
				<path d="M725.3,500.1c-2.2,0-4.1-0.4-5.8-1.1s-2.9-1.7-3.8-3.1s-1.3-3-1.3-5v-12.6l-2.6-0.6v-3.6h11.5v3.6l-2.7,0.6v12.6
					c0,1,0.2,1.9,0.5,2.6s0.9,1.2,1.6,1.5s1.5,0.5,2.5,0.5s1.9-0.2,2.6-0.5s1.2-0.8,1.6-1.5s0.5-1.5,0.5-2.6v-12.6l-2.6-0.6v-3.6
					h11.5v3.6l-2.7,0.6v12.6c0,1.9-0.5,3.6-1.4,5s-2.2,2.4-3.8,3.1S727.4,500.1,725.3,500.1z"/>
				<path d="M756.8,499.7l-5.9-21.7l-2.9-0.3v-3.6h11.5v3.6l-2.8,0.4l2.8,11.4l0.4,1.7h0.1l0.4-1.7l5-15.5h4.3l5.3,16.2l0.4,1.1h0.1
					l0.3-1.1l3-12.1l-2.9-0.4v-3.6h11.3v3.6l-2.7,0.3l-6.2,21.7h-5.5l-4.4-13.2l-0.5-1.8h-0.1l-0.7,1.9l-4.5,13.1H756.8z"/>
				<path d="M788,499.7v-3.6l2.7-0.6v-17.2l-2.7-0.6v-3.6h11.5v3.6l-2.7,0.6v17.2l2.7,0.6v3.6H788z"/>
				<path d="M800.9,499.7v-3.6l2.6-0.6v-17.2l-2.6-0.6v-3.6h2.6h6.3l10.3,16.4h0.1v-12.2l-3.4-0.6v-3.6h8.8h2.7v3.6l-2.7,0.6v21.4
					h-6.1l-10.5-16l0,0v11.9l3.4,0.6v3.6L800.9,499.7L800.9,499.7z"/>
				<path d="M845.9,503.5V500c-1.5-0.2-2.9-0.6-4.1-1.2s-2.2-1.6-2.8-2.8s-1-2.7-1-4.5v-0.1h6c0,0.9,0.1,1.7,0.4,2.3s0.7,1,1.2,1.3
					s1.1,0.4,1.7,0.4c0.5,0,1-0.1,1.3-0.3s0.6-0.5,0.8-0.9s0.3-0.8,0.3-1.3c0-0.6-0.1-1.1-0.3-1.5s-0.5-0.8-0.9-1.1
					c-0.4-0.3-1-0.6-1.7-1c-1.8-0.7-3.3-1.5-4.5-2.2s-2-1.6-2.6-2.5s-0.8-2.2-0.8-3.7c0-2,0.7-3.6,2-4.9s3.1-2,5.4-2.2v-3.7h2.8v3.8
					c2.1,0.3,3.8,1.2,5,2.6s1.8,3.2,1.8,5.4l0.1,0.1h-6.1c0-1.3-0.2-2.2-0.7-2.8s-1.1-0.9-1.9-0.9c-0.8,0-1.4,0.2-1.7,0.7
					s-0.6,1.1-0.6,1.9c0,0.5,0.1,1,0.3,1.3s0.5,0.7,0.9,1s1,0.6,1.7,1c1.8,0.8,3.3,1.6,4.5,2.3s2.1,1.6,2.6,2.6
					c0.6,1,0.9,2.2,0.9,3.6c0,2-0.6,3.7-1.9,4.9s-3,2-5.2,2.2v3.6h-2.9V503.5z"/>
				<path d="M857.2,499.7v-3.6l4.6-0.6v-16.2l-4.6-0.1v-3.4l10.7-1.8v21.4l4.6,0.6v3.6h-15.3V499.7z"/>
				<path d="M883.7,500.1c-2.8,0-5-0.9-6.6-2.6s-2.4-4.4-2.4-7.8v-5.4c0-3.4,0.8-6.1,2.4-7.8s3.8-2.7,6.6-2.7c2.7,0,4.9,0.9,6.5,2.7
					s2.4,4.4,2.4,7.8v5.4c0,3.5-0.8,6.1-2.4,7.8S886.5,500.1,883.7,500.1z M883.7,495.4c0.9,0,1.6-0.4,2.1-1.2s0.7-2.2,0.7-4.2v-6.1
					c0-1.9-0.2-3.3-0.7-4.1s-1.2-1.2-2.1-1.2c-0.9,0-1.6,0.4-2.1,1.2s-0.7,2.2-0.7,4.1v6.1c0,2,0.2,3.4,0.7,4.2
					S882.8,495.4,883.7,495.4z"/>
				<path d="M904.3,500.1c-2.8,0-5-0.9-6.6-2.6s-2.4-4.4-2.4-7.8v-5.4c0-3.4,0.8-6.1,2.4-7.8s3.8-2.7,6.6-2.7c2.7,0,4.9,0.9,6.5,2.7
					s2.4,4.4,2.4,7.8v5.4c0,3.5-0.8,6.1-2.4,7.8S907,500.1,904.3,500.1z M904.3,495.4c0.9,0,1.6-0.4,2.1-1.2s0.7-2.2,0.7-4.2v-6.1
					c0-1.9-0.2-3.3-0.7-4.1s-1.2-1.2-2.1-1.2c-0.9,0-1.6,0.4-2.1,1.2s-0.7,2.2-0.7,4.1v6.1c0,2,0.2,3.4,0.7,4.2
					S903.4,495.4,904.3,495.4z"/>
			</g>
		</g>
	</g>
	<g>
		<path class="st1" d="M58.6,282.5l353.5,172.9c-5.4,12.1-7.9,25.3-7.2,38.5c0.6,13.2,4.3,26.1,10.7,37.7L62,704.3
			c-32.7-65.4-50-137.4-50.5-210.6C10.9,420.7,27,348.4,58.6,282.5L58.6,282.5z"/>
		<g>
			<g>
				<path d="M288.1,480.3v3.6l-2.7,0.6v4.3l7.4,13.2l2.7,0.4v3.6h-11.1v-3.6l1.6-0.3l-3.5-7l-0.4-0.9h-0.2l-0.4,0.8l-4.1,7.1
					l2.7,0.3v3.6h-10.8v-3.6l2.7-0.4l7.3-12.7v-4.8l-2.7-0.6v-3.6H288.1z"/>
				<path d="M255.5,479.9c1.8,0,3.4,0.4,4.9,1s2.8,1.6,3.9,2.7s1.9,2.6,2.5,4.1s0.9,3.2,0.9,5.1v0.4c0,1.8-0.3,3.5-0.9,5.1
					s-1.5,3-2.5,4.1s-2.3,2-3.8,2.7s-3.1,1-4.9,1c-1.7,0-3.3-0.4-4.8-1s-2.8-1.5-3.9-2.7c-1.1-1.2-2-2.5-2.6-4.1s-0.9-3.3-0.9-5.1
					v-0.4c0-1.8,0.3-3.5,0.9-5.1s1.5-3,2.6-4.1s2.4-2,3.9-2.7C252.2,480.2,253.9,479.9,255.5,479.9z M255.6,484.6
					c-1.3,0-2.4,0.3-3.3,1c-0.9,0.7-1.6,1.6-2.1,2.9s-0.7,2.7-0.7,4.4v0.4c0,1.6,0.2,3.1,0.7,4.3s1.2,2.2,2.1,2.9c0.9,0.7,2,1,3.3,1
					c1.4,0,2.6-0.3,3.4-1s1.5-1.7,1.9-2.9s0.6-2.6,0.6-4.3v-0.4c0-1.7-0.1-3.2-0.6-4.4s-1.1-2.2-2-2.9
					C258.1,484.9,256.9,484.6,255.6,484.6z"/>
				<path d="M228.4,479.9c2.2,0,4.2,0.4,5.8,1.1s2.9,1.8,3.8,3.1s1.3,3,1.3,5v12.6l2.6,0.6v3.6h-11.5v-3.6l2.7-0.6v-12.6
					c0-1.1-0.1-1.9-0.5-2.6s-0.9-1.2-1.6-1.5s-1.5-0.5-2.5-0.5s-1.9,0.2-2.6,0.5s-1.3,0.8-1.6,1.5s-0.5,1.6-0.5,2.6v12.6l2.6,0.6
					v3.6h-11.5v-3.6l2.7-0.6v-12.6c0-2,0.5-3.7,1.4-5s2.2-2.4,3.8-3.1S226.3,479.9,228.4,479.9z"/>
				<path d="M196.9,480.3l5.9,21.7l2.9,0.3v3.6h-11.5v-3.6l2.8-0.4l-2.8-11.4l-0.4-1.7l0,0l-0.4,1.7l-5,15.5h-4.3l-5.3-16.2
					l-0.4-1.1h-0.1l-0.3,1.1l-3,12.1l2.9,0.4v3.6h-11.3v-3.6l2.7-0.3l6.2-21.7h5.5l4.4,13.2l0.5,1.8h0.1l0.7-1.9l4.5-13.1H196.9z"/>
				<path d="M165.8,480.3v3.6l-2.7,0.6v17.2l2.7,0.6v3.6h-11.5v-3.6l2.7-0.6v-17.2l-2.7-0.6v-3.6H165.8z"/>
				<path d="M141.4,480.4h11.4v3.6l-2.6,0.6v17.2l2.6,0.6v3.6h-2.6h-6.3l-10.3-16.4h-0.1v12.2l3.4,0.6v3.6h-8.8h-2.7v-3.6l2.7-0.6
					v-21.4h6.1l10.5,16h0.1v-11.9l-3.4-0.6L141.4,480.4L141.4,480.4z"/>
				<path d="M105,476.3h2.9v3.5c1.5,0.1,2.9,0.5,4.1,1.2s2.1,1.6,2.8,2.8s1,2.7,1,4.5v0.1h-6c0-0.9-0.1-1.7-0.4-2.3s-0.7-1-1.2-1.3
					s-1.1-0.4-1.7-0.4c-0.5,0-0.9,0.1-1.3,0.3s-0.6,0.5-0.8,0.9s-0.3,0.8-0.3,1.3c0,0.6,0.1,1.1,0.3,1.5s0.5,0.7,0.9,1.1
					s1,0.7,1.7,1c1.8,0.7,3.3,1.5,4.5,2.2s2.1,1.5,2.6,2.5s0.8,2.2,0.8,3.7c0,2-0.6,3.7-2,4.9s-3.1,2-5.4,2.2v3.7h-2.8v-3.8
					c-2.1-0.3-3.8-1.2-5-2.6s-1.8-3.2-1.8-5.4l-0.1-0.1h6.1c0,1.3,0.2,2.2,0.7,2.8s1.1,0.9,1.9,0.9c0.7,0,1.3-0.2,1.7-0.7
					s0.6-1.1,0.6-1.9c0-0.5-0.1-1-0.3-1.3s-0.5-0.7-0.9-1s-1-0.7-1.7-1c-1.8-0.8-3.4-1.5-4.5-2.3s-2-1.6-2.6-2.6s-0.9-2.2-0.9-3.6
					c0-2,0.6-3.7,1.9-4.9s3-2,5.2-2.2v-3.6L105,476.3L105,476.3z"/>
				<path d="M87.3,479.8c1.6,0,3.1,0.3,4.5,0.9s2.5,1.5,3.3,2.6s1.2,2.4,1.2,3.9v0.1l-6,0.4c0-1-0.2-1.8-0.8-2.3s-1.3-0.8-2.2-0.8
					c-1,0-1.8,0.3-2.2,1.1s-0.6,1.7-0.6,2.8c0,1.3,0.2,2.4,0.7,3.2s1.2,1.2,2.3,1.2c0.7,0,1.3-0.2,1.8-0.5s0.8-0.7,1-1.2l5.6,0.3
					l-1.5,14.4H78.9v-6.3h3.5l0.5,1.5h6.4L90,496c-0.3,0.2-0.7,0.4-1.1,0.6s-0.8,0.3-1.3,0.4s-1,0.1-1.5,0.1
					c-1.7,0.1-3.2-0.3-4.3-0.9s-2-1.6-2.6-2.9s-0.9-2.8-0.9-4.7c0-1.6,0.3-3.1,1-4.4s1.7-2.3,3-3.1S85.2,479.9,87.3,479.8z"/>
			</g>
		</g>
	</g>
	<g>
		<path class="st1" d="M524.7,567.8l172.9,353.5c-65.7,31.5-137.6,47.6-210.4,47.2c-72.8-0.4-144.6-17.4-209.9-49.7l175.6-352.2
			c11.2,5.4,23.4,8.3,35.8,8.5C501,575.4,513.3,572.9,524.7,567.8z"/>
		<g>
			<g>
				<path d="M484.9,645.3h3.6l0.6,2.7h4.3l13.2-7.4l0.4-2.7h3.6V649H507l-0.3-1.6l-7,3.5l-0.9,0.4v0.2l0.8,0.4l7.1,4.1l0.3-2.7h3.6
					v10.9H507l-0.4-2.7l-12.7-7.3h-4.8l-0.6,2.7h-3.6V645.3z"/>
				<path d="M484.5,677.8c0-1.8,0.3-3.4,1-4.9s1.6-2.8,2.7-3.9s2.5-1.9,4.1-2.5s3.3-0.9,5.1-0.9h0.4c1.8,0,3.5,0.3,5.1,0.9
					s2.9,1.4,4.1,2.5s2.1,2.4,2.7,3.8s1,3.1,1,4.9c0,1.7-0.3,3.3-1,4.8s-1.6,2.8-2.7,3.9s-2.5,2-4.1,2.6s-3.3,0.9-5.1,0.9h-0.4
					c-1.9,0-3.6-0.3-5.1-0.9s-3-1.5-4.1-2.6s-2.1-2.4-2.7-3.9S484.5,679.5,484.5,677.8z M489.2,677.8c0,1.3,0.3,2.4,1,3.3
					s1.7,1.6,2.9,2.1s2.7,0.7,4.4,0.7h0.4c1.6,0,3.1-0.2,4.3-0.7s2.2-1.2,2.9-2.1s1-2,1-3.3c0-1.4-0.3-2.5-1-3.4s-1.6-1.5-2.9-1.9
					s-2.7-0.6-4.3-0.6h-0.4c-1.7,0-3.1,0.2-4.4,0.6s-2.2,1.1-2.9,2S489.2,676.5,489.2,677.8z"/>
				<path d="M484.5,704.9c0-2.2,0.4-4.1,1.1-5.8s1.7-2.9,3.1-3.8s3-1.3,5-1.3h12.6l0.6-2.6h3.6v11.5h-3.6l-0.6-2.7h-12.6
					c-1,0-1.9,0.2-2.6,0.5s-1.2,0.9-1.5,1.6s-0.5,1.5-0.5,2.5s0.2,1.9,0.5,2.6s0.8,1.2,1.5,1.6s1.5,0.5,2.6,0.5h12.6l0.6-2.6h3.6
					v11.5h-3.6l-0.6-2.7h-12.6c-1.9,0-3.6-0.5-5-1.4s-2.4-2.2-3.1-3.8S484.5,707.1,484.5,704.9z"/>
				<path d="M484.9,736.5l21.7-5.9l0.3-2.9h3.6v11.5h-3.6l-0.4-2.8l-11.4,2.8l-1.7,0.4v0.1l1.7,0.4l15.5,5v4.3l-16.2,5.3l-1.1,0.4
					v0.1l1.1,0.3l12.1,3l0.4-2.9h3.6v11.3h-3.6l-0.3-2.7l-21.7-6.2v-5.5l13.2-4.4l1.8-0.5v-0.1l-1.9-0.7l-13.1-4.5V736.5z"/>
				<path d="M484.9,767.7h3.6l0.6,2.7h17.2l0.6-2.7h3.6v11.5h-3.6l-0.6-2.7h-17.2l-0.6,2.7h-3.6V767.7z"/>
				<path d="M484.9,780.5h3.6l0.6,2.6h17.2l0.6-2.6h3.6v2.6v6.3l-16.4,10.3v0.1h12.2l0.6-3.4h3.6v8.8v2.7h-3.6l-0.6-2.7h-21.4v-6.1
					l16-10.5v-0.1H489l-0.6,3.4h-3.6L484.9,780.5L484.9,780.5z"/>
				<path d="M481.1,825.6h3.5c0.2-1.5,0.6-2.9,1.2-4.1s1.6-2.2,2.8-2.8s2.7-1,4.5-1h0.1v6c-0.9,0-1.7,0.1-2.3,0.4s-1,0.7-1.3,1.2
					s-0.4,1.1-0.4,1.7c0,0.5,0.1,1,0.3,1.3s0.5,0.6,0.9,0.8s0.8,0.3,1.3,0.3c0.6,0,1.1-0.1,1.5-0.3s0.8-0.5,1.1-0.9s0.6-1,1-1.7
					c0.7-1.8,1.5-3.3,2.2-4.5s1.6-2,2.5-2.6s2.2-0.8,3.7-0.8c2,0,3.6,0.7,4.9,2s2,3.1,2.2,5.4h3.7v2.8h-3.8c-0.3,2.1-1.2,3.8-2.6,5
					s-3.2,1.8-5.4,1.8l-0.1,0.1v-6.1c1.3,0,2.2-0.2,2.8-0.7s0.9-1.1,0.9-1.9c0-0.8-0.2-1.4-0.7-1.7s-1.1-0.6-1.9-0.6
					c-0.5,0-1,0.1-1.3,0.3s-0.7,0.5-1,0.9s-0.6,1-1,1.7c-0.8,1.8-1.6,3.3-2.3,4.5s-1.6,2.1-2.6,2.6s-2.2,0.9-3.6,0.9
					c-2,0-3.7-0.6-4.9-1.9s-2-3-2.2-5.2h-3.6v-2.9H481.1z"/>
				<path d="M484.9,837.5h4l8.7,8.2c0.8,0.7,1.6,1.3,2.2,1.8s1.2,0.7,1.8,0.9s1.1,0.3,1.6,0.3c0.8,0,1.5-0.2,2.1-0.7s0.9-1.1,0.9-2
					c0-1-0.3-1.7-1-2.2s-1.6-0.7-2.8-0.7v-6h0.1c1.6,0,3,0.3,4.3,1s2.3,1.8,3,3.1s1.1,3,1.1,4.8s-0.3,3.4-1,4.7s-1.5,2.3-2.7,3
					s-2.5,1.1-4.1,1.1c-1.1,0-2-0.2-2.9-0.5s-1.8-0.9-2.8-1.8s-2.2-1.9-3.7-3.3l-4.1-3.9h-0.1v5.1l2.1,0.3v4.6h-6.8L484.9,837.5
					L484.9,837.5z"/>
				<path d="M484.5,866.8c0-2.8,0.9-5,2.6-6.6s4.4-2.4,7.8-2.4h5.4c3.4,0,6.1,0.8,7.8,2.4s2.7,3.8,2.7,6.6c0,2.7-0.9,4.9-2.7,6.5
					s-4.4,2.4-7.8,2.4H495c-3.5,0-6.1-0.8-7.8-2.4S484.5,869.6,484.5,866.8z M489.2,866.8c0,0.9,0.4,1.6,1.2,2.1s2.2,0.7,4.2,0.7
					h6.1c1.9,0,3.3-0.2,4.1-0.7s1.2-1.2,1.2-2.1c0-0.9-0.4-1.6-1.2-2.1s-2.2-0.7-4.1-0.7h-6.1c-2,0-3.4,0.2-4.2,0.7
					S489.2,865.9,489.2,866.8z"/>
				<path d="M484.5,887.4c0-2.8,0.9-5,2.6-6.6s4.4-2.4,7.8-2.4h5.4c3.4,0,6.1,0.8,7.8,2.4s2.7,3.8,2.7,6.6c0,2.7-0.9,4.9-2.7,6.5
					s-4.4,2.4-7.8,2.4H495c-3.5,0-6.1-0.8-7.8-2.4S484.5,890.1,484.5,887.4z M489.2,887.4c0,0.9,0.4,1.6,1.2,2.1s2.2,0.7,4.2,0.7
					h6.1c1.9,0,3.3-0.2,4.1-0.7s1.2-1.2,1.2-2.1c0-0.9-0.4-1.6-1.2-2.1s-2.2-0.7-4.1-0.7h-6.1c-2,0-3.4,0.2-4.2,0.7
					S489.2,886.4,489.2,887.4z"/>
			</g>
		</g>
	</g>
</g>
<path class="st3" d="M522.4,416.5h-64.7l32.4-32.4L522.4,416.5z"/>
<g>
	<path class="st1" d="M490,575.1c47,0,85.1-38.1,85.1-85.1S537,404.9,490,404.9S404.9,443,404.9,490S443,575.1,490,575.1z"/>
</g>
<g>
	<path d="M490,535.1c24.9,0,45.1-20.2,45.1-45.1s-20.2-45.1-45.1-45.1s-45.1,20.2-45.1,45.1C444.9,514.9,465.1,535.1,490,535.1z"/>
</g>
</svg>
