<svg width="32" height="32" viewBox="0 0 32 32" fill="none" xmlns="http://www.w3.org/2000/svg">
<path d="M15.793 0C7.29416 0 0.359968 6.71087 0.00177769 15.1211C-0.0227011 15.6979 0.417757 15.73 0.417757 15.73H3.09964C3.62093 15.73 3.71228 15.4326 3.7246 15.1661C4.01988 8.78875 9.33441 3.72152 15.793 3.72152C19.2405 3.72152 22.35 5.16655 24.5516 7.48306L22.6697 9.30283C22.3423 9.69699 22.3483 10.1755 22.8317 10.3107L30.7393 11.9025C31.416 12.0715 32.2204 11.5586 31.9442 10.5057L30.0763 3.22459C30.0289 2.94894 29.5668 2.51991 29.1354 2.82764L27.0844 4.74839C24.2155 1.81862 20.2167 0 15.793 0ZM28.9004 16.27C28.3791 16.27 28.2877 16.5674 28.2754 16.8339C27.9801 23.2112 22.6656 28.2785 16.207 28.2785C12.7595 28.2785 9.65004 26.8344 7.44842 24.5179L9.33034 22.6972C9.65766 22.303 9.6517 21.8245 9.16833 21.6893L1.26072 20.0975C0.583957 19.9285 -0.220419 20.4414 0.055791 21.4943L1.9237 28.7754C1.97112 29.0511 2.43324 29.4801 2.86465 29.1724L4.91555 27.2516C7.7845 30.1814 11.7833 32 16.207 32C24.7058 32 31.64 25.2891 31.9982 16.8789C32.0227 16.3021 31.5822 16.27 31.5822 16.27H28.9004V16.27Z" fill="black"/>
</svg>
